<svg width="259" height="846" viewBox="0 0 259 846" fill="none" xmlns="http://www.w3.org/2000/svg"><path d="M72.793 274.071c-3.044 0-5.512 2.705-5.512 6.042 0 3.337 2.468 6.042 5.512 6.042 3.044 0 5.512-2.705 5.512-6.042 0-3.337-2.468-6.042-5.512-6.042z" fill="#FBC8C3"/><path d="M176.41 334.758c-3.044 0-5.512 2.705-5.512 6.042 0 3.337 2.468 6.042 5.512 6.042 3.045 0 5.513-2.705 5.513-6.042 0-3.337-2.468-6.042-5.513-6.042z" fill="#F59AA6"/><path d="M50.691 800.322c-3.044 0-5.512 2.706-5.512 6.043s2.468 6.042 5.512 6.042c3.044 0 5.512-2.705 5.512-6.042 0-3.337-2.468-6.043-5.512-6.043z" fill="url(#paint0_linear_3_7)"/><path d="M95.477 232.146c-3.044 0-5.512 2.705-5.512 6.042 0 3.337 2.468 6.043 5.512 6.043 3.044 0 5.512-2.706 5.512-6.043s-2.468-6.042-5.512-6.042z" fill="#F48074"/><path d="M158.231 641.477c1.113-1.219 1.113-3.18 0-4.399-1.113-1.219-2.915-1.219-4.028 0-1.113 1.219-1.113 3.18 0 4.399 1.113 1.219 2.915 1.219 4.028 0z" fill="url(#paint1_linear_3_7)"/><path d="M20.427 833.183c-3.044 0-5.512 2.705-5.512 6.042 0 3.337 2.468 6.043 5.512 6.043 3.045 0 5.513-2.706 5.513-6.043s-2.468-6.042-5.513-6.042z" fill="#F59AA6"/><path d="M48.73 647.625c-5.064 0-9.17 4.485-9.17 10.017 0 5.533 4.106 10.017 9.17 10.017s9.17-4.484 9.17-10.017c0-5.532-4.106-10.017-9.17-10.017z" fill="url(#paint2_linear_3_7)"/><path d="M80.425 612.644c-5.064 0-9.17 4.485-9.17 10.017 0 5.533 4.106 10.018 9.17 10.018s9.17-4.485 9.17-10.018c0-5.532-4.106-10.017-9.17-10.017z" fill="#FBC8C3"/><path d="M36.01 374.137c-5.064 0-9.169 4.485-9.169 10.018 0 5.532 4.105 10.017 9.17 10.017 5.063 0 9.168-4.485 9.168-10.017 0-5.533-4.105-10.018-9.169-10.018z" fill="url(#paint3_linear_3_7)"/><path d="M27.37 265.802c-5.064 0-9.169 4.485-9.169 10.017 0 5.533 4.105 10.018 9.17 10.018 5.063 0 9.169-4.485 9.168-10.018 0-5.532-4.105-10.017-9.169-10.017z" fill="#F48074"/><path d="M137.56 253.559c1.114-1.219 1.114-3.18 0-4.399-1.113-1.219-2.915-1.219-4.028 0-1.113 1.219-1.113 3.18 0 4.399 1.113 1.219 2.915 1.219 4.028 0z" fill="url(#paint4_linear_3_7)"/><path d="M54.136 447.068c1.113-1.219 1.113-3.18 0-4.399-1.113-1.219-2.915-1.219-4.028 0-1.113 1.219-1.113 3.18 0 4.399 1.113 1.219 2.915 1.219 4.028 0zM120.071 357.283c1.113-1.219 1.113-3.18 0-4.399-1.113-1.219-2.915-1.219-4.028 0-1.113 1.219-1.113 3.18 0 4.399 1.113 1.219 2.915 1.219 4.028 0z" fill="#FBC8C3"/><path d="M172.912 163.668c1.113-1.219 1.113-3.18 0-4.399-1.113-1.219-2.915-1.219-4.028 0-1.113 1.219-1.113 3.18 0 4.399 1.113 1.219 2.915 1.219 4.028 0z" fill="url(#paint5_linear_3_7)"/><path d="M181.817 512.895c1.113-1.219 1.113-3.18 0-4.399-1.113-1.219-2.915-1.219-4.028 0-1.113 1.219-1.113 3.18 0 4.399 1.113 1.219 2.915 1.219 4.028 0zM206.622 676.246c1.113-1.219 1.113-3.18 0-4.399-1.113-1.219-2.915-1.219-4.028 0-1.113 1.219-1.113 3.18 0 4.399 1.113 1.219 2.915 1.219 4.028 0z" fill="#F59AA6"/><path d="M139.045 466.413c1.113-1.219 1.113-3.18 0-4.399-1.113-1.219-2.915-1.219-4.028 0-1.113 1.219-1.113 3.18 0 4.399 1.113 1.219 2.915 1.219 4.028 0z" fill="url(#paint6_linear_3_7)"/><path d="M64.1 266.544c1.114-1.219 1.114-3.18 0-4.399-1.112-1.219-2.915-1.219-4.028 0-1.113 1.219-1.113 3.18 0 4.399 1.113 1.219 2.915 1.219 4.028 0z" fill="#FBC8C3"/><path d="M29.226 560.968c1.113-1.219 1.113-3.18 0-4.399-1.113-1.22-2.916-1.22-4.029 0-1.113 1.219-1.113 3.18 0 4.399 1.113 1.219 2.916 1.219 4.029 0z" fill="#F48074"/><path d="M187.594 414.313c1.113-1.219 1.113-3.18 0-4.399-1.113-1.219-2.915-1.219-4.028 0-1.113 1.219-1.113 3.18 0 4.399 1.113 1.219 2.915 1.219 4.028 0z" fill="#F59AA6"/><path d="M188.707 63.178c-4.918 0-8.904 4.342-8.904 9.699s3.986 9.7 8.904 9.7c4.917 0 8.904-4.343 8.904-9.7 0-5.357-3.987-9.7-8.904-9.7z" fill="#FBC8C3"/><path d="M15.127 785.111c-4.918 0-8.904 4.342-8.904 9.699s3.986 9.699 8.904 9.699c4.918 0 8.904-4.342 8.904-9.699s-3.986-9.699-8.904-9.699z" fill="url(#paint7_linear_3_7)"/><path d="M73.694 28.515c-4.918 0-8.904 4.342-8.904 9.699s3.986 9.7 8.904 9.7c4.918 0 8.904-4.343 8.904-9.7 0-5.357-3.986-9.7-8.904-9.7z" fill="url(#paint8_linear_3_7)"/><path d="M110.423 444.099c0-2.385-1.749-4.293-3.922-4.293s-3.922 1.908-3.922 4.293c0 2.385 1.749 4.293 3.922 4.293s3.922-1.908 3.922-4.293z" fill="#FBC8C3"/><path d="M103.587 288.752c0-2.385-1.749-4.293-3.922-4.293-2.174 0-3.922 1.908-3.922 4.293 0 2.385 1.749 4.293 3.922 4.293s3.922-1.908 3.922-4.293z" fill="#F59AA6"/><path d="M28.325 482.95c0-2.385-1.75-4.294-3.922-4.294-2.173 0-3.922 1.909-3.922 4.294s1.749 4.293 3.922 4.293 3.922-1.908 3.922-4.293z" fill="url(#paint9_linear_3_7)"/><path d="M33.783 612.909c0-2.385-1.749-4.293-3.922-4.293s-3.922 1.908-3.922 4.293c0 2.385 1.75 4.293 3.922 4.293 2.173 0 3.922-1.908 3.922-4.293z" fill="#F48074"/><path d="M29.862 415.32c0-2.386-1.75-4.294-3.922-4.294-2.173 0-3.922 1.908-3.922 4.294 0 2.385 1.749 4.293 3.922 4.293s3.922-1.908 3.922-4.293z" fill="url(#paint10_linear_3_7)"/><path d="M128.497 565.367c0-2.385-1.749-4.293-3.922-4.293s-3.922 1.908-3.922 4.293c0 2.385 1.749 4.293 3.922 4.293s3.922-1.908 3.922-4.293z" fill="#F48074"/><path d="M167.559 565.579c.795-.848.795-2.279 0-3.127-.795-.848-2.067-.848-2.862 0-.795.848-.795 2.279 0 3.127.795.848 2.067.848 2.862 0z" fill="url(#paint11_linear_3_7)"/><path d="M84.347 395.709c0-2.385-1.75-4.293-3.922-4.293-2.173 0-3.922 1.908-3.922 4.293 0 2.385 1.749 4.293 3.922 4.293s3.922-1.908 3.922-4.293z" fill="#FBC8C3"/><path d="M90.442 515.015c0-2.385-1.749-4.293-3.922-4.293s-3.922 1.908-3.922 4.293c0 2.385 1.749 4.293 3.922 4.293s3.922-1.908 3.922-4.293z" fill="#F59AA6"/><path d="M130.088 203.314c0-2.385-1.749-4.294-3.922-4.294-2.174 0-3.923 1.909-3.923 4.294s1.749 4.293 3.923 4.293c2.173 0 3.922-1.908 3.922-4.293z" fill="#FBC8C3"/><path d="M54.931 321.613c-3.6 0-6.519 3.204-6.519 7.155 0 3.952 2.919 7.155 6.52 7.155 3.6 0 6.519-3.203 6.519-7.155 0-3.952-2.92-7.155-6.52-7.155z" fill="url(#paint12_linear_3_7)"/><path d="M142.702 8.109c-3.601 0-6.519 3.203-6.519 7.155 0 3.952 2.918 7.155 6.519 7.155 3.6 0 6.519-3.203 6.519-7.155 0-3.952-2.919-7.155-6.519-7.155z" fill="#F48074"/><path d="M57.582 99.165c-3.6 0-6.52 3.204-6.52 7.156 0 3.951 2.92 7.155 6.52 7.155 3.6 0 6.519-3.204 6.519-7.155 0-3.952-2.919-7.156-6.52-7.156z" fill="url(#paint13_linear_3_7)"/><path d="M45.179 576.285c-3.6 0-6.52 3.203-6.52 7.155 0 3.952 2.92 7.155 6.52 7.155 3.6 0 6.519-3.203 6.519-7.155 0-3.952-2.919-7.155-6.52-7.155z" fill="url(#paint14_linear_3_7)"/><path d="M119.964 29.628c-3.601 0-6.519 3.203-6.519 7.155 0 3.952 2.918 7.155 6.519 7.155 3.6 0 6.519-3.203 6.519-7.155 0-3.952-2.919-7.155-6.519-7.155z" fill="#FBC8C3"/><path d="M64.153 510.669c-3.6 0-6.519 3.204-6.519 7.155 0 3.952 2.919 7.156 6.52 7.156 3.6 0 6.519-3.204 6.519-7.156 0-3.951-2.92-7.155-6.52-7.155z" fill="#F48074"/><path d="M22.017 172.414c-3.6 0-6.519 3.203-6.519 7.155 0 3.951 2.919 7.155 6.52 7.155 3.6 0 6.518-3.204 6.518-7.155 0-3.952-2.918-7.155-6.519-7.155z" fill="#FBC8C3"/><path d="M97.015 36.836c-.69-.954-1.961-1.113-2.862-.318-.848.795-1.007 2.173-.265 3.127.689.954 1.96 1.113 2.862.318.848-.795 1.007-2.173.265-3.127z" fill="url(#paint15_linear_3_7)"/><path d="M192.311 463.604c.795-.848.795-2.28 0-3.128-.795-.848-2.067-.848-2.862 0-.795.849-.795 2.28 0 3.128.795.848 2.067.848 2.862 0z" fill="url(#paint16_linear_3_7)"/><path d="M32.3 356.647c.794-.848.794-2.279 0-3.127-.795-.848-2.068-.848-2.863 0-.795.848-.795 2.279 0 3.127.795.848 2.067.848 2.863 0z" fill="#FBC8C3"/><path d="M66.22 479.928c.796-.848.796-2.279 0-3.127-.794-.848-2.066-.848-2.861 0-.795.848-.795 2.279 0 3.127.795.849 2.067.849 2.862 0z" fill="#F59AA6"/><path d="M146.942 606.443c.795-.848.795-2.279 0-3.127-.795-.848-2.067-.848-2.862 0-.795.848-.795 2.279 0 3.127.795.848 2.067.848 2.862 0z" fill="url(#paint17_linear_3_7)"/><path d="M133.903 398.2c.795-.848.795-2.279 0-3.127-.795-.848-2.067-.848-2.862 0-.795.848-.795 2.279 0 3.127.795.848 2.067.848 2.862 0zM133.903 520.368c.795-.848.795-2.279 0-3.127-.795-.848-2.067-.848-2.862 0-.795.848-.795 2.279 0 3.127.795.848 2.067.848 2.862 0zM159.08 324.263c.795-.848.795-2.279 0-3.127-.795-.848-2.067-.848-2.862 0-.795.848-.795 2.279 0 3.127.795.848 2.067.848 2.862 0z" fill="#F59AA6"/><path d="M147.419 735.979c.795-.848.795-2.28 0-3.128-.795-.848-2.067-.848-2.862 0-.795.848-.795 2.28 0 3.128.795.848 2.067.848 2.862 0z" fill="#F48074"/><path d="M39.455 227.853c.795-.848.795-2.279 0-3.127-.795-.848-2.067-.848-2.862 0-.795.848-.795 2.279 0 3.127.795.848 2.067.848 2.862 0z" fill="#FBC8C3"/><path d="M32.3 428.199c.794-.848.794-2.279 0-3.127-.795-.848-2.068-.848-2.863 0-.795.848-.795 2.279 0 3.127.795.848 2.067.848 2.863 0z" fill="url(#paint18_linear_3_7)"/><path d="M157.065 360.94c.795-.848.795-2.279 0-3.127-.795-.848-2.067-.848-2.862 0-.795.848-.795 2.279 0 3.127.795.848 2.067.848 2.862 0z" fill="url(#paint19_linear_3_7)"/><path d="M20.427 727.657c0-1.908-1.43-3.498-3.18-3.498-1.749 0-3.18 1.537-3.18 3.498 0 1.961 1.431 3.498 3.18 3.498 1.75 0 3.18-1.537 3.18-3.498z" fill="url(#paint20_linear_3_7)"/><path d="M91.237 335.924c0-2.863-2.12-5.195-4.717-5.195-2.597 0-4.717 2.332-4.717 5.195 0 2.862 2.12 5.194 4.717 5.194 2.597 0 4.717-2.332 4.717-5.194z" fill="#F48074"/><path d="M35.162 755.112c0-3.18-2.385-5.777-5.3-5.777-2.916 0-5.3 2.597-5.3 5.777s2.384 5.777 5.3 5.777c2.915 0 5.3-2.597 5.3-5.777z" fill="url(#paint21_linear_3_7)"/><path d="M14.915 104.625c-3.395 0-6.148 2.99-6.148 6.678 0 3.688 2.753 6.678 6.148 6.678 3.396 0 6.149-2.99 6.149-6.678 0-3.688-2.753-6.678-6.149-6.678z" fill="#F48074"/><path d="M64.949 180.258c-4.333 0-7.844 3.844-7.844 8.586 0 4.742 3.511 8.586 7.844 8.586 4.332 0 7.844-3.844 7.844-8.586 0-4.742-3.512-8.586-7.844-8.586z" fill="url(#paint22_linear_3_7)"/><path d="M110.636 827.406c.954-1.06.954-2.756 0-3.763-.954-1.06-2.492-1.06-3.446 0-.954 1.06-.954 2.756 0 3.763.954 1.007 2.492 1.06 3.446 0z" fill="#F48074"/><path d="M92.986 578.193c.954-1.06.954-2.756 0-3.763-.954-1.06-2.49-1.06-3.445 0-.954 1.06-.954 2.756 0 3.763.954 1.06 2.491 1.06 3.445 0zM52.918 723.417c.954-1.06.954-2.756 0-3.763-.954-1.06-2.491-1.06-3.445 0-.954 1.06-.954 2.756 0 3.763.954 1.06 2.49 1.06 3.445 0z" fill="#F59AA6"/><path d="M139.31 0c-5.152 0-9.329 4.556-9.329 10.176s4.177 10.177 9.329 10.177c5.152 0 9.328-4.557 9.328-10.177 0-5.62-4.176-10.176-9.328-10.176z" fill="#FBC8C3"/><path d="M249.5 470.653c1.007 1.113 1.007 2.862 0 3.975s-2.597 1.113-3.604 0c-1.007-1.113-1.007-2.862 0-3.975s2.597-1.113 3.604 0z" fill="url(#paint23_linear_3_7)"/><path d="M254.641 375.409c1.007-1.113 2.597-1.113 3.604 0 1.007 1.113 1.007 2.862 0 3.975s-2.597 1.113-3.604 0c-1.007-1.113-1.007-2.862 0-3.975z" fill="url(#paint24_linear_3_7)"/><path d="M224.112 296.543c-1.007 1.113-2.597 1.113-3.604 0-1.007-1.113-1.007-2.862 0-3.975s2.597-1.113 3.604 0c1.007 1.113 1.007 2.862 0 3.975z" fill="#F59AA6"/><path d="M226.603 828.201c0-2.332 1.696-4.187 3.816-4.187 2.121 0 3.817 1.855 3.817 4.187 0 2.332-1.696 4.187-3.817 4.187-2.12 0-3.816-1.855-3.816-4.187z" fill="#F48074"/><path d="M219.13 747.851c.795.848.795 2.226 0 3.074-.795.848-2.014.848-2.809 0-.795-.848-.795-2.226 0-3.074.795-.849 2.014-.849 2.809 0z" fill="#F59AA6"/><path d="M227.027 48.125c.795-.848 2.014-.848 2.809 0 .795.848.795 2.226 0 3.074-.795.848-2.014.848-2.809 0-.795-.848-.795-2.226 0-3.074z" fill="url(#paint25_linear_3_7)"/><path d="M6.393 550.334c-5.182.007-9.377 4.212-9.37 9.393a9.382 9.382 0 109.37-9.393z" fill="#FBC8C3"/><path d="M6.381 336.294a9.381 9.381 0 00-9.38 9.381 9.381 9.381 0 1018.762 0c0-5.181-4.2-9.381-9.382-9.381zM34.843 305.076c-3.951 0-7.155 3.512-7.155 7.845 0 4.332 3.204 7.844 7.155 7.844 3.952 0 7.155-3.512 7.155-7.844 0-4.333-3.203-7.845-7.155-7.845z" fill="#F59AA6"/><path d="M21.01 680.433c-5.194.424-9.116 4.611-8.745 9.381.37 4.77 4.929 8.269 10.123 7.844 5.194-.424 9.116-4.611 8.745-9.381-.37-4.77-4.929-8.268-10.123-7.844z" fill="url(#paint26_linear_3_7)"/><defs><linearGradient id="paint13_linear_3_7" x1="57.529" y1="99.219" x2="57.529" y2="113.476" gradientUnits="userSpaceOnUse"><stop stop-color="#B09430"/><stop offset=".05" stop-color="#BC9E30"/><stop offset=".18" stop-color="#D9B530"/><stop offset=".31" stop-color="#EEC630"/><stop offset=".44" stop-color="#FAD030"/><stop offset=".56" stop-color="#FFD431"/><stop offset=".65" stop-color="#FAD030"/><stop offset=".75" stop-color="#ECC530"/><stop offset=".86" stop-color="#D6B330"/><stop offset=".98" stop-color="#B79A30"/><stop offset="1" stop-color="#B09430"/></linearGradient><linearGradient id="paint0_linear_3_7" x1="50.638" y1="800.428" x2="50.638" y2="812.46" gradientUnits="userSpaceOnUse"><stop stop-color="#B5832C"/><stop offset=".56" stop-color="#FFD431"/><stop offset=".99" stop-color="#AD7E2B"/><stop offset="1" stop-color="#AB7B2B"/></linearGradient><linearGradient id="paint2_linear_3_7" x1="48.677" y1="647.678" x2="48.677" y2="667.712" gradientUnits="userSpaceOnUse"><stop stop-color="#B09430"/><stop offset=".05" stop-color="#BC9E30"/><stop offset=".18" stop-color="#D9B530"/><stop offset=".31" stop-color="#EEC630"/><stop offset=".44" stop-color="#FAD030"/><stop offset=".56" stop-color="#FFD431"/><stop offset=".65" stop-color="#FAD030"/><stop offset=".75" stop-color="#ECC530"/><stop offset=".86" stop-color="#D6B330"/><stop offset=".98" stop-color="#B79A30"/><stop offset="1" stop-color="#B09430"/></linearGradient><linearGradient id="paint3_linear_3_7" x1="35.957" y1="374.19" x2="35.957" y2="394.225" gradientUnits="userSpaceOnUse"><stop stop-color="#B09430"/><stop offset=".05" stop-color="#BC9E30"/><stop offset=".18" stop-color="#D9B530"/><stop offset=".31" stop-color="#EEC630"/><stop offset=".44" stop-color="#FAD030"/><stop offset=".56" stop-color="#FFD431"/><stop offset=".65" stop-color="#FAD030"/><stop offset=".75" stop-color="#ECC530"/><stop offset=".86" stop-color="#D6B330"/><stop offset=".98" stop-color="#B79A30"/><stop offset="1" stop-color="#B09430"/></linearGradient><linearGradient id="paint4_linear_3_7" x1="135.493" y1="248.312" x2="135.493" y2="254.513" gradientUnits="userSpaceOnUse"><stop stop-color="#B09430"/><stop offset=".05" stop-color="#BC9E30"/><stop offset=".18" stop-color="#D9B530"/><stop offset=".31" stop-color="#EEC630"/><stop offset=".44" stop-color="#FAD030"/><stop offset=".56" stop-color="#FFD431"/><stop offset=".65" stop-color="#FAD030"/><stop offset=".75" stop-color="#ECC530"/><stop offset=".86" stop-color="#D6B330"/><stop offset=".98" stop-color="#B79A30"/><stop offset="1" stop-color="#B09430"/></linearGradient><linearGradient id="paint5_linear_3_7" x1="170.898" y1="158.421" x2="170.898" y2="164.675" gradientUnits="userSpaceOnUse"><stop stop-color="#B09430"/><stop offset=".05" stop-color="#BC9E30"/><stop offset=".18" stop-color="#D9B530"/><stop offset=".31" stop-color="#EEC630"/><stop offset=".44" stop-color="#FAD030"/><stop offset=".56" stop-color="#FFD431"/><stop offset=".65" stop-color="#FAD030"/><stop offset=".75" stop-color="#ECC530"/><stop offset=".86" stop-color="#D6B330"/><stop offset=".98" stop-color="#B79A30"/><stop offset="1" stop-color="#B09430"/></linearGradient><linearGradient id="paint6_linear_3_7" x1="137.031" y1="461.219" x2="137.031" y2="467.42" gradientUnits="userSpaceOnUse"><stop stop-color="#B5832C"/><stop offset=".56" stop-color="#FFD431"/><stop offset=".99" stop-color="#AD7E2B"/><stop offset="1" stop-color="#AB7B2B"/></linearGradient><linearGradient id="paint7_linear_3_7" x1="15.074" y1="785.164" x2="15.074" y2="804.615" gradientUnits="userSpaceOnUse"><stop offset=".16" stop-color="#FFC518"/><stop offset=".89" stop-color="#E79E24"/></linearGradient><linearGradient id="paint8_linear_3_7" x1="73.641" y1="28.568" x2="73.641" y2="48.019" gradientUnits="userSpaceOnUse"><stop stop-color="#B09430"/><stop offset=".05" stop-color="#BC9E30"/><stop offset=".18" stop-color="#D9B530"/><stop offset=".31" stop-color="#EEC630"/><stop offset=".44" stop-color="#FAD030"/><stop offset=".56" stop-color="#FFD431"/><stop offset=".65" stop-color="#FAD030"/><stop offset=".75" stop-color="#ECC530"/><stop offset=".86" stop-color="#D6B330"/><stop offset=".98" stop-color="#B79A30"/><stop offset="1" stop-color="#B09430"/></linearGradient><linearGradient id="paint9_linear_3_7" x1="24.297" y1="478.709" x2="24.297" y2="487.296" gradientUnits="userSpaceOnUse"><stop stop-color="#B09430"/><stop offset=".05" stop-color="#BC9E30"/><stop offset=".18" stop-color="#D9B530"/><stop offset=".31" stop-color="#EEC630"/><stop offset=".44" stop-color="#FAD030"/><stop offset=".56" stop-color="#FFD431"/><stop offset=".65" stop-color="#FAD030"/><stop offset=".75" stop-color="#ECC530"/><stop offset=".86" stop-color="#D6B330"/><stop offset=".98" stop-color="#B79A30"/><stop offset="1" stop-color="#B09430"/></linearGradient><linearGradient id="paint10_linear_3_7" x1="25.887" y1="411.079" x2="25.887" y2="419.719" gradientUnits="userSpaceOnUse"><stop offset=".16" stop-color="#FFC518"/><stop offset=".89" stop-color="#E79E24"/></linearGradient><linearGradient id="paint11_linear_3_7" x1="166.075" y1="561.869" x2="166.075" y2="566.268" gradientUnits="userSpaceOnUse"><stop stop-color="#B09430"/><stop offset=".05" stop-color="#BC9E30"/><stop offset=".18" stop-color="#D9B530"/><stop offset=".31" stop-color="#EEC630"/><stop offset=".44" stop-color="#FAD030"/><stop offset=".56" stop-color="#FFD431"/><stop offset=".65" stop-color="#FAD030"/><stop offset=".75" stop-color="#ECC530"/><stop offset=".86" stop-color="#D6B330"/><stop offset=".98" stop-color="#B79A30"/><stop offset="1" stop-color="#B09430"/></linearGradient><linearGradient id="paint12_linear_3_7" x1="54.879" y1="321.719" x2="54.879" y2="335.976" gradientUnits="userSpaceOnUse"><stop offset=".16" stop-color="#FFC518"/><stop offset=".89" stop-color="#E79E24"/></linearGradient><linearGradient id="paint1_linear_3_7" x1="156.217" y1="636.23" x2="156.217" y2="642.431" gradientUnits="userSpaceOnUse"><stop stop-color="#B09430"/><stop offset=".05" stop-color="#BC9E30"/><stop offset=".18" stop-color="#D9B530"/><stop offset=".31" stop-color="#EEC630"/><stop offset=".44" stop-color="#FAD030"/><stop offset=".56" stop-color="#FFD431"/><stop offset=".65" stop-color="#FAD030"/><stop offset=".75" stop-color="#ECC530"/><stop offset=".86" stop-color="#D6B330"/><stop offset=".98" stop-color="#B79A30"/><stop offset="1" stop-color="#B09430"/></linearGradient><linearGradient id="paint14_linear_3_7" x1="45.126" y1="576.338" x2="45.126" y2="590.648" gradientUnits="userSpaceOnUse"><stop stop-color="#B09430"/><stop offset=".05" stop-color="#BC9E30"/><stop offset=".18" stop-color="#D9B530"/><stop offset=".31" stop-color="#EEC630"/><stop offset=".44" stop-color="#FAD030"/><stop offset=".56" stop-color="#FFD431"/><stop offset=".65" stop-color="#FAD030"/><stop offset=".75" stop-color="#ECC530"/><stop offset=".86" stop-color="#D6B330"/><stop offset=".98" stop-color="#B79A30"/><stop offset="1" stop-color="#B09430"/></linearGradient><linearGradient id="paint15_linear_3_7" x1="95.425" y1="36.094" x2="95.425" y2="40.493" gradientUnits="userSpaceOnUse"><stop stop-color="#B09430"/><stop offset=".05" stop-color="#BC9E30"/><stop offset=".18" stop-color="#D9B530"/><stop offset=".31" stop-color="#EEC630"/><stop offset=".44" stop-color="#FAD030"/><stop offset=".56" stop-color="#FFD431"/><stop offset=".65" stop-color="#FAD030"/><stop offset=".75" stop-color="#ECC530"/><stop offset=".86" stop-color="#D6B330"/><stop offset=".98" stop-color="#B79A30"/><stop offset="1" stop-color="#B09430"/></linearGradient><linearGradient id="paint16_linear_3_7" x1="190.827" y1="459.893" x2="190.827" y2="464.293" gradientUnits="userSpaceOnUse"><stop stop-color="#B09430"/><stop offset=".05" stop-color="#BC9E30"/><stop offset=".18" stop-color="#D9B530"/><stop offset=".31" stop-color="#EEC630"/><stop offset=".44" stop-color="#FAD030"/><stop offset=".56" stop-color="#FFD431"/><stop offset=".65" stop-color="#FAD030"/><stop offset=".75" stop-color="#ECC530"/><stop offset=".86" stop-color="#D6B330"/><stop offset=".98" stop-color="#B79A30"/><stop offset="1" stop-color="#B09430"/></linearGradient><linearGradient id="paint17_linear_3_7" x1="145.458" y1="602.733" x2="145.458" y2="607.132" gradientUnits="userSpaceOnUse"><stop stop-color="#B09430"/><stop offset=".05" stop-color="#BC9E30"/><stop offset=".18" stop-color="#D9B530"/><stop offset=".31" stop-color="#EEC630"/><stop offset=".44" stop-color="#FAD030"/><stop offset=".56" stop-color="#FFD431"/><stop offset=".65" stop-color="#FAD030"/><stop offset=".75" stop-color="#ECC530"/><stop offset=".86" stop-color="#D6B330"/><stop offset=".98" stop-color="#B79A30"/><stop offset="1" stop-color="#B09430"/></linearGradient><linearGradient id="paint18_linear_3_7" x1="30.815" y1="424.489" x2="30.815" y2="428.941" gradientUnits="userSpaceOnUse"><stop offset=".16" stop-color="#FFC518"/><stop offset=".89" stop-color="#E79E24"/></linearGradient><linearGradient id="paint19_linear_3_7" x1="155.581" y1="357.23" x2="155.581" y2="361.629" gradientUnits="userSpaceOnUse"><stop offset=".16" stop-color="#FFC518"/><stop offset=".89" stop-color="#E79E24"/></linearGradient><linearGradient id="paint20_linear_3_7" x1="17.194" y1="724.212" x2="17.194" y2="731.208" gradientUnits="userSpaceOnUse"><stop offset=".16" stop-color="#FFC518"/><stop offset=".89" stop-color="#E79E24"/></linearGradient><linearGradient id="paint21_linear_3_7" x1="29.808" y1="749.388" x2="29.808" y2="760.942" gradientUnits="userSpaceOnUse"><stop stop-color="#B09430"/><stop offset=".05" stop-color="#BC9E30"/><stop offset=".18" stop-color="#D9B530"/><stop offset=".31" stop-color="#EEC630"/><stop offset=".44" stop-color="#FAD030"/><stop offset=".56" stop-color="#FFD431"/><stop offset=".65" stop-color="#FAD030"/><stop offset=".75" stop-color="#ECC530"/><stop offset=".86" stop-color="#D6B330"/><stop offset=".98" stop-color="#B79A30"/><stop offset="1" stop-color="#B09430"/></linearGradient><linearGradient id="paint22_linear_3_7" x1="64.896" y1="180.258" x2="64.896" y2="197.483" gradientUnits="userSpaceOnUse"><stop offset=".16" stop-color="#FFC518"/><stop offset=".89" stop-color="#E79E24"/></linearGradient><linearGradient id="paint23_linear_3_7" x1="247.592" y1="469.911" x2="247.592" y2="475.476" gradientUnits="userSpaceOnUse"><stop stop-color="#B09430"/><stop offset=".05" stop-color="#BC9E30"/><stop offset=".18" stop-color="#D9B530"/><stop offset=".31" stop-color="#EEC630"/><stop offset=".44" stop-color="#FAD030"/><stop offset=".56" stop-color="#FFD431"/><stop offset=".65" stop-color="#FAD030"/><stop offset=".75" stop-color="#ECC530"/><stop offset=".86" stop-color="#D6B330"/><stop offset=".98" stop-color="#B79A30"/><stop offset="1" stop-color="#B09430"/></linearGradient><linearGradient id="paint24_linear_3_7" x1="256.443" y1="374.667" x2="256.443" y2="380.285" gradientUnits="userSpaceOnUse"><stop offset=".16" stop-color="#FFC518"/><stop offset=".89" stop-color="#E79E24"/></linearGradient><linearGradient id="paint25_linear_3_7" x1="228.405" y1="47.542" x2="228.405" y2="51.888" gradientUnits="userSpaceOnUse"><stop stop-color="#B09430"/><stop offset=".05" stop-color="#BC9E30"/><stop offset=".18" stop-color="#D9B530"/><stop offset=".31" stop-color="#EEC630"/><stop offset=".44" stop-color="#FAD030"/><stop offset=".56" stop-color="#FFD431"/><stop offset=".65" stop-color="#FAD030"/><stop offset=".75" stop-color="#ECC530"/><stop offset=".86" stop-color="#D6B330"/><stop offset=".98" stop-color="#B79A30"/><stop offset="1" stop-color="#B09430"/></linearGradient><linearGradient id="paint26_linear_3_7" x1="11.322" y1="690.22" x2="30.181" y2="688.693" gradientUnits="userSpaceOnUse"><stop stop-color="#B5832C"/><stop offset=".56" stop-color="#FFD431"/><stop offset=".99" stop-color="#AD7E2B"/><stop offset="1" stop-color="#AB7B2B"/></linearGradient></defs></svg>0.05" stop-color="#BC9E30"/>
<stop offset="0.18" stop-color="#D9B530"/>
<stop offset="0.31" stop-color="#EEC630"/>
<stop offset="0.44" stop-color="#FAD030"/>
<stop offset="0.56" stop-color="#FFD431"/>
<stop offset="0.65" stop-color="#FAD030"/>
<stop offset="0.75" stop-color="#ECC530"/>
<stop offset="0.86" stop-color="#D6B330"/>
<stop offset="0.98" stop-color="#B79A30"/>
<stop offset="1" stop-color="#B09430"/>
</linearGradient>
<linearGradient id="paint14_linear_3_7" x1="45.1258" y1="576.338" x2="45.1258" y2="590.648" gradientUnits="userSpaceOnUse">
<stop stop-color="#B09430"/>
<stop offset="0.05" stop-color="#BC9E30"/>
<stop offset="0.18" stop-color="#D9B530"/>
<stop offset="0.31" stop-color="#EEC630"/>
<stop offset="0.44" stop-color="#FAD030"/>
<stop offset="0.56" stop-color="#FFD431"/>
<stop offset="0.65" stop-color="#FAD030"/>
<stop offset="0.75" stop-color="#ECC530"/>
<stop offset="0.86" stop-color="#D6B330"/>
<stop offset="0.98" stop-color="#B79A30"/>
<stop offset="1" stop-color="#B09430"/>
</linearGradient>
<linearGradient id="paint15_linear_3_7" x1="95.4247" y1="36.0938" x2="95.4247" y2="40.493" gradientUnits="userSpaceOnUse">
<stop stop-color="#B09430"/>
<stop offset="0.05" stop-color="#BC9E30"/>
<stop offset="0.18" stop-color="#D9B530"/>
<stop offset="0.31" stop-color="#EEC630"/>
<stop offset="0.44" stop-color="#FAD030"/>
<stop offset="0.56" stop-color="#FFD431"/>
<stop offset="0.65" stop-color="#FAD030"/>
<stop offset="0.75" stop-color="#ECC530"/>
<stop offset="0.86" stop-color="#D6B330"/>
<stop offset="0.98" stop-color="#B79A30"/>
<stop offset="1" stop-color="#B09430"/>
</linearGradient>
<linearGradient id="paint16_linear_3_7" x1="190.827" y1="459.893" x2="190.827" y2="464.293" gradientUnits="userSpaceOnUse">
<stop stop-color="#B09430"/>
<stop offset="0.05" stop-color="#BC9E30"/>
<stop offset="0.18" stop-color="#D9B530"/>
<stop offset="0.31" stop-color="#EEC630"/>
<stop offset="0.44" stop-color="#FAD030"/>
<stop offset="0.56" stop-color="#FFD431"/>
<stop offset="0.65" stop-color="#FAD030"/>
<stop offset="0.75" stop-color="#ECC530"/>
<stop offset="0.86" stop-color="#D6B330"/>
<stop offset="0.98" stop-color="#B79A30"/>
<stop offset="1" stop-color="#B09430"/>
</linearGradient>
<linearGradient id="paint17_linear_3_7" x1="145.458" y1="602.733" x2="145.458" y2="607.132" gradientUnits="userSpaceOnUse">
<stop stop-color="#B09430"/>
<stop offset="0.05" stop-color="#BC9E30"/>
<stop offset="0.18" stop-color="#D9B530"/>
<stop offset="0.31" stop-color="#EEC630"/>
<stop offset="0.44" stop-color="#FAD030"/>
<stop offset="0.56" stop-color="#FFD431"/>
<stop offset="0.65" stop-color="#FAD030"/>
<stop offset="0.75" stop-color="#ECC530"/>
<stop offset="0.86" stop-color="#D6B330"/>
<stop offset="0.98" stop-color="#B79A30"/>
<stop offset="1" stop-color="#B09430"/>
</linearGradient>
<linearGradient id="paint18_linear_3_7" x1="30.8154" y1="424.489" x2="30.8154" y2="428.941" gradientUnits="userSpaceOnUse">
<stop offset="0.16" stop-color="#FFC518"/>
<stop offset="0.89" stop-color="#E79E24"/>
</linearGradient>
<linearGradient id="paint19_linear_3_7" x1="155.581" y1="357.23" x2="155.581" y2="361.629" gradientUnits="userSpaceOnUse">
<stop offset="0.16" stop-color="#FFC518"/>
<stop offset="0.89" stop-color="#E79E24"/>
</linearGradient>
<linearGradient id="paint20_linear_3_7" x1="17.1942" y1="724.212" x2="17.1942" y2="731.208" gradientUnits="userSpaceOnUse">
<stop offset="0.16" stop-color="#FFC518"/>
<stop offset="0.89" stop-color="#E79E24"/>
</linearGradient>
<linearGradient id="paint21_linear_3_7" x1="29.8085" y1="749.388" x2="29.8085" y2="760.942" gradientUnits="userSpaceOnUse">
<stop stop-color="#B09430"/>
<stop offset="0.05" stop-color="#BC9E30"/>
<stop offset="0.18" stop-color="#D9B530"/>
<stop offset="0.31" stop-color="#EEC630"/>
<stop offset="0.44" stop-color="#FAD030"/>
<stop offset="0.56" stop-color="#FFD431"/>
<stop offset="0.65" stop-color="#FAD030"/>
<stop offset="0.75" stop-color="#ECC530"/>
<stop offset="0.86" stop-color="#D6B330"/>
<stop offset="0.98" stop-color="#B79A30"/>
<stop offset="1" stop-color="#B09430"/>
</linearGradient>
<linearGradient id="paint22_linear_3_7" x1="64.8957" y1="180.258" x2="64.8957" y2="197.483" gradientUnits="userSpaceOnUse">
<stop offset="0.16" stop-color="#FFC518"/>
<stop offset="0.89" stop-color="#E79E24"/>
</linearGradient>
<linearGradient id="paint23_linear_3_7" x1="247.592" y1="469.911" x2="247.592" y2="475.476" gradientUnits="userSpaceOnUse">
<stop stop-color="#B09430"/>
<stop offset="0.05" stop-color="#BC9E30"/>
<stop offset="0.18" stop-color="#D9B530"/>
<stop offset="0.31" stop-color="#EEC630"/>
<stop offset="0.44" stop-color="#FAD030"/>
<stop offset="0.56" stop-color="#FFD431"/>
<stop offset="0.65" stop-color="#FAD030"/>
<stop offset="0.75" stop-color="#ECC530"/>
<stop offset="0.86" stop-color="#D6B330"/>
<stop offset="0.98" stop-color="#B79A30"/>
<stop offset="1" stop-color="#B09430"/>
</linearGradient>
<linearGradient id="paint24_linear_3_7" x1="256.443" y1="374.667" x2="256.443" y2="380.285" gradientUnits="userSpaceOnUse">
<stop offset="0.16" stop-color="#FFC518"/>
<stop offset="0.89" stop-color="#E79E24"/>
</linearGradient>
<linearGradient id="paint25_linear_3_7" x1="228.405" y1="47.5419" x2="228.405" y2="51.888" gradientUnits="userSpaceOnUse">
<stop stop-color="#B09430"/>
<stop offset="0.05" stop-color="#BC9E30"/>
<stop offset="0.18" stop-color="#D9B530"/>
<stop offset="0.31" stop-color="#EEC630"/>
<stop offset="0.44" stop-color="#FAD030"/>
<stop offset="0.56" stop-color="#FFD431"/>
<stop offset="0.65" stop-color="#FAD030"/>
<stop offset="0.75" stop-color="#ECC530"/>
<stop offset="0.86" stop-color="#D6B330"/>
<stop offset="0.98" stop-color="#B79A30"/>
<stop offset="1" stop-color="#B09430"/>
</linearGradient>
<linearGradient id="paint26_linear_3_7" x1="11.3215" y1="690.22" x2="30.1813" y2="688.693" gradientUnits="userSpaceOnUse">
<stop stop-color="#B5832C"/>
<stop offset="0.56" stop-color="#FFD431"/>
<stop offset="0.99" stop-color="#AD7E2B"/>
<stop offset="1" stop-color="#AB7B2B"/>
</linearGradient>
</defs>
</svg>
