<svg width="259" height="846" viewBox="0 0 259 846" fill="none" xmlns="http://www.w3.org/2000/svg">
<path d="M72.7931 274.071C69.7488 274.071 67.2809 276.776 67.2809 280.113C67.2809 283.45 69.7488 286.155 72.7931 286.155C75.8373 286.155 78.3052 283.45 78.3052 280.113C78.3052 276.776 75.8373 274.071 72.7931 274.071Z" fill="#FBC8C3"/>
<path d="M176.41 334.758C173.366 334.758 170.898 337.463 170.898 340.8C170.898 344.137 173.366 346.842 176.41 346.842C179.455 346.842 181.923 344.137 181.923 340.8C181.923 337.463 179.455 334.758 176.41 334.758Z" fill="#F59AA6"/>
<path d="M50.691 800.322C47.6467 800.322 45.1788 803.028 45.1788 806.365C45.1788 809.702 47.6467 812.407 50.691 812.407C53.7353 812.407 56.2031 809.702 56.2031 806.365C56.2031 803.028 53.7353 800.322 50.691 800.322Z" fill="url(#paint0_linear_3_7)"/>
<path d="M95.4769 232.146C92.4326 232.146 89.9647 234.851 89.9647 238.188C89.9647 241.525 92.4326 244.231 95.4769 244.231C98.5212 244.231 100.989 241.525 100.989 238.188C100.989 234.851 98.5212 232.146 95.4769 232.146Z" fill="#F48074"/>
<path d="M158.231 641.477C159.344 640.258 159.344 638.297 158.231 637.078C157.118 635.859 155.316 635.859 154.203 637.078C153.09 638.297 153.09 640.258 154.203 641.477C155.316 642.696 157.118 642.696 158.231 641.477Z" fill="url(#paint1_linear_3_7)"/>
<path d="M20.4275 833.183C17.3832 833.183 14.9154 835.888 14.9154 839.225C14.9154 842.562 17.3832 845.268 20.4275 845.268C23.4718 845.268 25.9397 842.562 25.9397 839.225C25.9397 835.888 23.4718 833.183 20.4275 833.183Z" fill="#F59AA6"/>
<path d="M48.7301 647.625C43.6661 647.625 39.5609 652.11 39.5609 657.642C39.5609 663.175 43.6661 667.659 48.7301 667.659C53.7941 667.659 57.8994 663.175 57.8994 657.642C57.8994 652.11 53.7941 647.625 48.7301 647.625Z" fill="url(#paint2_linear_3_7)"/>
<path d="M80.4252 612.644C75.3612 612.644 71.2559 617.129 71.2559 622.661C71.2559 628.194 75.3612 632.679 80.4252 632.679C85.4893 632.679 89.5945 628.194 89.5945 622.661C89.5945 617.129 85.4893 612.644 80.4252 612.644Z" fill="#FBC8C3"/>
<path d="M36.0102 374.137C30.9462 374.137 26.841 378.622 26.841 384.155C26.841 389.687 30.9462 394.172 36.0102 394.172C41.0742 394.172 45.1794 389.687 45.1794 384.155C45.1794 378.622 41.0742 374.137 36.0102 374.137Z" fill="url(#paint3_linear_3_7)"/>
<path d="M27.3702 265.802C22.3062 265.802 18.201 270.287 18.201 275.819C18.201 281.352 22.3062 285.837 27.3702 285.837C32.4343 285.837 36.5396 281.352 36.5395 275.819C36.5395 270.287 32.4343 265.802 27.3702 265.802Z" fill="#F48074"/>
<path d="M137.56 253.559C138.674 252.34 138.674 250.379 137.56 249.16C136.447 247.941 134.645 247.941 133.532 249.16C132.419 250.379 132.419 252.34 133.532 253.559C134.645 254.778 136.447 254.778 137.56 253.559Z" fill="url(#paint4_linear_3_7)"/>
<path d="M54.1362 447.068C55.2492 445.849 55.2492 443.888 54.1362 442.669C53.0231 441.45 51.2211 441.45 50.1081 442.669C48.9951 443.888 48.9951 445.849 50.1081 447.068C51.2211 448.287 53.0231 448.287 54.1362 447.068Z" fill="#FBC8C3"/>
<path d="M120.071 357.283C121.184 356.064 121.184 354.103 120.071 352.884C118.958 351.665 117.156 351.665 116.043 352.884C114.93 354.103 114.93 356.064 116.043 357.283C117.156 358.502 118.958 358.502 120.071 357.283Z" fill="#FBC8C3"/>
<path d="M172.912 163.668C174.025 162.449 174.025 160.488 172.912 159.269C171.799 158.05 169.997 158.05 168.884 159.269C167.771 160.488 167.771 162.449 168.884 163.668C169.997 164.887 171.799 164.887 172.912 163.668Z" fill="url(#paint5_linear_3_7)"/>
<path d="M181.817 512.895C182.93 511.676 182.93 509.715 181.817 508.496C180.704 507.277 178.902 507.277 177.789 508.496C176.676 509.715 176.676 511.676 177.789 512.895C178.902 514.114 180.704 514.114 181.817 512.895Z" fill="#F59AA6"/>
<path d="M206.622 676.246C207.735 675.027 207.735 673.066 206.622 671.847C205.509 670.628 203.707 670.628 202.594 671.847C201.481 673.066 201.481 675.027 202.594 676.246C203.707 677.465 205.509 677.465 206.622 676.246Z" fill="#F59AA6"/>
<path d="M139.045 466.413C140.158 465.194 140.158 463.233 139.045 462.014C137.932 460.795 136.13 460.795 135.017 462.014C133.904 463.233 133.904 465.194 135.017 466.413C136.13 467.632 137.932 467.632 139.045 466.413Z" fill="url(#paint6_linear_3_7)"/>
<path d="M64.1005 266.544C65.2136 265.325 65.2136 263.364 64.1005 262.145C62.9875 260.926 61.1854 260.926 60.0724 262.145C58.9593 263.364 58.9593 265.325 60.0724 266.544C61.1854 267.763 62.9875 267.763 64.1005 266.544Z" fill="#FBC8C3"/>
<path d="M29.2255 560.968C30.3386 559.749 30.3386 557.788 29.2255 556.569C28.1125 555.349 26.3104 555.349 25.1974 556.569C24.0843 557.788 24.0843 559.749 25.1974 560.968C26.3104 562.187 28.1125 562.187 29.2255 560.968Z" fill="#F48074"/>
<path d="M187.594 414.313C188.707 413.094 188.707 411.133 187.594 409.914C186.481 408.695 184.679 408.695 183.566 409.914C182.453 411.133 182.453 413.094 183.566 414.313C184.679 415.532 186.481 415.532 187.594 414.313Z" fill="#F59AA6"/>
<path d="M188.707 63.1777C183.789 63.1777 179.803 67.5202 179.803 72.877C179.803 78.2337 183.789 82.5762 188.707 82.5762C193.624 82.5762 197.611 78.2337 197.611 72.877C197.611 67.5202 193.624 63.1777 188.707 63.1777Z" fill="#FBC8C3"/>
<path d="M15.127 785.111C10.2093 785.111 6.22274 789.453 6.22275 794.81C6.22275 800.167 10.2093 804.509 15.127 804.509C20.0446 804.509 24.0312 800.167 24.0312 794.81C24.0312 789.453 20.0446 785.111 15.127 785.111Z" fill="url(#paint7_linear_3_7)"/>
<path d="M73.6942 28.5146C68.7765 28.5146 64.7899 32.8571 64.7899 38.2139C64.7899 43.5706 68.7765 47.9131 73.6942 47.9131C78.6119 47.9131 82.5984 43.5706 82.5984 38.2139C82.5984 32.8571 78.6119 28.5146 73.6942 28.5146Z" fill="url(#paint8_linear_3_7)"/>
<path d="M110.423 444.099C110.423 441.714 108.674 439.806 106.501 439.806C104.328 439.806 102.579 441.714 102.579 444.099C102.579 446.484 104.328 448.392 106.501 448.392C108.674 448.392 110.423 446.484 110.423 444.099Z" fill="#FBC8C3"/>
<path d="M103.587 288.752C103.587 286.367 101.838 284.459 99.6645 284.459C97.4915 284.459 95.7425 286.367 95.7425 288.752C95.7425 291.137 97.4915 293.045 99.6645 293.045C101.838 293.045 103.587 291.137 103.587 288.752Z" fill="#F59AA6"/>
<path d="M28.325 482.95C28.325 480.565 26.5759 478.656 24.4028 478.656C22.2297 478.656 20.4807 480.565 20.4807 482.95C20.4807 485.335 22.2298 487.243 24.4028 487.243C26.5759 487.243 28.325 485.335 28.325 482.95Z" fill="url(#paint9_linear_3_7)"/>
<path d="M33.7834 612.909C33.7834 610.524 32.0344 608.616 29.8613 608.616C27.6882 608.616 25.9392 610.524 25.9392 612.909C25.9392 615.294 27.6882 617.202 29.8613 617.202C32.0344 617.202 33.7834 615.294 33.7834 612.909Z" fill="#F48074"/>
<path d="M29.8618 415.32C29.8618 412.934 28.1128 411.026 25.9398 411.026C23.7667 411.026 22.0176 412.934 22.0176 415.32C22.0176 417.705 23.7667 419.613 25.9398 419.613C28.1128 419.613 29.8618 417.705 29.8618 415.32Z" fill="url(#paint10_linear_3_7)"/>
<path d="M128.497 565.367C128.497 562.982 126.748 561.074 124.575 561.074C122.402 561.074 120.653 562.982 120.653 565.367C120.653 567.752 122.402 569.66 124.575 569.66C126.748 569.66 128.497 567.752 128.497 565.367Z" fill="#F48074"/>
<path d="M167.559 565.579C168.354 564.731 168.354 563.3 167.559 562.452C166.764 561.604 165.492 561.604 164.697 562.452C163.902 563.3 163.902 564.731 164.697 565.579C165.492 566.427 166.764 566.427 167.559 565.579Z" fill="url(#paint11_linear_3_7)"/>
<path d="M84.3469 395.709C84.3469 393.324 82.5979 391.416 80.4249 391.416C78.2518 391.416 76.5027 393.324 76.5027 395.709C76.5027 398.094 78.2518 400.002 80.4249 400.002C82.5979 400.002 84.3469 398.094 84.3469 395.709Z" fill="#FBC8C3"/>
<path d="M90.4421 515.015C90.4421 512.63 88.6931 510.722 86.52 510.722C84.3469 510.722 82.5979 512.63 82.5979 515.015C82.5979 517.4 84.3469 519.308 86.52 519.308C88.6931 519.308 90.4421 517.4 90.4421 515.015Z" fill="#F59AA6"/>
<path d="M130.088 203.314C130.088 200.929 128.339 199.02 126.166 199.02C123.992 199.02 122.243 200.929 122.243 203.314C122.243 205.699 123.992 207.607 126.166 207.607C128.339 207.607 130.088 205.699 130.088 203.314Z" fill="#FBC8C3"/>
<path d="M54.9314 321.613C51.331 321.613 48.4123 324.817 48.4123 328.768C48.4123 332.72 51.331 335.923 54.9314 335.923C58.5319 335.923 61.4507 332.72 61.4507 328.768C61.4507 324.816 58.5319 321.613 54.9314 321.613Z" fill="url(#paint12_linear_3_7)"/>
<path d="M142.702 8.10879C139.101 8.10879 136.183 11.3123 136.183 15.264C136.183 19.2157 139.101 22.4193 142.702 22.4193C146.302 22.4193 149.221 19.2157 149.221 15.264C149.221 11.3123 146.302 8.10878 142.702 8.10879Z" fill="#F48074"/>
<path d="M57.5816 99.1655C53.9811 99.1655 51.0624 102.369 51.0624 106.321C51.0624 110.272 53.9811 113.476 57.5816 113.476C61.182 113.476 64.1008 110.272 64.1008 106.321C64.1008 102.369 61.182 99.1655 57.5816 99.1655Z" fill="url(#paint13_linear_3_7)"/>
<path d="M45.1788 576.285C41.5784 576.285 38.6597 579.488 38.6597 583.44C38.6597 587.392 41.5784 590.595 45.1788 590.595C48.7793 590.595 51.698 587.392 51.698 583.44C51.698 579.488 48.7793 576.285 45.1788 576.285Z" fill="url(#paint14_linear_3_7)"/>
<path d="M119.964 29.6279C116.363 29.6279 113.445 32.8314 113.445 36.7831C113.445 40.7348 116.363 43.9383 119.964 43.9383C123.564 43.9383 126.483 40.7348 126.483 36.7831C126.483 32.8314 123.564 29.6279 119.964 29.6279Z" fill="#FBC8C3"/>
<path d="M64.1534 510.669C60.553 510.669 57.6343 513.873 57.6343 517.824C57.6343 521.776 60.553 524.98 64.1534 524.98C67.7539 524.98 70.6726 521.776 70.6726 517.824C70.6726 513.873 67.7539 510.669 64.1534 510.669Z" fill="#F48074"/>
<path d="M22.0172 172.414C18.4168 172.414 15.4981 175.617 15.4981 179.569C15.4981 183.52 18.4168 186.724 22.0172 186.724C25.6177 186.724 28.5364 183.52 28.5364 179.569C28.5364 175.617 25.6177 172.414 22.0172 172.414Z" fill="#FBC8C3"/>
<path d="M97.0147 36.8359C96.3257 35.8818 95.0537 35.7228 94.1527 36.5178C93.3047 37.3128 93.1456 38.6909 93.8877 39.6449C94.5767 40.599 95.8487 40.758 96.7497 39.9629C97.5977 39.1679 97.7567 37.7899 97.0147 36.8359Z" fill="url(#paint15_linear_3_7)"/>
<path d="M192.311 463.604C193.106 462.756 193.106 461.324 192.311 460.476C191.516 459.628 190.244 459.628 189.449 460.476C188.654 461.325 188.654 462.756 189.449 463.604C190.244 464.452 191.516 464.452 192.311 463.604Z" fill="url(#paint16_linear_3_7)"/>
<path d="M32.2995 356.647C33.0945 355.799 33.0945 354.368 32.2995 353.52C31.5045 352.672 30.2324 352.672 29.4374 353.52C28.6423 354.368 28.6423 355.799 29.4374 356.647C30.2324 357.495 31.5045 357.495 32.2995 356.647Z" fill="#FBC8C3"/>
<path d="M66.2209 479.928C67.0159 479.08 67.0159 477.649 66.2209 476.801C65.4258 475.953 64.1538 475.953 63.3588 476.801C62.5638 477.649 62.5638 479.08 63.3588 479.928C64.1538 480.777 65.4258 480.777 66.2209 479.928Z" fill="#F59AA6"/>
<path d="M146.942 606.443C147.737 605.595 147.737 604.164 146.942 603.316C146.147 602.468 144.875 602.468 144.08 603.316C143.285 604.164 143.285 605.595 144.08 606.443C144.875 607.291 146.147 607.291 146.942 606.443Z" fill="url(#paint17_linear_3_7)"/>
<path d="M133.903 398.2C134.698 397.352 134.698 395.921 133.903 395.073C133.108 394.225 131.836 394.225 131.041 395.073C130.246 395.921 130.246 397.352 131.041 398.2C131.836 399.048 133.108 399.048 133.903 398.2Z" fill="#F59AA6"/>
<path d="M133.903 520.368C134.698 519.52 134.698 518.089 133.903 517.241C133.108 516.393 131.836 516.393 131.041 517.241C130.246 518.089 130.246 519.52 131.041 520.368C131.836 521.216 133.108 521.216 133.903 520.368Z" fill="#F59AA6"/>
<path d="M159.08 324.263C159.875 323.415 159.875 321.984 159.08 321.136C158.285 320.288 157.013 320.288 156.218 321.136C155.423 321.984 155.423 323.415 156.218 324.263C157.013 325.111 158.285 325.111 159.08 324.263Z" fill="#F59AA6"/>
<path d="M147.419 735.979C148.214 735.131 148.214 733.699 147.419 732.851C146.624 732.003 145.352 732.003 144.557 732.851C143.762 733.699 143.762 735.131 144.557 735.979C145.352 736.827 146.624 736.827 147.419 735.979Z" fill="#F48074"/>
<path d="M39.4548 227.853C40.2498 227.005 40.2498 225.574 39.4548 224.726C38.6597 223.878 37.3877 223.878 36.5927 224.726C35.7977 225.574 35.7977 227.005 36.5927 227.853C37.3877 228.701 38.6597 228.701 39.4548 227.853Z" fill="#FBC8C3"/>
<path d="M32.2995 428.199C33.0945 427.351 33.0945 425.92 32.2995 425.072C31.5045 424.224 30.2324 424.224 29.4374 425.072C28.6423 425.92 28.6423 427.351 29.4374 428.199C30.2324 429.047 31.5045 429.047 32.2995 428.199Z" fill="url(#paint18_linear_3_7)"/>
<path d="M157.065 360.94C157.86 360.092 157.86 358.661 157.065 357.813C156.27 356.965 154.998 356.965 154.203 357.813C153.408 358.661 153.408 360.092 154.203 360.94C154.998 361.788 156.27 361.788 157.065 360.94Z" fill="url(#paint19_linear_3_7)"/>
<path d="M20.4272 727.657C20.4272 725.749 18.9962 724.159 17.2471 724.159C15.4981 724.159 14.0671 725.696 14.0671 727.657C14.0671 729.618 15.4981 731.155 17.2471 731.155C18.9962 731.155 20.4272 729.618 20.4272 727.657Z" fill="url(#paint20_linear_3_7)"/>
<path d="M91.2373 335.924C91.2373 333.061 89.1172 330.729 86.5202 330.729C83.9231 330.729 81.803 333.061 81.803 335.924C81.803 338.786 83.9231 341.118 86.5202 341.118C89.1172 341.118 91.2373 338.786 91.2373 335.924Z" fill="#F48074"/>
<path d="M35.1616 755.112C35.1616 751.932 32.7766 749.335 29.8615 749.335C26.9464 749.335 24.5613 751.932 24.5613 755.112C24.5613 758.292 26.9464 760.889 29.8615 760.889C32.7766 760.889 35.1616 758.292 35.1616 755.112Z" fill="url(#paint21_linear_3_7)"/>
<path d="M14.9154 104.625C11.5198 104.625 8.76709 107.615 8.76709 111.303C8.76709 114.991 11.5198 117.981 14.9154 117.981C18.3109 117.981 21.0635 114.991 21.0635 111.303C21.0635 107.615 18.3109 104.625 14.9154 104.625Z" fill="#F48074"/>
<path d="M64.9487 180.258C60.6164 180.258 57.1045 184.102 57.1045 188.844C57.1045 193.586 60.6164 197.43 64.9487 197.43C69.2809 197.43 72.793 193.586 72.793 188.844C72.793 184.102 69.2809 180.258 64.9487 180.258Z" fill="url(#paint22_linear_3_7)"/>
<path d="M110.636 827.406C111.59 826.346 111.59 824.65 110.636 823.643C109.682 822.583 108.144 822.583 107.19 823.643C106.236 824.703 106.236 826.399 107.19 827.406C108.144 828.413 109.682 828.466 110.636 827.406Z" fill="#F48074"/>
<path d="M92.9861 578.193C93.9402 577.133 93.9402 575.437 92.9861 574.43C92.0321 573.37 90.4951 573.37 89.5411 574.43C88.587 575.49 88.587 577.186 89.5411 578.193C90.4951 579.253 92.0321 579.253 92.9861 578.193Z" fill="#F59AA6"/>
<path d="M52.9178 723.417C53.8718 722.357 53.8718 720.661 52.9178 719.654C51.9638 718.594 50.4267 718.594 49.4726 719.654C48.5186 720.714 48.5186 722.41 49.4726 723.417C50.4267 724.477 51.9638 724.477 52.9178 723.417Z" fill="#F59AA6"/>
<path d="M139.31 -3.16094e-05C134.158 -3.1159e-05 129.981 4.55604 129.981 10.1762C129.981 15.7965 134.158 20.3526 139.31 20.3526C144.462 20.3526 148.638 15.7965 148.638 10.1762C148.638 4.55604 144.462 -3.20598e-05 139.31 -3.16094e-05Z" fill="#FBC8C3"/>
<path d="M249.5 470.653C250.507 471.766 250.507 473.515 249.5 474.628C248.493 475.741 246.903 475.741 245.896 474.628C244.889 473.515 244.889 471.766 245.896 470.653C246.903 469.54 248.493 469.54 249.5 470.653Z" fill="url(#paint23_linear_3_7)"/>
<path d="M254.641 375.409C255.648 374.296 257.238 374.296 258.245 375.409C259.252 376.522 259.252 378.271 258.245 379.384C257.238 380.497 255.648 380.497 254.641 379.384C253.634 378.271 253.634 376.522 254.641 375.409Z" fill="url(#paint24_linear_3_7)"/>
<path d="M224.112 296.543C223.105 297.656 221.515 297.656 220.508 296.543C219.501 295.43 219.501 293.681 220.508 292.568C221.515 291.455 223.105 291.455 224.112 292.568C225.119 293.681 225.119 295.43 224.112 296.543Z" fill="#F59AA6"/>
<path d="M226.603 828.201C226.603 825.869 228.299 824.014 230.419 824.014C232.54 824.014 234.236 825.869 234.236 828.201C234.236 830.533 232.54 832.388 230.419 832.388C228.299 832.388 226.603 830.533 226.603 828.201Z" fill="#F48074"/>
<path d="M219.13 747.851C219.925 748.699 219.925 750.077 219.13 750.925C218.335 751.773 217.116 751.773 216.321 750.925C215.526 750.077 215.526 748.699 216.321 747.851C217.116 747.002 218.335 747.002 219.13 747.851Z" fill="#F59AA6"/>
<path d="M227.027 48.1249C227.822 47.2769 229.041 47.2769 229.836 48.1249C230.631 48.9729 230.631 50.351 229.836 51.199C229.041 52.047 227.822 52.047 227.027 51.199C226.232 50.351 226.232 48.9729 227.027 48.1249Z" fill="url(#paint25_linear_3_7)"/>
<path d="M6.39251 550.334C1.21138 550.341 -2.98372 554.546 -2.97739 559.727C-2.97106 564.908 1.23431 569.103 6.41543 569.097C11.5966 569.091 15.7915 564.885 15.7852 559.704C15.7788 554.523 11.5736 550.328 6.39251 550.334Z" fill="#FBC8C3"/>
<path d="M6.38149 336.294C1.20036 336.294 -2.99988 340.494 -2.99988 345.675C-2.99988 350.857 1.20036 355.057 6.38149 355.057C11.5626 355.057 15.7627 350.857 15.7627 345.675C15.7627 340.494 11.5626 336.294 6.38149 336.294Z" fill="#F59AA6"/>
<path d="M34.8433 305.076C30.8916 305.076 27.6881 308.588 27.6881 312.921C27.6881 317.253 30.8916 320.765 34.8433 320.765C38.795 320.765 41.9985 317.253 41.9985 312.921C41.9985 308.588 38.795 305.076 34.8433 305.076Z" fill="#F59AA6"/>
<path d="M21.0101 680.433C15.816 680.857 11.8939 685.044 12.2649 689.814C12.6359 694.584 17.194 698.083 22.3881 697.658C27.5823 697.234 31.5044 693.047 31.1334 688.277C30.7624 683.507 26.2043 680.009 21.0101 680.433Z" fill="url(#paint26_linear_3_7)"/>
<defs>
<linearGradient id="paint0_linear_3_7" x1="50.638" y1="800.428" x2="50.638" y2="812.46" gradientUnits="userSpaceOnUse">
<stop stop-color="#B5832C"/>
<stop offset="0.56" stop-color="#FFD431"/>
<stop offset="0.99" stop-color="#AD7E2B"/>
<stop offset="1" stop-color="#AB7B2B"/>
</linearGradient>
<linearGradient id="paint1_linear_3_7" x1="156.217" y1="636.23" x2="156.217" y2="642.431" gradientUnits="userSpaceOnUse">
<stop stop-color="#B09430"/>
<stop offset="0.05" stop-color="#BC9E30"/>
<stop offset="0.18" stop-color="#D9B530"/>
<stop offset="0.31" stop-color="#EEC630"/>
<stop offset="0.44" stop-color="#FAD030"/>
<stop offset="0.56" stop-color="#FFD431"/>
<stop offset="0.65" stop-color="#FAD030"/>
<stop offset="0.75" stop-color="#ECC530"/>
<stop offset="0.86" stop-color="#D6B330"/>
<stop offset="0.98" stop-color="#B79A30"/>
<stop offset="1" stop-color="#B09430"/>
</linearGradient>
<linearGradient id="paint2_linear_3_7" x1="48.6771" y1="647.678" x2="48.6771" y2="667.712" gradientUnits="userSpaceOnUse">
<stop stop-color="#B09430"/>
<stop offset="0.05" stop-color="#BC9E30"/>
<stop offset="0.18" stop-color="#D9B530"/>
<stop offset="0.31" stop-color="#EEC630"/>
<stop offset="0.44" stop-color="#FAD030"/>
<stop offset="0.56" stop-color="#FFD431"/>
<stop offset="0.65" stop-color="#FAD030"/>
<stop offset="0.75" stop-color="#ECC530"/>
<stop offset="0.86" stop-color="#D6B330"/>
<stop offset="0.98" stop-color="#B79A30"/>
<stop offset="1" stop-color="#B09430"/>
</linearGradient>
<linearGradient id="paint3_linear_3_7" x1="35.9572" y1="374.19" x2="35.9572" y2="394.225" gradientUnits="userSpaceOnUse">
<stop stop-color="#B09430"/>
<stop offset="0.05" stop-color="#BC9E30"/>
<stop offset="0.18" stop-color="#D9B530"/>
<stop offset="0.31" stop-color="#EEC630"/>
<stop offset="0.44" stop-color="#FAD030"/>
<stop offset="0.56" stop-color="#FFD431"/>
<stop offset="0.65" stop-color="#FAD030"/>
<stop offset="0.75" stop-color="#ECC530"/>
<stop offset="0.86" stop-color="#D6B330"/>
<stop offset="0.98" stop-color="#B79A30"/>
<stop offset="1" stop-color="#B09430"/>
</linearGradient>
<linearGradient id="paint4_linear_3_7" x1="135.493" y1="248.312" x2="135.493" y2="254.513" gradientUnits="userSpaceOnUse">
<stop stop-color="#B09430"/>
<stop offset="0.05" stop-color="#BC9E30"/>
<stop offset="0.18" stop-color="#D9B530"/>
<stop offset="0.31" stop-color="#EEC630"/>
<stop offset="0.44" stop-color="#FAD030"/>
<stop offset="0.56" stop-color="#FFD431"/>
<stop offset="0.65" stop-color="#FAD030"/>
<stop offset="0.75" stop-color="#ECC530"/>
<stop offset="0.86" stop-color="#D6B330"/>
<stop offset="0.98" stop-color="#B79A30"/>
<stop offset="1" stop-color="#B09430"/>
</linearGradient>
<linearGradient id="paint5_linear_3_7" x1="170.898" y1="158.421" x2="170.898" y2="164.675" gradientUnits="userSpaceOnUse">
<stop stop-color="#B09430"/>
<stop offset="0.05" stop-color="#BC9E30"/>
<stop offset="0.18" stop-color="#D9B530"/>
<stop offset="0.31" stop-color="#EEC630"/>
<stop offset="0.44" stop-color="#FAD030"/>
<stop offset="0.56" stop-color="#FFD431"/>
<stop offset="0.65" stop-color="#FAD030"/>
<stop offset="0.75" stop-color="#ECC530"/>
<stop offset="0.86" stop-color="#D6B330"/>
<stop offset="0.98" stop-color="#B79A30"/>
<stop offset="1" stop-color="#B09430"/>
</linearGradient>
<linearGradient id="paint6_linear_3_7" x1="137.031" y1="461.219" x2="137.031" y2="467.42" gradientUnits="userSpaceOnUse">
<stop stop-color="#B5832C"/>
<stop offset="0.56" stop-color="#FFD431"/>
<stop offset="0.99" stop-color="#AD7E2B"/>
<stop offset="1" stop-color="#AB7B2B"/>
</linearGradient>
<linearGradient id="paint7_linear_3_7" x1="15.074" y1="785.164" x2="15.074" y2="804.615" gradientUnits="userSpaceOnUse">
<stop offset="0.16" stop-color="#FFC518"/>
<stop offset="0.89" stop-color="#E79E24"/>
</linearGradient>
<linearGradient id="paint8_linear_3_7" x1="73.6411" y1="28.5676" x2="73.6411" y2="48.0192" gradientUnits="userSpaceOnUse">
<stop stop-color="#B09430"/>
<stop offset="0.05" stop-color="#BC9E30"/>
<stop offset="0.18" stop-color="#D9B530"/>
<stop offset="0.31" stop-color="#EEC630"/>
<stop offset="0.44" stop-color="#FAD030"/>
<stop offset="0.56" stop-color="#FFD431"/>
<stop offset="0.65" stop-color="#FAD030"/>
<stop offset="0.75" stop-color="#ECC530"/>
<stop offset="0.86" stop-color="#D6B330"/>
<stop offset="0.98" stop-color="#B79A30"/>
<stop offset="1" stop-color="#B09430"/>
</linearGradient>
<linearGradient id="paint9_linear_3_7" x1="24.2968" y1="478.709" x2="24.2968" y2="487.296" gradientUnits="userSpaceOnUse">
<stop stop-color="#B09430"/>
<stop offset="0.05" stop-color="#BC9E30"/>
<stop offset="0.18" stop-color="#D9B530"/>
<stop offset="0.31" stop-color="#EEC630"/>
<stop offset="0.44" stop-color="#FAD030"/>
<stop offset="0.56" stop-color="#FFD431"/>
<stop offset="0.65" stop-color="#FAD030"/>
<stop offset="0.75" stop-color="#ECC530"/>
<stop offset="0.86" stop-color="#D6B330"/>
<stop offset="0.98" stop-color="#B79A30"/>
<stop offset="1" stop-color="#B09430"/>
</linearGradient>
<linearGradient id="paint10_linear_3_7" x1="25.8867" y1="411.079" x2="25.8867" y2="419.719" gradientUnits="userSpaceOnUse">
<stop offset="0.16" stop-color="#FFC518"/>
<stop offset="0.89" stop-color="#E79E24"/>
</linearGradient>
<linearGradient id="paint11_linear_3_7" x1="166.075" y1="561.869" x2="166.075" y2="566.268" gradientUnits="userSpaceOnUse">
<stop stop-color="#B09430"/>
<stop offset="0.05" stop-color="#BC9E30"/>
<stop offset="0.18" stop-color="#D9B530"/>
<stop offset="0.31" stop-color="#EEC630"/>
<stop offset="0.44" stop-color="#FAD030"/>
<stop offset="0.56" stop-color="#FFD431"/>
<stop offset="0.65" stop-color="#FAD030"/>
<stop offset="0.75" stop-color="#ECC530"/>
<stop offset="0.86" stop-color="#D6B330"/>
<stop offset="0.98" stop-color="#B79A30"/>
<stop offset="1" stop-color="#B09430"/>
</linearGradient>
<linearGradient id="paint12_linear_3_7" x1="54.8785" y1="321.719" x2="54.8785" y2="335.976" gradientUnits="userSpaceOnUse">
<stop offset="0.16" stop-color="#FFC518"/>
<stop offset="0.89" stop-color="#E79E24"/>
</linearGradient>
<linearGradient id="paint13_linear_3_7" x1="57.5286" y1="99.2185" x2="57.5286" y2="113.476" gradientUnits="userSpaceOnUse">
<stop stop-color="#B09430"/>
<stop offset="0.05" stop-color="#BC9E30"/>
<stop offset="0.18" stop-color="#D9B530"/>
<stop offset="0.31" stop-color="#EEC630"/>
<stop offset="0.44" stop-color="#FAD030"/>
<stop offset="0.56" stop-color="#FFD431"/>
<stop offset="0.65" stop-color="#FAD030"/>
<stop offset="0.75" stop-color="#ECC530"/>
<stop offset="0.86" stop-color="#D6B330"/>
<stop offset="0.98" stop-color="#B79A30"/>
<stop offset="1" stop-color="#B09430"/>
</linearGradient>
<linearGradient id="paint14_linear_3_7" x1="45.1258" y1="576.338" x2="45.1258" y2="590.648" gradientUnits="userSpaceOnUse">
<stop stop-color="#B09430"/>
<stop offset="0.05" stop-color="#BC9E30"/>
<stop offset="0.18" stop-color="#D9B530"/>
<stop offset="0.31" stop-color="#EEC630"/>
<stop offset="0.44" stop-color="#FAD030"/>
<stop offset="0.56" stop-color="#FFD431"/>
<stop offset="0.65" stop-color="#FAD030"/>
<stop offset="0.75" stop-color="#ECC530"/>
<stop offset="0.86" stop-color="#D6B330"/>
<stop offset="0.98" stop-color="#B79A30"/>
<stop offset="1" stop-color="#B09430"/>
</linearGradient>
<linearGradient id="paint15_linear_3_7" x1="95.4247" y1="36.0938" x2="95.4247" y2="40.493" gradientUnits="userSpaceOnUse">
<stop stop-color="#B09430"/>
<stop offset="0.05" stop-color="#BC9E30"/>
<stop offset="0.18" stop-color="#D9B530"/>
<stop offset="0.31" stop-color="#EEC630"/>
<stop offset="0.44" stop-color="#FAD030"/>
<stop offset="0.56" stop-color="#FFD431"/>
<stop offset="0.65" stop-color="#FAD030"/>
<stop offset="0.75" stop-color="#ECC530"/>
<stop offset="0.86" stop-color="#D6B330"/>
<stop offset="0.98" stop-color="#B79A30"/>
<stop offset="1" stop-color="#B09430"/>
</linearGradient>
<linearGradient id="paint16_linear_3_7" x1="190.827" y1="459.893" x2="190.827" y2="464.293" gradientUnits="userSpaceOnUse">
<stop stop-color="#B09430"/>
<stop offset="0.05" stop-color="#BC9E30"/>
<stop offset="0.18" stop-color="#D9B530"/>
<stop offset="0.31" stop-color="#EEC630"/>
<stop offset="0.44" stop-color="#FAD030"/>
<stop offset="0.56" stop-color="#FFD431"/>
<stop offset="0.65" stop-color="#FAD030"/>
<stop offset="0.75" stop-color="#ECC530"/>
<stop offset="0.86" stop-color="#D6B330"/>
<stop offset="0.98" stop-color="#B79A30"/>
<stop offset="1" stop-color="#B09430"/>
</linearGradient>
<linearGradient id="paint17_linear_3_7" x1="145.458" y1="602.733" x2="145.458" y2="607.132" gradientUnits="userSpaceOnUse">
<stop stop-color="#B09430"/>
<stop offset="0.05" stop-color="#BC9E30"/>
<stop offset="0.18" stop-color="#D9B530"/>
<stop offset="0.31" stop-color="#EEC630"/>
<stop offset="0.44" stop-color="#FAD030"/>
<stop offset="0.56" stop-color="#FFD431"/>
<stop offset="0.65" stop-color="#FAD030"/>
<stop offset="0.75" stop-color="#ECC530"/>
<stop offset="0.86" stop-color="#D6B330"/>
<stop offset="0.98" stop-color="#B79A30"/>
<stop offset="1" stop-color="#B09430"/>
</linearGradient>
<linearGradient id="paint18_linear_3_7" x1="30.8154" y1="424.489" x2="30.8154" y2="428.941" gradientUnits="userSpaceOnUse">
<stop offset="0.16" stop-color="#FFC518"/>
<stop offset="0.89" stop-color="#E79E24"/>
</linearGradient>
<linearGradient id="paint19_linear_3_7" x1="155.581" y1="357.23" x2="155.581" y2="361.629" gradientUnits="userSpaceOnUse">
<stop offset="0.16" stop-color="#FFC518"/>
<stop offset="0.89" stop-color="#E79E24"/>
</linearGradient>
<linearGradient id="paint20_linear_3_7" x1="17.1942" y1="724.212" x2="17.1942" y2="731.208" gradientUnits="userSpaceOnUse">
<stop offset="0.16" stop-color="#FFC518"/>
<stop offset="0.89" stop-color="#E79E24"/>
</linearGradient>
<linearGradient id="paint21_linear_3_7" x1="29.8085" y1="749.388" x2="29.8085" y2="760.942" gradientUnits="userSpaceOnUse">
<stop stop-color="#B09430"/>
<stop offset="0.05" stop-color="#BC9E30"/>
<stop offset="0.18" stop-color="#D9B530"/>
<stop offset="0.31" stop-color="#EEC630"/>
<stop offset="0.44" stop-color="#FAD030"/>
<stop offset="0.56" stop-color="#FFD431"/>
<stop offset="0.65" stop-color="#FAD030"/>
<stop offset="0.75" stop-color="#ECC530"/>
<stop offset="0.86" stop-color="#D6B330"/>
<stop offset="0.98" stop-color="#B79A30"/>
<stop offset="1" stop-color="#B09430"/>
</linearGradient>
<linearGradient id="paint22_linear_3_7" x1="64.8957" y1="180.258" x2="64.8957" y2="197.483" gradientUnits="userSpaceOnUse">
<stop offset="0.16" stop-color="#FFC518"/>
<stop offset="0.89" stop-color="#E79E24"/>
</linearGradient>
<linearGradient id="paint23_linear_3_7" x1="247.592" y1="469.911" x2="247.592" y2="475.476" gradientUnits="userSpaceOnUse">
<stop stop-color="#B09430"/>
<stop offset="0.05" stop-color="#BC9E30"/>
<stop offset="0.18" stop-color="#D9B530"/>
<stop offset="0.31" stop-color="#EEC630"/>
<stop offset="0.44" stop-color="#FAD030"/>
<stop offset="0.56" stop-color="#FFD431"/>
<stop offset="0.65" stop-color="#FAD030"/>
<stop offset="0.75" stop-color="#ECC530"/>
<stop offset="0.86" stop-color="#D6B330"/>
<stop offset="0.98" stop-color="#B79A30"/>
<stop offset="1" stop-color="#B09430"/>
</linearGradient>
<linearGradient id="paint24_linear_3_7" x1="256.443" y1="374.667" x2="256.443" y2="380.285" gradientUnits="userSpaceOnUse">
<stop offset="0.16" stop-color="#FFC518"/>
<stop offset="0.89" stop-color="#E79E24"/>
</linearGradient>
<linearGradient id="paint25_linear_3_7" x1="228.405" y1="47.5419" x2="228.405" y2="51.888" gradientUnits="userSpaceOnUse">
<stop stop-color="#B09430"/>
<stop offset="0.05" stop-color="#BC9E30"/>
<stop offset="0.18" stop-color="#D9B530"/>
<stop offset="0.31" stop-color="#EEC630"/>
<stop offset="0.44" stop-color="#FAD030"/>
<stop offset="0.56" stop-color="#FFD431"/>
<stop offset="0.65" stop-color="#FAD030"/>
<stop offset="0.75" stop-color="#ECC530"/>
<stop offset="0.86" stop-color="#D6B330"/>
<stop offset="0.98" stop-color="#B79A30"/>
<stop offset="1" stop-color="#B09430"/>
</linearGradient>
<linearGradient id="paint26_linear_3_7" x1="11.3215" y1="690.22" x2="30.1813" y2="688.693" gradientUnits="userSpaceOnUse">
<stop stop-color="#B5832C"/>
<stop offset="0.56" stop-color="#FFD431"/>
<stop offset="0.99" stop-color="#AD7E2B"/>
<stop offset="1" stop-color="#AB7B2B"/>
</linearGradient>
</defs>
</svg>
