<svg width="254" height="846" viewBox="0 0 254 846" fill="none" xmlns="http://www.w3.org/2000/svg"><path d="M186.207 571.197c3.044 0 5.512-2.705 5.512-6.042 0-3.337-2.468-6.042-5.512-6.042-3.044 0-5.512 2.705-5.512 6.042 0 3.337 2.468 6.042 5.512 6.042z" fill="#FBC8C3"/><path d="M82.59 510.51c3.044 0 5.512-2.705 5.512-6.042 0-3.337-2.468-6.042-5.512-6.042-3.044 0-5.512 2.705-5.512 6.042 0 3.337 2.468 6.042 5.512 6.042z" fill="#F59AA6"/><path d="M208.309 44.945c3.044 0 5.512-2.705 5.512-6.042 0-3.337-2.468-6.042-5.512-6.042-3.044 0-5.512 2.705-5.512 6.042 0 3.337 2.468 6.042 5.512 6.042z" fill="url(#paint0_linear_4_1843)"/><path d="M163.523 613.121c3.045 0 5.513-2.705 5.513-6.042 0-3.337-2.468-6.042-5.513-6.042-3.044 0-5.512 2.705-5.512 6.042 0 3.337 2.468 6.042 5.512 6.042z" fill="#F48074"/><path d="M100.769 203.79c-1.113 1.22-1.113 3.181 0 4.4 1.113 1.219 2.915 1.219 4.028 0 1.113-1.219 1.113-3.18 0-4.4-1.113-1.219-2.915-1.219-4.028 0z" fill="url(#paint1_linear_4_1843)"/><path d="M238.573 12.084c3.044 0 5.512-2.705 5.512-6.042 0-3.337-2.468-6.042-5.512-6.042-3.045 0-5.512 2.705-5.512 6.042 0 3.337 2.467 6.042 5.512 6.042z" fill="#F59AA6"/><path d="M210.27 197.642c5.064 0 9.169-4.484 9.169-10.017 0-5.532-4.105-10.017-9.169-10.017s-9.169 4.485-9.169 10.017c0 5.533 4.105 10.017 9.169 10.017z" fill="url(#paint2_linear_4_1843)"/><path d="M178.575 232.623c5.064 0 9.169-4.485 9.169-10.017 0-5.532-4.105-10.017-9.169-10.017s-9.169 4.485-9.169 10.017c0 5.532 4.105 10.017 9.169 10.017z" fill="#FBC8C3"/><path d="M222.99 471.13c5.064 0 9.169-4.485 9.169-10.017 0-5.533-4.105-10.018-9.169-10.018s-9.169 4.485-9.169 10.018c0 5.532 4.105 10.017 9.169 10.017z" fill="url(#paint3_linear_4_1843)"/><path d="M231.63 579.465c5.064 0 9.169-4.485 9.169-10.017 0-5.532-4.105-10.017-9.169-10.017s-9.17 4.485-9.17 10.017c0 5.532 4.106 10.017 9.17 10.017z" fill="#F48074"/><path d="M121.44 591.709c-1.113 1.219-1.113 3.18 0 4.399 1.113 1.219 2.915 1.219 4.028 0 1.113-1.219 1.113-3.18 0-4.399-1.113-1.219-2.915-1.219-4.028 0z" fill="url(#paint4_linear_4_1843)"/><path d="M204.864 398.2c-1.113 1.219-1.113 3.18 0 4.399 1.113 1.219 2.915 1.219 4.028 0 1.113-1.219 1.113-3.18 0-4.399-1.113-1.219-2.915-1.219-4.028 0zM138.93 487.985c-1.114 1.219-1.114 3.18 0 4.399 1.113 1.219 2.915 1.219 4.028 0 1.113-1.219 1.113-3.18 0-4.399-1.113-1.219-2.915-1.219-4.028 0z" fill="#FBC8C3"/><path d="M86.088 681.599c-1.113 1.219-1.113 3.18 0 4.399 1.113 1.219 2.915 1.219 4.028 0 1.113-1.219 1.113-3.18 0-4.399-1.113-1.219-2.915-1.219-4.028 0z" fill="url(#paint5_linear_4_1843)"/><path d="M77.183 332.372c-1.113 1.219-1.113 3.18 0 4.399 1.113 1.219 2.915 1.219 4.028 0 1.113-1.219 1.113-3.18 0-4.399-1.113-1.219-2.915-1.219-4.028 0zM52.379 169.022c-1.113 1.219-1.113 3.18 0 4.399 1.113 1.219 2.915 1.219 4.028 0 1.113-1.219 1.113-3.18 0-4.399-1.113-1.219-2.915-1.219-4.028 0z" fill="#F59AA6"/><path d="M119.955 378.854c-1.113 1.219-1.113 3.18 0 4.399 1.113 1.219 2.916 1.219 4.029 0s1.113-3.18 0-4.399c-1.113-1.219-2.916-1.219-4.029 0z" fill="url(#paint6_linear_4_1843)"/><path d="M194.9 578.723c-1.113 1.219-1.113 3.18 0 4.399 1.113 1.219 2.915 1.219 4.028 0 1.113-1.219 1.113-3.18 0-4.399-1.113-1.219-2.915-1.219-4.028 0z" fill="#FBC8C3"/><path d="M229.775 284.3c-1.113 1.219-1.113 3.18 0 4.399 1.113 1.219 2.915 1.219 4.028 0 1.113-1.219 1.113-3.18 0-4.399-1.113-1.219-2.915-1.219-4.028 0z" fill="#F48074"/><path d="M71.406 430.955c-1.113 1.219-1.113 3.18 0 4.399 1.113 1.219 2.915 1.219 4.028 0 1.113-1.219 1.113-3.18 0-4.399-1.113-1.219-2.915-1.219-4.028 0z" fill="#F59AA6"/><path d="M70.293 782.09c4.918 0 8.905-4.343 8.905-9.699 0-5.357-3.987-9.7-8.904-9.7-4.918 0-8.905 4.343-8.905 9.7 0 5.356 3.987 9.699 8.904 9.699z" fill="#FBC8C3"/><path d="M243.873 60.157c4.918 0 8.904-4.343 8.904-9.7 0-5.356-3.986-9.699-8.904-9.699-4.918 0-8.904 4.343-8.904 9.7 0 5.356 3.986 9.699 8.904 9.699z" fill="url(#paint7_linear_4_1843)"/><path d="M185.306 816.753c4.918 0 8.904-4.343 8.904-9.699 0-5.357-3.986-9.7-8.904-9.7-4.918 0-8.904 4.343-8.904 9.7 0 5.356 3.986 9.699 8.904 9.699z" fill="url(#paint8_linear_4_1843)"/><path d="M148.577 401.168c0 2.385 1.749 4.293 3.922 4.293s3.922-1.908 3.922-4.293c0-2.385-1.749-4.293-3.922-4.293s-3.922 1.908-3.922 4.293z" fill="#FBC8C3"/><path d="M155.414 556.516c0 2.385 1.749 4.293 3.922 4.293s3.922-1.908 3.922-4.293c0-2.386-1.749-4.294-3.922-4.294s-3.922 1.908-3.922 4.294z" fill="#F59AA6"/><path d="M230.675 362.318c0 2.385 1.749 4.293 3.922 4.293s3.923-1.908 3.923-4.293c0-2.385-1.75-4.293-3.923-4.293s-3.922 1.908-3.922 4.293z" fill="url(#paint9_linear_4_1843)"/><path d="M225.217 232.359c0 2.385 1.749 4.293 3.922 4.293s3.922-1.908 3.922-4.293c0-2.386-1.749-4.294-3.922-4.294s-3.922 1.908-3.922 4.294z" fill="#F48074"/><path d="M229.139 429.948c0 2.385 1.749 4.293 3.922 4.293s3.922-1.908 3.922-4.293c0-2.385-1.749-4.293-3.922-4.293s-3.922 1.908-3.922 4.293z" fill="url(#paint10_linear_4_1843)"/><path d="M130.503 279.901c0 2.385 1.749 4.293 3.922 4.293s3.922-1.908 3.922-4.293c0-2.386-1.749-4.294-3.922-4.294s-3.922 1.908-3.922 4.294z" fill="#F48074"/><path d="M91.442 279.689c-.795.848-.795 2.279 0 3.127.795.848 2.067.848 2.862 0 .794-.848.794-2.279 0-3.127-.796-.848-2.067-.848-2.862 0z" fill="url(#paint11_linear_4_1843)"/><path d="M174.653 449.558c0 2.386 1.749 4.294 3.922 4.294s3.923-1.908 3.923-4.294c0-2.385-1.75-4.293-3.923-4.293s-3.922 1.908-3.922 4.293z" fill="#FBC8C3"/><path d="M168.558 330.252c0 2.385 1.749 4.293 3.922 4.293s3.922-1.908 3.922-4.293c0-2.385-1.749-4.293-3.922-4.293s-3.922 1.908-3.922 4.293z" fill="#F59AA6"/><path d="M128.913 641.954c0 2.385 1.749 4.293 3.922 4.293s3.922-1.908 3.922-4.293c0-2.385-1.749-4.293-3.922-4.293s-3.922 1.908-3.922 4.293z" fill="#FBC8C3"/><path d="M204.069 523.654c3.6 0 6.519-3.203 6.519-7.155 0-3.952-2.919-7.155-6.519-7.155-3.601 0-6.52 3.203-6.52 7.155 0 3.952 2.919 7.155 6.52 7.155z" fill="url(#paint12_linear_4_1843)"/><path d="M116.298 837.159c3.601 0 6.52-3.204 6.52-7.156 0-3.951-2.919-7.155-6.52-7.155-3.6 0-6.519 3.204-6.519 7.155 0 3.952 2.919 7.156 6.519 7.156z" fill="#F48074"/><path d="M201.419 746.102c3.6 0 6.519-3.204 6.519-7.155 0-3.952-2.919-7.155-6.519-7.155-3.601 0-6.52 3.203-6.52 7.155 0 3.951 2.919 7.155 6.52 7.155z" fill="url(#paint13_linear_4_1843)"/><path d="M213.821 268.983c3.601 0 6.52-3.204 6.52-7.156 0-3.951-2.919-7.155-6.52-7.155-3.6 0-6.519 3.204-6.519 7.155 0 3.952 2.919 7.156 6.519 7.156z" fill="url(#paint14_linear_4_1843)"/><path d="M139.036 815.639c3.601 0 6.519-3.203 6.519-7.155 0-3.951-2.918-7.155-6.519-7.155-3.6 0-6.519 3.204-6.519 7.155 0 3.952 2.919 7.155 6.519 7.155z" fill="#FBC8C3"/><path d="M194.847 334.598c3.6 0 6.519-3.203 6.519-7.155 0-3.952-2.919-7.155-6.519-7.155-3.601 0-6.519 3.203-6.519 7.155 0 3.952 2.918 7.155 6.519 7.155z" fill="#F48074"/><path d="M236.983 672.854c3.6 0 6.519-3.204 6.519-7.155 0-3.952-2.919-7.155-6.519-7.155s-6.519 3.203-6.519 7.155c0 3.951 2.919 7.155 6.519 7.155z" fill="#FBC8C3"/><path d="M161.986 808.432c.689.954 1.961 1.113 2.862.318.848-.795 1.007-2.174.265-3.128-.689-.954-1.961-1.113-2.862-.318-.848.795-1.007 2.173-.265 3.128z" fill="url(#paint15_linear_4_1843)"/><path d="M66.689 381.664c-.795.848-.795 2.279 0 3.127.795.848 2.067.848 2.862 0 .795-.848.795-2.279 0-3.127-.795-.848-2.067-.848-2.862 0z" fill="url(#paint16_linear_4_1843)"/><path d="M226.701 488.62c-.795.848-.795 2.279 0 3.128.795.848 2.067.848 2.862 0 .795-.849.795-2.28 0-3.128-.795-.848-2.067-.848-2.862 0z" fill="#FBC8C3"/><path d="M192.779 365.339c-.795.848-.795 2.279 0 3.127.795.848 2.067.848 2.862 0 .795-.848.795-2.279 0-3.127-.795-.848-2.067-.848-2.862 0z" fill="#F59AA6"/><path d="M112.058 238.825c-.795.848-.795 2.279 0 3.127.795.848 2.067.848 2.862 0 .795-.848.795-2.279 0-3.127-.795-.848-2.067-.848-2.862 0z" fill="url(#paint17_linear_4_1843)"/><path d="M125.097 447.067c-.795.848-.795 2.279 0 3.127.795.849 2.067.849 2.862 0 .795-.848.795-2.279 0-3.127-.795-.848-2.067-.848-2.862 0zM125.097 324.899c-.795.848-.795 2.279 0 3.127.795.848 2.067.848 2.862 0 .795-.848.795-2.279 0-3.127-.795-.848-2.067-.848-2.862 0zM99.92 521.005c-.794.848-.794 2.279 0 3.127.796.848 2.068.848 2.863 0 .795-.848.795-2.279 0-3.127-.795-.848-2.067-.848-2.862 0z" fill="#F59AA6"/><path d="M111.581 109.289c-.795.848-.795 2.279 0 3.127.795.848 2.067.848 2.862 0 .795-.848.795-2.279 0-3.127-.795-.848-2.067-.848-2.862 0z" fill="#F48074"/><path d="M219.545 617.414c-.795.848-.795 2.279 0 3.127.796.848 2.068.848 2.863 0 .795-.848.795-2.279 0-3.127-.795-.848-2.067-.848-2.863 0z" fill="#FBC8C3"/><path d="M226.701 417.069c-.795.848-.795 2.279 0 3.127.795.848 2.067.848 2.862 0 .795-.848.795-2.279 0-3.127-.795-.848-2.067-.848-2.862 0z" fill="url(#paint18_linear_4_1843)"/><path d="M101.935 484.327c-.795.848-.795 2.279 0 3.127.795.848 2.067.848 2.862 0 .795-.848.795-2.279 0-3.127-.795-.848-2.067-.848-2.862 0z" fill="url(#paint19_linear_4_1843)"/><path d="M238.573 117.61c0 1.908 1.431 3.498 3.18 3.498s3.18-1.537 3.18-3.498c0-1.961-1.431-3.498-3.18-3.498s-3.18 1.537-3.18 3.498z" fill="url(#paint20_linear_4_1843)"/><path d="M167.763 509.344c0 2.862 2.12 5.194 4.717 5.194 2.597 0 4.717-2.332 4.717-5.194s-2.12-5.194-4.717-5.194c-2.597 0-4.717 2.332-4.717 5.194z" fill="#F48074"/><path d="M223.839 90.155c0 3.18 2.385 5.778 5.3 5.778s5.3-2.598 5.3-5.778c0-3.18-2.385-5.777-5.3-5.777s-5.3 2.597-5.3 5.777z" fill="url(#paint21_linear_4_1843)"/><path d="M244.085 740.643c3.395 0 6.148-2.99 6.148-6.678 0-3.689-2.753-6.679-6.148-6.679-3.396 0-6.148 2.99-6.148 6.679 0 3.688 2.752 6.678 6.148 6.678z" fill="#F48074"/><path d="M194.051 665.009c4.333 0 7.845-3.844 7.845-8.586 0-4.742-3.512-8.586-7.845-8.586-4.332 0-7.844 3.844-7.844 8.586 0 4.742 3.512 8.586 7.844 8.586z" fill="url(#paint22_linear_4_1843)"/><path d="M148.365 17.861c-.954 1.06-.954 2.756 0 3.764.954 1.06 2.491 1.06 3.445 0 .954-1.06.954-2.756 0-3.764-.954-1.007-2.491-1.06-3.445 0z" fill="#F48074"/><path d="M166.014 267.074c-.954 1.06-.954 2.756 0 3.763.954 1.06 2.491 1.06 3.445 0 .954-1.06.954-2.756 0-3.763-.954-1.06-2.491-1.06-3.445 0zM206.083 121.85c-.954 1.06-.954 2.756 0 3.763.954 1.06 2.491 1.06 3.445 0 .954-1.06.954-2.756 0-3.763-.954-1.06-2.491-1.06-3.445 0z" fill="#F59AA6"/><path d="M119.691 845.268c5.151 0 9.328-4.557 9.328-10.177 0-5.62-4.177-10.176-9.328-10.176-5.152 0-9.329 4.556-9.329 10.176s4.177 10.177 9.329 10.177z" fill="#FBC8C3"/><path d="M9.5 374.614c-1.007-1.113-1.007-2.862 0-3.975s2.597-1.113 3.604 0c1.008 1.113 1.008 2.862 0 3.975-1.007 1.113-2.597 1.113-3.604 0z" fill="url(#paint23_linear_4_1843)"/><path d="M4.36 469.858c-1.008 1.113-2.598 1.113-3.605 0-1.007-1.113-1.007-2.862 0-3.975s2.597-1.113 3.604 0c1.007 1.113 1.007 2.862 0 3.975z" fill="url(#paint24_linear_4_1843)"/><path d="M34.888 548.724c1.007-1.113 2.597-1.113 3.604 0 1.007 1.113 1.007 2.862 0 3.975s-2.597 1.113-3.604 0c-1.007-1.113-1.007-2.862 0-3.975z" fill="#F59AA6"/><path d="M32.397 17.066c0 2.332-1.696 4.187-3.816 4.187s-3.816-1.855-3.816-4.187c0-2.332 1.696-4.187 3.816-4.187s3.816 1.855 3.816 4.187z" fill="#F48074"/><path d="M39.87 97.417c-.795-.848-.795-2.226 0-3.074.795-.848 2.014-.848 2.81 0 .794.848.794 2.226 0 3.074-.796.848-2.015.848-2.81 0z" fill="#F59AA6"/><path d="M31.973 797.142c-.795.849-2.014.849-2.809 0-.795-.848-.795-2.226 0-3.074.795-.848 2.014-.848 2.81 0 .794.848.794 2.226 0 3.074z" fill="url(#paint25_linear_4_1843)"/><path d="M252.608 294.933a9.382 9.382 0 10-.025-18.761 9.382 9.382 0 00.025 18.761z" fill="#FBC8C3"/><path d="M252.619 508.973a9.381 9.381 0 100-18.762 9.381 9.381 0 100 18.762zM224.157 540.191c3.951 0 7.155-3.512 7.155-7.844 0-4.332-3.204-7.844-7.155-7.844-3.952 0-7.156 3.512-7.156 7.844 0 4.332 3.204 7.844 7.156 7.844z" fill="#F59AA6"/><path d="M237.99 164.834c5.194-.424 9.116-4.611 8.745-9.381-.371-4.77-4.929-8.268-10.123-7.844-5.194.424-9.116 4.611-8.745 9.381.371 4.77 4.929 8.268 10.123 7.844z" fill="url(#paint26_linear_4_1843)"/><defs><linearGradient id="paint13_linear_4_1843" x1="201.472" y1="746.049" x2="201.472" y2="731.792" gradientUnits="userSpaceOnUse"><stop stop-color="#B09430"/><stop offset=".05" stop-color="#BC9E30"/><stop offset=".18" stop-color="#D9B530"/><stop offset=".31" stop-color="#EEC630"/><stop offset=".44" stop-color="#FAD030"/><stop offset=".56" stop-color="#FFD431"/><stop offset=".65" stop-color="#FAD030"/><stop offset=".75" stop-color="#ECC530"/><stop offset=".86" stop-color="#D6B330"/><stop offset=".98" stop-color="#B79A30"/><stop offset="1" stop-color="#B09430"/></linearGradient><linearGradient id="paint0_linear_4_1843" x1="208.362" y1="44.839" x2="208.362" y2="32.808" gradientUnits="userSpaceOnUse"><stop stop-color="#B5832C"/><stop offset=".56" stop-color="#FFD431"/><stop offset=".99" stop-color="#AD7E2B"/><stop offset="1" stop-color="#AB7B2B"/></linearGradient><linearGradient id="paint2_linear_4_1843" x1="210.323" y1="197.589" x2="210.323" y2="177.555" gradientUnits="userSpaceOnUse"><stop stop-color="#B09430"/><stop offset=".05" stop-color="#BC9E30"/><stop offset=".18" stop-color="#D9B530"/><stop offset=".31" stop-color="#EEC630"/><stop offset=".44" stop-color="#FAD030"/><stop offset=".56" stop-color="#FFD431"/><stop offset=".65" stop-color="#FAD030"/><stop offset=".75" stop-color="#ECC530"/><stop offset=".86" stop-color="#D6B330"/><stop offset=".98" stop-color="#B79A30"/><stop offset="1" stop-color="#B09430"/></linearGradient><linearGradient id="paint3_linear_4_1843" x1="223.043" y1="471.077" x2="223.043" y2="451.042" gradientUnits="userSpaceOnUse"><stop stop-color="#B09430"/><stop offset=".05" stop-color="#BC9E30"/><stop offset=".18" stop-color="#D9B530"/><stop offset=".31" stop-color="#EEC630"/><stop offset=".44" stop-color="#FAD030"/><stop offset=".56" stop-color="#FFD431"/><stop offset=".65" stop-color="#FAD030"/><stop offset=".75" stop-color="#ECC530"/><stop offset=".86" stop-color="#D6B330"/><stop offset=".98" stop-color="#B79A30"/><stop offset="1" stop-color="#B09430"/></linearGradient><linearGradient id="paint4_linear_4_1843" x1="123.507" y1="596.956" x2="123.507" y2="590.755" gradientUnits="userSpaceOnUse"><stop stop-color="#B09430"/><stop offset=".05" stop-color="#BC9E30"/><stop offset=".18" stop-color="#D9B530"/><stop offset=".31" stop-color="#EEC630"/><stop offset=".44" stop-color="#FAD030"/><stop offset=".56" stop-color="#FFD431"/><stop offset=".65" stop-color="#FAD030"/><stop offset=".75" stop-color="#ECC530"/><stop offset=".86" stop-color="#D6B330"/><stop offset=".98" stop-color="#B79A30"/><stop offset="1" stop-color="#B09430"/></linearGradient><linearGradient id="paint5_linear_4_1843" x1="88.102" y1="686.846" x2="88.102" y2="680.592" gradientUnits="userSpaceOnUse"><stop stop-color="#B09430"/><stop offset=".05" stop-color="#BC9E30"/><stop offset=".18" stop-color="#D9B530"/><stop offset=".31" stop-color="#EEC630"/><stop offset=".44" stop-color="#FAD030"/><stop offset=".56" stop-color="#FFD431"/><stop offset=".65" stop-color="#FAD030"/><stop offset=".75" stop-color="#ECC530"/><stop offset=".86" stop-color="#D6B330"/><stop offset=".98" stop-color="#B79A30"/><stop offset="1" stop-color="#B09430"/></linearGradient><linearGradient id="paint6_linear_4_1843" x1="121.969" y1="384.048" x2="121.969" y2="377.847" gradientUnits="userSpaceOnUse"><stop stop-color="#B5832C"/><stop offset=".56" stop-color="#FFD431"/><stop offset=".99" stop-color="#AD7E2B"/><stop offset="1" stop-color="#AB7B2B"/></linearGradient><linearGradient id="paint7_linear_4_1843" x1="243.926" y1="60.104" x2="243.926" y2="40.652" gradientUnits="userSpaceOnUse"><stop offset=".16" stop-color="#FFC518"/><stop offset=".89" stop-color="#E79E24"/></linearGradient><linearGradient id="paint8_linear_4_1843" x1="185.359" y1="816.7" x2="185.359" y2="797.248" gradientUnits="userSpaceOnUse"><stop stop-color="#B09430"/><stop offset=".05" stop-color="#BC9E30"/><stop offset=".18" stop-color="#D9B530"/><stop offset=".31" stop-color="#EEC630"/><stop offset=".44" stop-color="#FAD030"/><stop offset=".56" stop-color="#FFD431"/><stop offset=".65" stop-color="#FAD030"/><stop offset=".75" stop-color="#ECC530"/><stop offset=".86" stop-color="#D6B330"/><stop offset=".98" stop-color="#B79A30"/><stop offset="1" stop-color="#B09430"/></linearGradient><linearGradient id="paint9_linear_4_1843" x1="234.703" y1="366.558" x2="234.703" y2="357.972" gradientUnits="userSpaceOnUse"><stop stop-color="#B09430"/><stop offset=".05" stop-color="#BC9E30"/><stop offset=".18" stop-color="#D9B530"/><stop offset=".31" stop-color="#EEC630"/><stop offset=".44" stop-color="#FAD030"/><stop offset=".56" stop-color="#FFD431"/><stop offset=".65" stop-color="#FAD030"/><stop offset=".75" stop-color="#ECC530"/><stop offset=".86" stop-color="#D6B330"/><stop offset=".98" stop-color="#B79A30"/><stop offset="1" stop-color="#B09430"/></linearGradient><linearGradient id="paint10_linear_4_1843" x1="233.114" y1="434.188" x2="233.114" y2="425.549" gradientUnits="userSpaceOnUse"><stop offset=".16" stop-color="#FFC518"/><stop offset=".89" stop-color="#E79E24"/></linearGradient><linearGradient id="paint11_linear_4_1843" x1="92.925" y1="283.399" x2="92.925" y2="279" gradientUnits="userSpaceOnUse"><stop stop-color="#B09430"/><stop offset=".05" stop-color="#BC9E30"/><stop offset=".18" stop-color="#D9B530"/><stop offset=".31" stop-color="#EEC630"/><stop offset=".44" stop-color="#FAD030"/><stop offset=".56" stop-color="#FFD431"/><stop offset=".65" stop-color="#FAD030"/><stop offset=".75" stop-color="#ECC530"/><stop offset=".86" stop-color="#D6B330"/><stop offset=".98" stop-color="#B79A30"/><stop offset="1" stop-color="#B09430"/></linearGradient><linearGradient id="paint12_linear_4_1843" x1="204.122" y1="523.548" x2="204.122" y2="509.291" gradientUnits="userSpaceOnUse"><stop offset=".16" stop-color="#FFC518"/><stop offset=".89" stop-color="#E79E24"/></linearGradient><linearGradient id="paint1_linear_4_1843" x1="102.783" y1="209.038" x2="102.783" y2="202.836" gradientUnits="userSpaceOnUse"><stop stop-color="#B09430"/><stop offset=".05" stop-color="#BC9E30"/><stop offset=".18" stop-color="#D9B530"/><stop offset=".31" stop-color="#EEC630"/><stop offset=".44" stop-color="#FAD030"/><stop offset=".56" stop-color="#FFD431"/><stop offset=".65" stop-color="#FAD030"/><stop offset=".75" stop-color="#ECC530"/><stop offset=".86" stop-color="#D6B330"/><stop offset=".98" stop-color="#B79A30"/><stop offset="1" stop-color="#B09430"/></linearGradient><linearGradient id="paint14_linear_4_1843" x1="213.874" y1="268.93" x2="213.874" y2="254.619" gradientUnits="userSpaceOnUse"><stop stop-color="#B09430"/><stop offset=".05" stop-color="#BC9E30"/><stop offset=".18" stop-color="#D9B530"/><stop offset=".31" stop-color="#EEC630"/><stop offset=".44" stop-color="#FAD030"/><stop offset=".56" stop-color="#FFD431"/><stop offset=".65" stop-color="#FAD030"/><stop offset=".75" stop-color="#ECC530"/><stop offset=".86" stop-color="#D6B330"/><stop offset=".98" stop-color="#B79A30"/><stop offset="1" stop-color="#B09430"/></linearGradient><linearGradient id="paint15_linear_4_1843" x1="163.576" y1="809.174" x2="163.576" y2="804.774" gradientUnits="userSpaceOnUse"><stop stop-color="#B09430"/><stop offset=".05" stop-color="#BC9E30"/><stop offset=".18" stop-color="#D9B530"/><stop offset=".31" stop-color="#EEC630"/><stop offset=".44" stop-color="#FAD030"/><stop offset=".56" stop-color="#FFD431"/><stop offset=".65" stop-color="#FAD030"/><stop offset=".75" stop-color="#ECC530"/><stop offset=".86" stop-color="#D6B330"/><stop offset=".98" stop-color="#B79A30"/><stop offset="1" stop-color="#B09430"/></linearGradient><linearGradient id="paint16_linear_4_1843" x1="68.173" y1="385.374" x2="68.173" y2="380.975" gradientUnits="userSpaceOnUse"><stop stop-color="#B09430"/><stop offset=".05" stop-color="#BC9E30"/><stop offset=".18" stop-color="#D9B530"/><stop offset=".31" stop-color="#EEC630"/><stop offset=".44" stop-color="#FAD030"/><stop offset=".56" stop-color="#FFD431"/><stop offset=".65" stop-color="#FAD030"/><stop offset=".75" stop-color="#ECC530"/><stop offset=".86" stop-color="#D6B330"/><stop offset=".98" stop-color="#B79A30"/><stop offset="1" stop-color="#B09430"/></linearGradient><linearGradient id="paint17_linear_4_1843" x1="113.542" y1="242.535" x2="113.542" y2="238.136" gradientUnits="userSpaceOnUse"><stop stop-color="#B09430"/><stop offset=".05" stop-color="#BC9E30"/><stop offset=".18" stop-color="#D9B530"/><stop offset=".31" stop-color="#EEC630"/><stop offset=".44" stop-color="#FAD030"/><stop offset=".56" stop-color="#FFD431"/><stop offset=".65" stop-color="#FAD030"/><stop offset=".75" stop-color="#ECC530"/><stop offset=".86" stop-color="#D6B330"/><stop offset=".98" stop-color="#B79A30"/><stop offset="1" stop-color="#B09430"/></linearGradient><linearGradient id="paint18_linear_4_1843" x1="228.185" y1="420.779" x2="228.185" y2="416.327" gradientUnits="userSpaceOnUse"><stop offset=".16" stop-color="#FFC518"/><stop offset=".89" stop-color="#E79E24"/></linearGradient><linearGradient id="paint19_linear_4_1843" x1="103.419" y1="488.037" x2="103.419" y2="483.638" gradientUnits="userSpaceOnUse"><stop offset=".16" stop-color="#FFC518"/><stop offset=".89" stop-color="#E79E24"/></linearGradient><linearGradient id="paint20_linear_4_1843" x1="241.806" y1="121.055" x2="241.806" y2="114.059" gradientUnits="userSpaceOnUse"><stop offset=".16" stop-color="#FFC518"/><stop offset=".89" stop-color="#E79E24"/></linearGradient><linearGradient id="paint21_linear_4_1843" x1="229.192" y1="95.879" x2="229.192" y2="84.325" gradientUnits="userSpaceOnUse"><stop stop-color="#B09430"/><stop offset=".05" stop-color="#BC9E30"/><stop offset=".18" stop-color="#D9B530"/><stop offset=".31" stop-color="#EEC630"/><stop offset=".44" stop-color="#FAD030"/><stop offset=".56" stop-color="#FFD431"/><stop offset=".65" stop-color="#FAD030"/><stop offset=".75" stop-color="#ECC530"/><stop offset=".86" stop-color="#D6B330"/><stop offset=".98" stop-color="#B79A30"/><stop offset="1" stop-color="#B09430"/></linearGradient><linearGradient id="paint22_linear_4_1843" x1="194.104" y1="665.009" x2="194.104" y2="647.784" gradientUnits="userSpaceOnUse"><stop offset=".16" stop-color="#FFC518"/><stop offset=".89" stop-color="#E79E24"/></linearGradient><linearGradient id="paint23_linear_4_1843" x1="11.408" y1="375.356" x2="11.408" y2="369.791" gradientUnits="userSpaceOnUse"><stop stop-color="#B09430"/><stop offset=".05" stop-color="#BC9E30"/><stop offset=".18" stop-color="#D9B530"/><stop offset=".31" stop-color="#EEC630"/><stop offset=".44" stop-color="#FAD030"/><stop offset=".56" stop-color="#FFD431"/><stop offset=".65" stop-color="#FAD030"/><stop offset=".75" stop-color="#ECC530"/><stop offset=".86" stop-color="#D6B330"/><stop offset=".98" stop-color="#B79A30"/><stop offset="1" stop-color="#B09430"/></linearGradient><linearGradient id="paint24_linear_4_1843" x1="2.557" y1="470.6" x2="2.557" y2="464.982" gradientUnits="userSpaceOnUse"><stop offset=".16" stop-color="#FFC518"/><stop offset=".89" stop-color="#E79E24"/></linearGradient><linearGradient id="paint25_linear_4_1843" x1="30.595" y1="797.726" x2="30.595" y2="793.379" gradientUnits="userSpaceOnUse"><stop stop-color="#B09430"/><stop offset=".05" stop-color="#BC9E30"/><stop offset=".18" stop-color="#D9B530"/><stop offset=".31" stop-color="#EEC630"/><stop offset=".44" stop-color="#FAD030"/><stop offset=".56" stop-color="#FFD431"/><stop offset=".65" stop-color="#FAD030"/><stop offset=".75" stop-color="#ECC530"/><stop offset=".86" stop-color="#D6B330"/><stop offset=".98" stop-color="#B79A30"/><stop offset="1" stop-color="#B09430"/></linearGradient><linearGradient id="paint26_linear_4_1843" x1="247.678" y1="155.047" x2="228.819" y2="156.574" gradientUnits="userSpaceOnUse"><stop stop-color="#B5832C"/><stop offset=".56" stop-color="#FFD431"/><stop offset=".99" stop-color="#AD7E2B"/><stop offset="1" stop-color="#AB7B2B"/></linearGradient></defs></svg>