<?xml version="1.0" encoding="UTF-8" standalone="no"?>
<!-- Created with Inkscape (http://www.inkscape.org/) -->

<svg
   width="64pt"
   height="64pt"
   viewBox="0 0 22.577778 22.577778"
   version="1.1"
   id="svg831"
   inkscape:version="1.1.2 (b8e25be833, 2022-02-05)"
   sodipodi:docname="Export - Unblash - 64px.svg"
   inkscape:export-filename="E:\Icon Design\TR Icon Design Project\Carlos - Icon Design Project\Desember\Done\Expand\10 - Diabetes Test.png"
   inkscape:export-xdpi="576"
   inkscape:export-ydpi="576"
   xmlns:inkscape="http://www.inkscape.org/namespaces/inkscape"
   xmlns:sodipodi="http://sodipodi.sourceforge.net/DTD/sodipodi-0.dtd"
   xmlns="http://www.w3.org/2000/svg"
   xmlns:svg="http://www.w3.org/2000/svg"
   xmlns:rdf="http://www.w3.org/1999/02/22-rdf-syntax-ns#"
   xmlns:cc="http://creativecommons.org/ns#"
   xmlns:dc="http://purl.org/dc/elements/1.1/">
  <defs
     id="defs825">
    <pattern
       id="EMFhbasepattern"
       patternUnits="userSpaceOnUse"
       width="6"
       height="6"
       x="0"
       y="0" />
    <pattern
       id="EMFhbasepattern-9"
       patternUnits="userSpaceOnUse"
       width="6"
       height="6"
       x="0"
       y="0" />
    <pattern
       id="EMFhbasepattern-0"
       patternUnits="userSpaceOnUse"
       width="6"
       height="6"
       x="0"
       y="0" />
    <pattern
       id="EMFhbasepattern-7"
       patternUnits="userSpaceOnUse"
       width="6"
       height="6"
       x="0"
       y="0" />
    <pattern
       id="EMFhbasepattern-2"
       patternUnits="userSpaceOnUse"
       width="6"
       height="6"
       x="0"
       y="0" />
    <pattern
       id="EMFhbasepattern-98"
       patternUnits="userSpaceOnUse"
       width="6"
       height="6"
       x="0"
       y="0" />
    <pattern
       id="EMFhbasepattern-6"
       patternUnits="userSpaceOnUse"
       width="6"
       height="6"
       x="0"
       y="0" />
    <pattern
       id="EMFhbasepattern-01"
       patternUnits="userSpaceOnUse"
       width="6"
       height="6"
       x="0"
       y="0" />
    <pattern
       id="EMFhbasepattern-07"
       patternUnits="userSpaceOnUse"
       width="6"
       height="6"
       x="0"
       y="0" />
    <pattern
       id="EMFhbasepattern-8"
       patternUnits="userSpaceOnUse"
       width="6"
       height="6"
       x="0"
       y="0" />
    <pattern
       id="EMFhbasepattern-4"
       patternUnits="userSpaceOnUse"
       width="6"
       height="6"
       x="0"
       y="0" />
    <pattern
       id="EMFhbasepattern-40"
       patternUnits="userSpaceOnUse"
       width="6"
       height="6"
       x="0"
       y="0" />
    <pattern
       id="EMFhbasepattern-08"
       patternUnits="userSpaceOnUse"
       width="6"
       height="6"
       x="0"
       y="0" />
    <pattern
       id="EMFhbasepattern-04"
       patternUnits="userSpaceOnUse"
       width="6"
       height="6"
       x="0"
       y="0" />
    <pattern
       id="EMFhbasepattern-014"
       patternUnits="userSpaceOnUse"
       width="6"
       height="6"
       x="0"
       y="0" />
    <pattern
       id="EMFhbasepattern-27"
       patternUnits="userSpaceOnUse"
       width="6"
       height="6"
       x="0"
       y="0" />
    <pattern
       id="EMFhbasepattern-09"
       patternUnits="userSpaceOnUse"
       width="6"
       height="6"
       x="0"
       y="0" />
    <pattern
       id="EMFhbasepattern-5"
       patternUnits="userSpaceOnUse"
       width="6"
       height="6"
       x="0"
       y="0" />
    <pattern
       id="EMFhbasepattern-018"
       patternUnits="userSpaceOnUse"
       width="6"
       height="6"
       x="0"
       y="0" />
  </defs>
  <sodipodi:namedview
     id="base"
     pagecolor="#ffffff"
     bordercolor="#666666"
     borderopacity="1.0"
     inkscape:pageopacity="0.0"
     inkscape:pageshadow="2"
     inkscape:zoom="3.421875"
     inkscape:cx="42.666667"
     inkscape:cy="42.666667"
     inkscape:document-units="pt"
     inkscape:current-layer="layer1"
     showgrid="false"
     units="pt"
     inkscape:window-width="958"
     inkscape:window-height="1041"
     inkscape:window-x="953"
     inkscape:window-y="0"
     inkscape:window-maximized="0"
     inkscape:pagecheckerboard="true"
     inkscape:showpageshadow="false"
     inkscape:object-paths="true"
     inkscape:snap-intersection-paths="true"
     inkscape:snap-smooth-nodes="true"
     inkscape:snap-midpoints="true"
     showguides="true"
     inkscape:snap-bbox="true"
     inkscape:bbox-nodes="true"
     inkscape:snap-nodes="false"
     inkscape:snap-global="true"
     inkscape:snap-others="false">
    <inkscape:grid
       type="xygrid"
       id="grid1378" />
    <sodipodi:guide
       position="0.97013831,21.607643"
       orientation="78.000048,0"
       id="guide1380"
       inkscape:locked="false" />
    <sodipodi:guide
       position="0.97013831,0.97013129"
       orientation="0,78.000005"
       id="guide1382"
       inkscape:locked="false" />
    <sodipodi:guide
       position="21.607639,0.97013129"
       orientation="-78.000048,0"
       id="guide1384"
       inkscape:locked="false" />
    <sodipodi:guide
       position="21.607639,21.607643"
       orientation="0,-78.000005"
       id="guide1386"
       inkscape:locked="false" />
  </sodipodi:namedview>
  <metadata
     id="metadata828">
    <rdf:RDF>
      <cc:Work
         rdf:about="">
        <dc:format>image/svg+xml</dc:format>
        <dc:type
           rdf:resource="http://purl.org/dc/dcmitype/StillImage" />
      </cc:Work>
    </rdf:RDF>
  </metadata>
  <g
     inkscape:label="Icon"
     inkscape:groupmode="layer"
     id="layer1"
     transform="translate(0,-274.42223)">
    <path
       id="rect107655"
       style="color:#000000;display:inline;fill:#fff;stroke-width:1;stroke-linecap:round;stroke-linejoin:round;-inkscape-stroke:none"
       d="m 8.9933119,294.69844 c 0.1557362,0.75683 0.8283771,1.33146 1.6292031,1.33146 0.915228,0 1.663658,-0.75104 1.663658,-1.66626 0,-0.91523 -0.74843,-1.66302 -1.663658,-1.66302 -0.8017446,0 -1.4751279,0.57381 -1.6298555,1.33145 H 2.966036 c -0.555437,0 -0.9972847,-0.44446 -0.9972847,-0.99988 v -7.65388 c 0,-0.37161 0.2941136,-0.66638 0.6657241,-0.66638 H 2.966036 v 5.65931 c 0,0.7314 0.6007061,1.32884 1.3321005,1.32884 h 5.9928145 c 0.731391,0 1.332101,-0.59744 1.332101,-1.32884 v -5.65931 h 0.663121 c 0.187774,0 0.334163,0.14444 0.334163,0.33221 v 2.66355 c 0,0.54757 0.450373,0.99729 0.997938,0.99729 h 0.334159 v 2.66354 c 0,0.3672 0.143558,0.71222 0.385524,0.96804 0.159359,0.16848 0.372779,0.2983 0.611764,0.34911 v 3.01006 c -6.65e-4,0.18485 0.149309,0.33489 0.334161,0.33417 0.183836,-6.7e-4 0.332283,-0.15034 0.331564,-0.33417 v -3.10303 c 0.259206,-0.0887 0.799214,-0.22624 1.663659,-0.22624 0.865054,0 1.406541,0.1375 1.66626,0.22624 v 3.10303 c -6.65e-4,0.18383 0.147728,0.33345 0.331563,0.33417 0.184852,6.5e-4 0.334886,-0.14932 0.33416,-0.33417 v -3.03801 c 0.571598,-0.14955 0.997289,-0.67302 0.997289,-1.2892 v -1.08765 c 0.198938,-0.11599 0.334809,-0.33229 0.334812,-0.57601 v -1.33145 c -3e-6,-0.24339 -0.13564,-0.45919 -0.334163,-0.57534 v -0.42454 c 0,-0.6142 -0.427908,-1.1237 -0.997938,-1.27163 -0.01082,-0.81618 0.187785,-1.20292 0.518147,-1.67733 l 0.503847,-0.70538 c 0.417788,-0.5849 0.641668,-1.28618 0.641668,-2.00497 v -1.66301 c 0,-0.54757 -0.450379,-0.99793 -0.997937,-0.99793 -0.116937,0 -0.229375,0.0209 -0.33416,0.0585 v -2.05634 c 4e-6,-0.54757 -0.44971,-0.99727 -0.997288,-0.99727 -0.130063,0 -0.254723,0.0254 -0.369267,0.0714 -0.115503,-0.42307 -0.505088,-0.73723 -0.962831,-0.73723 -0.547561,0 -0.997284,0.44972 -0.997284,0.99727 v 0.39008 c -0.104734,-0.0379 -0.217057,-0.0585 -0.334164,-0.0585 -0.547562,0 -0.997937,0.45298 -0.997937,1.00054 v 0.0591 c -0.104834,-0.0376 -0.217156,-0.0591 -0.334161,-0.0591 -0.547561,0 -0.997288,0.44973 -0.997288,0.99729 v 2.9951 c 0,0.70394 0.142686,1.40218 0.419979,2.04918 l 0.484341,1.13057 c 0.06176,0.1441 0.09297,0.30022 0.09297,0.45704 v 0.75089 c -0.569916,0.14802 -0.997288,0.65752 -0.997288,1.27163 v 0.66573 h -0.33416 c -0.187774,0 -0.331563,-0.14378 -0.331563,-0.33157 v -2.66355 c 0,-0.54757 -0.452973,-0.99793 -1.000538,-0.99793 h -0.663123 v -0.99988 c 0,-0.73141 -0.60071,-1.33211 -1.332101,-1.33211 H 4.2981365 c -0.7313944,0 -1.3321005,0.6007 -1.3321005,1.33211 v 0.99988 H 2.6344754 c -0.7313943,0 -1.3314481,0.6007 -1.3314481,1.3321 v 7.65388 c 3.4e-6,0.91522 0.7477912,1.6656 1.6630087,1.6656 z m 8.6024041,-18.64026 c 0.0058,-2.9e-4 0.0117,0 0.01754,0 0.187791,0 0.33156,0.14377 0.33156,0.33155 0,1.13288 0,2.3435 0,3.32927 3.33e-4,0.18435 0.15047,0.3333 0.334813,0.33221 0.183074,-6.6e-4 0.331208,-0.14914 0.331564,-0.33221 v -2.68109 c 0.0088,-0.17932 0.152241,-0.31661 0.33416,-0.31662 0.187781,0 0.331563,0.14639 0.331563,0.33417 v 2.99575 c 0,0.12568 0,0.25139 0,0.37707 -0.322086,0.0837 -0.621653,0.2869 -0.847759,0.58837 -0.302901,0.40388 -0.484341,0.97691 -0.484341,1.69811 6.66e-4,0.18409 0.150723,0.33264 0.334813,0.33157 0.182821,-6.7e-4 0.330851,-0.14875 0.331564,-0.33157 0,-0.61023 0.154674,-1.03579 0.351062,-1.29764 0.19639,-0.26186 0.426916,-0.36601 0.648822,-0.36601 0.239218,0 0.33213,-0.13887 0.33213,-0.33453 v -0.66573 c 0,-0.1878 0.146375,-0.3322 0.33416,-0.3322 0.187787,0 0.331563,0.1444 0.331563,0.3322 v 1.66301 c 0,0.58012 -0.180959,1.1474 -0.518146,1.61946 l -0.503846,0.70538 c -0.394322,0.55204 -0.614806,1.20777 -0.638416,1.88405 -0.326695,-0.0985 -0.874272,-0.21324 -1.668865,-0.21324 -0.791223,0 -1.336527,0.11373 -1.663008,0.21193 v -0.57079 c 0,-0.24696 -0.0503,-0.49271 -0.147578,-0.71969 l -0.484336,-1.13057 c -0.241781,-0.56413 -0.366018,-1.17274 -0.366018,-1.78653 v -2.99511 c 0,-0.18778 0.14377,-0.33156 0.331563,-0.33156 0.187791,0 0.33416,0.14378 0.33416,0.33156 0,0.77733 0,1.55466 0,2.33199 6.67e-4,0.18283 0.148743,0.33085 0.331565,0.33157 0.184089,9.9e-4 0.334097,-0.14749 0.334813,-0.33157 v -3.32927 c 0,-0.18777 0.14377,-0.33416 0.33156,-0.33416 0.187791,0 0.334163,0.14639 0.334163,0.33416 0,0.77658 0,1.55316 0,2.32974 -6.66e-4,0.18384 0.147724,0.33345 0.331561,0.33417 0.183836,-6.7e-4 0.33228,-0.15033 0.33156,-0.33417 v -3.66148 c 0,-0.18191 0.137294,-0.32293 0.316613,-0.33155 z M 4.2981365,282.3806 h 5.9928145 c 0.371611,0 0.666377,0.2941 0.666377,0.66573 v 1.83008 h -0.666377 v -0.8302 c 0,-0.54756 -0.4523193,-0.99988 -0.999884,-0.99988 H 5.2980207 c -0.5475646,0 -0.9998842,0.45232 -0.9998842,0.99988 v 3.99305 c 0,0.54755 0.4523196,0.99988 0.9998842,0.99988 H 9.291067 c 0.5475647,0 0.999884,-0.45233 0.999884,-0.99988 v -0.83086 h 0.666377 v 3.16284 c 0,0.37162 -0.294766,0.66573 -0.666377,0.66573 H 4.2981365 c -0.3716138,0 -0.665724,-0.29411 -0.665724,-0.66573 v -7.32491 c 0,-0.37163 0.2941102,-0.66573 0.665724,-0.66573 z m 0.9998842,1.33145 H 9.291067 c 0.1877774,0 0.3341603,0.14638 0.3341603,0.33416 v 3.99305 c 0,0.18775 -0.1463829,0.33415 -0.3341603,0.33415 H 5.2980207 c -0.1877774,0 -0.3341602,-0.1464 -0.3341602,-0.33415 v -3.99305 c 0,-0.18778 0.1463828,-0.33416 0.3341602,-0.33416 z m 0.6663765,0.66572 c -0.1851045,-10e-4 -0.3355382,0.14906 -0.3348126,0.33416 3.329e-4,0.18435 0.1504703,0.3333 0.3348126,0.33221 h 1.3288452 c 0.1840893,6.7e-4 0.3338074,-0.14812 0.3341636,-0.33221 6.656e-4,-0.18485 -0.149312,-0.33489 -0.3341636,-0.33416 z m 2.3287328,0.33221 c -6.657e-4,0.18389 0.1476676,0.33354 0.3315606,0.33416 0.1848582,6.7e-4 0.3348891,-0.1493 0.3341634,-0.33416 -6.656e-4,-0.18391 -0.1502572,-0.33229 -0.3383875,-0.33156 -0.1832138,0.005 -0.326724,0.15148 -0.3273365,0.33156 z m 1.997821,0.83281 h 0.666377 v 0.99988 h -0.666377 z m -4.3265538,0.16708 c -0.1851045,-0.001 -0.3355382,0.14906 -0.3348126,0.33417 6.658e-4,0.18408 0.1507233,0.33263 0.3348126,0.33155 h 1.3288452 c 0.1838364,6.7e-4 0.3334446,-0.14772 0.3341636,-0.33155 6.656e-4,-0.18486 -0.149312,-0.3349 -0.3341636,-0.33417 z m 2.6609458,0 c -0.1838365,6.7e-4 -0.3322829,0.15033 -0.3315639,0.33417 v 1.32949 c -6.658e-4,0.18384 0.1477274,0.33344 0.3315639,0.33416 0.1848482,6.6e-4 0.3348824,-0.14931 0.3341602,-0.33416 v -1.32949 c 6.656e-4,-0.18486 -0.1493086,-0.3349 -0.3341602,-0.33417 z m 8.653762,0.66572 c 0.865025,0 1.406531,0.13627 1.66626,0.2243 v 0.10731 c -6.65e-4,0.18384 0.147728,0.33345 0.331563,0.33417 0.152898,3.4e-4 0.286432,-0.10329 0.323759,-0.2516 0.205127,0.11259 0.341966,0.33023 0.341966,0.58381 v 0.33416 h -1.05515 c -0.138423,-0.38659 -0.511062,-0.66637 -0.942675,-0.66637 h -0.665723 c -0.547567,0 -0.997289,0.45036 -0.997286,0.99794 h -0.33156 c -0.185105,-10e-4 -0.335539,0.14904 -0.334813,0.33415 6.65e-4,0.1841 0.150723,0.33265 0.334813,0.33157 h 0.33156 v 0.66573 h -0.33156 c -0.185105,-0.001 -0.335539,0.14905 -0.334813,0.33415 3.33e-4,0.18436 0.15047,0.3333 0.334813,0.33222 h 0.33156 c -3e-6,0.54755 0.449719,0.99989 0.997286,0.99989 h 0.665723 c 0.430457,0 0.802723,-0.2801 0.942026,-0.66573 h 1.055799 v 0.99728 c 0,0.35081 -0.261983,0.63265 -0.603965,0.66312 -0.236146,-0.0936 -0.945388,-0.33156 -2.059583,-0.33156 -1.169665,0 -1.889895,0.26179 -2.087539,0.34392 -0.13691,0.0113 -0.257642,-0.0464 -0.36927,-0.16448 -0.121327,-0.12827 -0.204138,-0.32671 -0.204138,-0.511 v -3.99499 c 0,-0.25463 0.138041,-0.47289 0.344565,-0.58511 0.03658,0.14785 0.168855,0.252 0.321159,0.2529 0.184089,-3.3e-4 0.332931,-0.15008 0.332213,-0.33417 v -0.10731 c 0.259436,-0.0881 0.799208,-0.2243 1.66301,-0.2243 z m -11.3147078,0.66573 c -0.1843423,-10e-4 -0.3344564,0.14787 -0.3348126,0.33221 -6.656e-4,0.18511 0.1497081,0.33525 0.3348126,0.33416 h 0.3315606 c 0.1848516,6.6e-4 0.3348858,-0.14931 0.3341635,-0.33416 -3.561e-4,-0.18409 -0.1500742,-0.33293 -0.3341635,-0.33221 z m 1.3314482,0.33156 c -6.657e-4,0.18389 0.1476642,0.33354 0.3315606,0.33416 0.1848582,6.7e-4 0.3348858,-0.1493 0.3341634,-0.33416 -6.656e-4,-0.1839 -0.1502606,-0.33229 -0.3426148,-0.33156 -0.1834669,0.009 -0.3225067,0.15434 -0.3231092,0.33156 z m 10.6489726,0.33481 c 0.187778,0 0.334816,0.14378 0.334813,0.33157 v 1.99781 c 3e-6,0.18777 -0.147035,0.33417 -0.334813,0.33417 h -0.665724 c -0.187774,0 -0.331562,-0.1464 -0.331562,-0.33417 3.8e-5,-0.6659 0,-1.33223 0,-1.99781 0,-0.18191 0.134851,-0.32294 0.322785,-0.33157 z m 1.000547,0.66572 h 1.331448 v 1.33145 h -1.331448 z m -14.6465794,1.66366 c -6.658e-4,0.1839 0.1476676,0.33354 0.3315605,0.33417 0.1848583,6.7e-4 0.3348893,-0.14931 0.3341636,-0.33417 -6.658e-4,-0.1839 -0.1502573,-0.33294 -0.3383875,-0.33221 -0.183214,0.005 -0.3267208,0.15212 -0.3273366,0.33221 z m 1.3327497,0 c -6.658e-4,0.1839 0.1476641,0.33354 0.3315605,0.33417 0.1848582,6.7e-4 0.3348891,-0.14931 0.3341634,-0.33417 -6.656e-4,-0.1839 -0.1502605,-0.33294 -0.3383875,-0.33221 -0.1832138,0.005 -0.326724,0.15212 -0.3273364,0.33221 z m 1.6617071,-0.33221 c -0.1830741,6.7e-4 -0.3312044,0.14914 -0.3315605,0.33221 -6.658e-4,0.18385 0.1477241,0.33345 0.3315605,0.33417 h 2.6635487 c 0.1848519,6.7e-4 0.3348859,-0.14932 0.3341599,-0.33417 -3.32e-4,-0.18409 -0.150071,-0.33293 -0.3341599,-0.33221 z m 4.3298096,4.65878 c -4e-6,0.55544 -0.445093,1.00053 -1.000537,1.00053 -0.555443,0 -0.9972845,-0.44509 -0.9972877,-1.00053 3.2e-6,-0.54677 0.4343347,-0.9973 0.9846087,-0.9973 0.571165,0 1.013212,0.44185 1.013216,0.9973 z"
       sodipodi:nodetypes="cssscsssscsssscsssscssccsccsccsccsccccsccsssscsscsscsscsssccscscsssscsssscsscccsscccccssccscccsccsssssscscsccsssccccssccccsssssccssssssssccssssssscsssssssccccccccccccccccccsccsccsscsccssccccsccssccscccccccssccscscsssccccsccccccccscccsccssccscccccccccccccccccsccccssscsss" />
  </g>
</svg>
