<svg width="64" height="61" viewBox="0 0 64 61" fill="none" xmlns="http://www.w3.org/2000/svg">
<path d="M15.4686 25.6407C16.058 25.6407 16.5354 25.1626 16.5354 24.5723V5.3418C16.5354 3.57369 17.9703 2.13672 19.7358 2.13672H24.0003V12.9537C24.0003 13.5867 24.2937 14.1876 24.7817 14.5642C25.2538 14.9275 25.8538 15.045 26.4192 14.8928L31.9986 13.3891L37.5806 14.8928C38.1513 15.0477 38.746 14.9275 39.2181 14.5642C39.7088 14.1876 39.9995 13.5867 39.9995 12.9537L40.0048 2.13672H44.2747C46.0402 2.13672 47.475 3.57369 47.475 5.3418V22.7241C47.4884 24.1184 49.5873 24.137 49.6086 22.7241V5.3418C49.6086 2.3958 47.2164 0 44.2747 0H19.7387C16.797 0 14.4047 2.3958 14.4047 5.3418V24.5723C14.4047 25.1626 14.8821 25.6407 15.4715 25.6407H15.4686ZM26.1366 2.13672H37.8764L37.9244 12.7697L32.2811 11.25C32.1904 11.2259 32.0971 11.2126 32.0037 11.2126C31.9104 11.2126 31.817 11.2232 31.7264 11.25L26.1364 12.7563L26.1366 2.13672Z" fill="black"/>
<path d="M15.4686 25.6407C16.058 25.6407 16.5354 25.1626 16.5354 24.5723V5.3418C16.5354 3.57369 17.9703 2.13672 19.7358 2.13672H24.0003V12.9537C24.0003 13.5867 24.2937 14.1876 24.7817 14.5642C25.2538 14.9275 25.8538 15.045 26.4192 14.8928L31.9986 13.3891L37.5806 14.8928C38.1513 15.0477 38.746 14.9275 39.2181 14.5642C39.7088 14.1876 39.9995 13.5867 39.9995 12.9537L40.0048 2.13672H44.2747C46.0402 2.13672 47.475 3.57369 47.475 5.3418V22.7241C47.4884 24.1184 49.5873 24.137 49.6086 22.7241V5.3418C49.6086 2.3958 47.2164 0 44.2747 0H19.7387C16.797 0 14.4047 2.3958 14.4047 5.3418V24.5723C14.4047 25.1626 14.8821 25.6407 15.4715 25.6407H15.4686ZM26.1366 2.13672H37.8764L37.9244 12.7697L32.2811 11.25C32.1904 11.2259 32.0971 11.2126 32.0037 11.2126C31.9104 11.2126 31.817 11.2232 31.7264 11.25L26.1364 12.7563L26.1366 2.13672Z" fill="url(#paint0_linear_106_815)"/>
<path d="M32.5373 26.1425C33.4308 26.1132 33.6841 25.3492 33.6041 24.572C33.6041 23.3941 32.6467 22.4353 31.4705 22.4353H20.8026C19.6264 22.4353 18.669 23.3941 18.669 24.572C18.669 25.1623 19.1464 25.6404 19.7358 25.6404C20.3252 25.6404 20.8026 25.1623 20.8026 24.572H31.4705C31.3932 25.3492 31.6386 26.1105 32.5373 26.1425Z" fill="black"/>
<path d="M32.5373 26.1425C33.4308 26.1132 33.6841 25.3492 33.6041 24.572C33.6041 23.3941 32.6467 22.4353 31.4705 22.4353H20.8026C19.6264 22.4353 18.669 23.3941 18.669 24.572C18.669 25.1623 19.1464 25.6404 19.7358 25.6404C20.3252 25.6404 20.8026 25.1623 20.8026 24.572H31.4705C31.3932 25.3492 31.6386 26.1105 32.5373 26.1425Z" fill="url(#paint1_linear_106_815)"/>
<path d="M5.33391 60.8962H29.8705C31.5561 60.8962 33.1669 60.0789 34.175 58.7088C34.9911 57.5763 33.2976 56.321 32.4575 57.4401C31.8388 58.2787 30.8973 58.7595 29.8705 58.7595H5.33391C3.56839 58.7595 2.13353 57.3225 2.13353 55.5544V32.0505C2.13353 30.2824 3.56839 28.8454 5.33391 28.8454H9.60109V39.6569C9.56908 40.9068 10.8145 41.9565 12.0201 41.5959L17.6021 40.1002L21.0078 41.011C22.3627 41.3475 22.9094 39.3337 21.5572 38.9464L17.8768 37.9635C17.7461 37.6991 12.0067 39.4485 11.7347 39.4645V28.8479H23.4698V30.0766C23.4698 30.6668 23.9472 31.1449 24.5366 31.1449C25.126 31.1449 25.6034 30.6668 25.6034 30.0766V28.8479H28.3344C29.7266 28.8292 29.7426 26.7325 28.3344 26.7112H5.33397C2.39228 26.7112 0 29.107 0 32.053V55.5569C0 58.503 2.39228 60.8988 5.33397 60.8988L5.33391 60.8962Z" fill="black"/>
<path d="M5.33391 60.8962H29.8705C31.5561 60.8962 33.1669 60.0789 34.175 58.7088C34.9911 57.5763 33.2976 56.321 32.4575 57.4401C31.8388 58.2787 30.8973 58.7595 29.8705 58.7595H5.33391C3.56839 58.7595 2.13353 57.3225 2.13353 55.5544V32.0505C2.13353 30.2824 3.56839 28.8454 5.33391 28.8454H9.60109V39.6569C9.56908 40.9068 10.8145 41.9565 12.0201 41.5959L17.6021 40.1002L21.0078 41.011C22.3627 41.3475 22.9094 39.3337 21.5572 38.9464L17.8768 37.9635C17.7461 37.6991 12.0067 39.4485 11.7347 39.4645V28.8479H23.4698V30.0766C23.4698 30.6668 23.9472 31.1449 24.5366 31.1449C25.126 31.1449 25.6034 30.6668 25.6034 30.0766V28.8479H28.3344C29.7266 28.8292 29.7426 26.7325 28.3344 26.7112H5.33397C2.39228 26.7112 0 29.107 0 32.053V55.5569C0 58.503 2.39228 60.8988 5.33397 60.8988L5.33391 60.8962Z" fill="url(#paint2_linear_106_815)"/>
<path d="M6.40104 49.1419C5.22487 49.1419 4.26746 50.1007 4.26746 51.2786V54.4837C4.26746 55.6616 5.22487 56.6204 6.40104 56.6204H17.069C18.2452 56.6204 19.2026 55.6616 19.2026 54.4837V51.2786C19.2026 50.1007 18.2452 49.1419 17.069 49.1419H6.40104ZM6.40104 54.4837V51.2786H17.069L17.0717 54.4837H6.40104Z" fill="black"/>
<path d="M6.40104 49.1419C5.22487 49.1419 4.26746 50.1007 4.26746 51.2786V54.4837C4.26746 55.6616 5.22487 56.6204 6.40104 56.6204H17.069C18.2452 56.6204 19.2026 55.6616 19.2026 54.4837V51.2786C19.2026 50.1007 18.2452 49.1419 17.069 49.1419H6.40104ZM6.40104 54.4837V51.2786H17.069L17.0717 54.4837H6.40104Z" fill="url(#paint3_linear_106_815)"/>
<path d="M63.2583 34.6949L59.5405 31.7863C59.5192 31.7115 44.6457 22.9112 44.6266 22.8654C43.4211 22.1442 41.9196 22.1442 40.7141 22.8654L25.9093 31.7118C25.848 31.7572 25.8267 31.7678 25.8053 31.7839C25.8 31.7865 22.0822 34.6951 22.0822 34.6951C21.6395 35.0424 21.3675 35.5605 21.3355 36.1187C21.3061 36.6769 21.5168 37.2191 21.9195 37.6117L25.3892 41.0038V48.7575C25.3892 50.0609 26.0667 51.2468 27.2001 51.9305L42.1243 60.8514C42.4657 61.0491 42.8577 61.0464 43.1991 60.8621C43.2178 60.8514 58.1287 51.933 58.1287 51.933C59.2702 51.2546 59.953 50.0687 59.953 48.76V41.0035L63.42 37.6142C64.2575 36.8316 64.1748 35.3813 63.2574 34.6976L63.2583 34.6949ZM23.5735 36.2413L26.5393 33.9203L40.5438 42.2881L40.7678 42.4216L34.6524 47.0717C34.6524 47.0717 27.2166 39.7986 27.2091 39.7931L23.574 36.2382L23.5735 36.2413ZM41.6049 58.0516L28.2968 50.0975C27.8114 49.8064 27.5234 49.307 27.5234 48.7594V43.0918L33.2574 48.698C33.9561 49.3764 35.0655 49.4431 35.8363 48.8556L41.605 44.4672L41.6049 58.0516ZM42.6717 41.0727L28.5422 32.627L41.808 24.6996C42.3388 24.3818 43.0002 24.3818 43.5309 24.6996L56.7994 32.627C54.3457 34.0933 44.9367 39.7155 42.6699 41.07L42.6717 41.0727ZM57.8226 48.7594C57.8226 49.307 57.5319 49.8064 57.0412 50.0975L43.7412 58.0543V44.4757L49.5046 48.8587C50.278 49.449 51.3875 49.3822 52.0862 48.7011L57.8228 43.0923V48.7626L57.8226 48.7594ZM50.6913 47.0741L44.5759 42.4241L58.8044 33.9223L61.7701 36.2433L50.6911 47.0767L50.6913 47.0741Z" fill="black"/>
<path d="M63.2583 34.6949L59.5405 31.7863C59.5192 31.7115 44.6457 22.9112 44.6266 22.8654C43.4211 22.1442 41.9196 22.1442 40.7141 22.8654L25.9093 31.7118C25.848 31.7572 25.8267 31.7678 25.8053 31.7839C25.8 31.7865 22.0822 34.6951 22.0822 34.6951C21.6395 35.0424 21.3675 35.5605 21.3355 36.1187C21.3061 36.6769 21.5168 37.2191 21.9195 37.6117L25.3892 41.0038V48.7575C25.3892 50.0609 26.0667 51.2468 27.2001 51.9305L42.1243 60.8514C42.4657 61.0491 42.8577 61.0464 43.1991 60.8621C43.2178 60.8514 58.1287 51.933 58.1287 51.933C59.2702 51.2546 59.953 50.0687 59.953 48.76V41.0035L63.42 37.6142C64.2575 36.8316 64.1748 35.3813 63.2574 34.6976L63.2583 34.6949ZM23.5735 36.2413L26.5393 33.9203L40.5438 42.2881L40.7678 42.4216L34.6524 47.0717C34.6524 47.0717 27.2166 39.7986 27.2091 39.7931L23.574 36.2382L23.5735 36.2413ZM41.6049 58.0516L28.2968 50.0975C27.8114 49.8064 27.5234 49.307 27.5234 48.7594V43.0918L33.2574 48.698C33.9561 49.3764 35.0655 49.4431 35.8363 48.8556L41.605 44.4672L41.6049 58.0516ZM42.6717 41.0727L28.5422 32.627L41.808 24.6996C42.3388 24.3818 43.0002 24.3818 43.5309 24.6996L56.7994 32.627C54.3457 34.0933 44.9367 39.7155 42.6699 41.07L42.6717 41.0727ZM57.8226 48.7594C57.8226 49.307 57.5319 49.8064 57.0412 50.0975L43.7412 58.0543V44.4757L49.5046 48.8587C50.278 49.449 51.3875 49.3822 52.0862 48.7011L57.8228 43.0923V48.7626L57.8226 48.7594ZM50.6913 47.0741L44.5759 42.4241L58.8044 33.9223L61.7701 36.2433L50.6911 47.0767L50.6913 47.0741Z" fill="url(#paint4_linear_106_815)"/>
<defs>
<linearGradient id="paint0_linear_106_815" x1="28.333" y1="7.6233" x2="28.333" y2="31.7927" gradientUnits="userSpaceOnUse">
<stop stop-color="#EB4716"/>
<stop offset="1" stop-color="#FDF29F"/>
</linearGradient>
<linearGradient id="paint1_linear_106_815" x1="28.333" y1="7.6233" x2="28.333" y2="31.7927" gradientUnits="userSpaceOnUse">
<stop stop-color="#EB4716"/>
<stop offset="1" stop-color="#FDF29F"/>
</linearGradient>
<linearGradient id="paint2_linear_106_815" x1="28.333" y1="7.6233" x2="28.333" y2="31.7927" gradientUnits="userSpaceOnUse">
<stop stop-color="#EB4716"/>
<stop offset="1" stop-color="#FDF29F"/>
</linearGradient>
<linearGradient id="paint3_linear_106_815" x1="28.333" y1="7.6233" x2="28.333" y2="31.7927" gradientUnits="userSpaceOnUse">
<stop stop-color="#EB4716"/>
<stop offset="1" stop-color="#FDF29F"/>
</linearGradient>
<linearGradient id="paint4_linear_106_815" x1="28.333" y1="7.6233" x2="28.333" y2="31.7927" gradientUnits="userSpaceOnUse">
<stop stop-color="#EB4716"/>
<stop offset="1" stop-color="#FDF29F"/>
</linearGradient>
</defs>
</svg>
