<svg width="72" height="46" viewBox="0 0 72 46" fill="none" xmlns="http://www.w3.org/2000/svg">
<path d="M62.4693 26.7365C62.4693 26.7365 62.4005 26.7136 62.3623 26.7136H62.3546C62.3546 26.7136 62.3393 26.7136 62.3317 26.7136C62.3087 26.7136 62.2934 26.7213 62.2705 26.7365C62.2628 26.7365 62.2552 26.7365 62.2475 26.7518C62.2246 26.7671 62.2093 26.79 62.194 26.813C62.1863 26.8282 62.1787 26.8282 62.171 26.8435C62.1175 26.9505 62.0869 27.0498 62.1557 27.1262C62.171 27.1492 62.2016 27.1721 62.2475 27.195C62.3929 27.2638 62.7371 27.1797 62.8365 27.0422C62.8595 27.004 62.8747 26.9734 62.8747 26.9505C62.8824 26.9199 62.8824 26.897 62.8671 26.8741C62.8518 26.8435 62.8136 26.8206 62.7524 26.813C62.6606 26.7977 62.5611 26.7824 62.4846 26.7442C62.4846 26.7442 62.4795 26.7442 62.4693 26.7442V26.7365ZM61.9339 30.1904C61.9339 30.1904 61.9722 30.1598 61.9875 30.1445C61.9875 30.1369 61.9951 30.1369 61.9951 30.1369C62.0104 30.114 62.0181 30.091 62.0257 30.0834C62.0334 30.0681 62.041 30.0605 62.0487 30.0452C62.0793 30.007 62.1022 29.9764 62.1022 29.9535C62.1022 29.8771 62.0716 29.8083 62.0563 29.7395C62.0257 29.7548 62.0028 29.7701 61.9722 29.7854C61.9339 29.8007 61.888 29.8236 61.8574 29.8465C61.8039 29.9 61.758 29.9688 61.7274 30.0375C61.6968 30.1063 61.6815 30.1904 61.6586 30.2668C61.6662 30.2668 61.6662 30.2591 61.6739 30.2591C61.7503 30.2439 61.8421 30.2286 61.9186 30.198C61.9186 30.1904 61.9263 30.1904 61.9339 30.1904ZM62.5994 24.9103C62.5994 24.9103 62.6147 24.9103 62.63 24.9027H62.6759C62.7141 24.9027 62.7524 24.895 62.8059 24.8874C62.7906 24.8721 62.783 24.8568 62.7753 24.8415C62.7753 24.8339 62.7753 24.8263 62.76 24.8186C62.7524 24.7957 62.7371 24.7804 62.7294 24.7651C62.7218 24.7498 62.7141 24.7422 62.6988 24.7346H62.6912C62.6912 24.7346 62.6912 24.7346 62.6835 24.7346H62.6682C62.6682 24.7346 62.6529 24.7346 62.6453 24.7346C62.5994 24.7422 62.5535 24.7575 62.5076 24.7728C62.5152 24.7957 62.5152 24.8262 62.5229 24.8492C62.5229 24.8797 62.5458 24.895 62.5611 24.9027C62.5688 24.9103 62.5841 24.9103 62.5994 24.9103ZM61.9875 33.7741C61.9645 33.8276 61.9339 33.8811 61.911 33.9346C61.9492 33.9422 61.9875 33.9575 62.0257 33.9728C62.064 33.8887 62.0946 33.8199 62.1328 33.7359C62.0946 33.7282 62.041 33.7053 62.0257 33.7053C62.0104 33.7282 62.0028 33.7512 61.9875 33.7741ZM62.0563 36.7618C62.0563 36.7618 62.041 36.7083 62.0334 36.6777C61.9569 36.7389 61.8957 36.7694 61.8727 36.8076C61.8574 36.8458 61.888 36.8993 61.9033 36.9375C61.9569 36.9146 62.0257 36.8917 62.064 36.8535C62.064 36.8535 62.064 36.8458 62.0716 36.8458C62.0716 36.8382 62.0716 36.8229 62.064 36.8076C62.064 36.7924 62.064 36.7771 62.0563 36.7618ZM63.2495 30.2897C63.2495 30.2897 63.2342 30.2362 63.2266 30.2133L63.2037 30.1904C63.2037 30.1904 63.1807 30.1522 63.1731 30.1445C63.1195 30.1369 63.0813 30.1216 63.0507 30.1216C63.043 30.1216 63.0277 30.114 63.0277 30.114H63.0048C62.9589 30.1216 62.913 30.1292 62.8671 30.1369C62.6912 30.1674 62.5152 30.198 62.3623 30.2591C62.3393 30.2668 62.3164 30.2668 62.2934 30.2744C62.1863 30.3279 62.1328 30.5342 62.1098 30.6794C62.1098 30.7023 62.1251 30.7405 62.1328 30.7711C62.1404 30.7864 62.1404 30.8017 62.1481 30.8169C62.1787 30.8628 62.2169 30.901 62.2552 30.9163C62.3087 30.9392 62.3623 30.9545 62.4158 30.9545C62.4846 30.9621 62.5611 30.9545 62.63 30.9392C62.9512 30.8704 63.2495 30.5954 63.2495 30.2897ZM62.2475 31.1302C62.2475 31.1302 62.1863 31.1608 62.1634 31.1761C62.1481 31.1914 62.1251 31.199 62.1251 31.2143C62.1251 31.2525 62.1404 31.2907 62.1557 31.3289C62.1634 31.3595 62.171 31.39 62.1787 31.4206H62.1863C62.1863 31.4206 62.2016 31.4206 62.2093 31.4206C62.2399 31.413 62.2781 31.3977 62.3087 31.39V31.3518L62.2475 31.1379V31.1302ZM64.0756 34.0033C64.0756 34.0033 64.0297 34.0339 64.0068 34.0568C63.9839 34.0645 63.9686 34.0797 63.9533 34.095C63.938 34.1103 63.915 34.1256 63.9074 34.1485C63.8768 34.202 63.8997 34.2708 63.9074 34.3395C63.9839 34.3242 64.0756 34.3242 64.1292 34.286C64.1445 34.286 64.1445 34.2478 64.1445 34.2173V34.1027C64.1445 34.1027 64.1062 34.0568 64.0909 34.0262C64.0833 34.0186 64.0756 34.011 64.0756 34.0033ZM63.2419 27.3478C63.2113 27.302 63.1731 27.2714 63.1195 27.2561C63.1042 27.2485 63.0889 27.2485 63.0736 27.2485C63.043 27.2485 63.0124 27.2561 62.9818 27.2638C62.9665 27.2714 62.9589 27.2714 62.9359 27.2791C62.8824 27.302 62.8289 27.3249 62.783 27.3555C62.783 27.3555 62.7677 27.4548 62.8136 27.5312C62.8136 27.5389 62.8136 27.5465 62.8136 27.5465C62.8365 27.5847 62.8671 27.6153 62.89 27.6458C62.8977 27.6458 62.9053 27.6535 62.913 27.6611C62.9436 27.6917 62.9895 27.7146 63.0277 27.7299C63.0507 27.7299 63.0813 27.7223 63.1119 27.707C63.1272 27.6993 63.1348 27.6993 63.1501 27.6917C63.1731 27.6841 63.2037 27.6688 63.2113 27.6611C63.2954 27.5236 63.2954 27.4243 63.2495 27.3555C63.2419 27.3478 63.2342 27.3478 63.2342 27.3478H63.2419ZM61.4061 34.8668H61.3679C61.3144 34.8668 61.2608 34.8668 61.2073 34.8744C61.1461 34.8744 61.0466 34.9126 61.039 34.9508C61.0237 35.0043 61.016 35.0654 61.0084 35.1266C61.0084 35.1877 61.0007 35.2412 61.0007 35.2947C61.1614 35.31 61.2838 35.3252 61.4061 35.3252C61.4597 35.3252 61.5285 35.2947 61.5515 35.2641C61.6203 35.1342 61.6662 35.0043 61.7274 34.8668H61.4061ZM63.6779 29.0365C63.5938 29.2123 63.6932 29.304 63.8309 29.4415C63.8462 29.4492 63.8538 29.4568 63.8615 29.4645C63.8997 29.4492 63.9533 29.4339 63.9991 29.4186C64.0527 29.3957 64.0986 29.3728 64.1215 29.3422C64.2057 29.2352 64.2975 29.1435 64.3969 29.0671C64.5652 28.9449 64.7641 28.8761 65.0241 28.9448C65.0624 28.9525 65.1083 28.9449 65.1542 28.9372C65.1694 28.9372 65.1924 28.9449 65.2153 28.9372C65.2765 28.9143 65.3683 28.8914 65.4219 28.8608H65.4372C65.4372 28.8608 65.4601 28.8302 65.4678 28.8226C65.4678 28.8073 65.4754 28.792 65.4754 28.7767C65.4754 28.7538 65.4678 28.7309 65.4601 28.7003C65.4525 28.6698 65.4372 28.6316 65.4219 28.6086C65.4066 28.5934 65.3989 28.5781 65.3836 28.5628C65.223 28.387 65.0471 28.2342 64.8635 28.0738C64.8405 28.0508 64.787 28.0432 64.7411 28.0432C64.6493 28.0355 64.5575 28.0279 64.4734 28.0203C64.4275 28.0203 64.3816 28.0126 64.3357 28.0126C64.3204 28.0126 64.3051 28.0126 64.2898 28.005C64.2516 28.005 64.2057 27.9973 64.1598 27.9973C64.1292 27.9897 64.0909 27.9897 64.0603 27.9821H64.0221C63.9762 27.9821 63.938 27.9897 63.915 28.0126C63.8615 28.0661 63.8079 28.1578 63.785 28.2495C63.7544 28.3183 63.7467 28.3947 63.762 28.4482C63.8462 28.6316 63.7926 28.792 63.7238 28.9448C63.7085 28.9754 63.6932 29.006 63.6779 29.0365ZM62.7677 28.9066H62.7524C62.6912 28.9143 62.6223 28.9219 62.5382 28.9219C62.5688 28.9754 62.5841 29.0136 62.607 29.0518C62.63 29.0977 62.6453 29.1359 62.6682 29.1359C62.6682 29.1359 62.6835 29.1359 62.6988 29.1282C62.76 29.1282 62.8212 29.113 62.8824 29.09C62.9053 29.0748 62.9359 29.0671 62.9589 29.0595C62.9589 29.0518 62.9512 28.9449 62.9359 28.9143H62.9283L62.7677 28.9066ZM63.4025 29.793C63.4025 29.793 63.3949 29.793 63.3949 29.8083C63.3719 29.8542 63.3413 29.8924 63.326 29.9306C63.326 29.9306 63.3184 29.9917 63.3184 30.0223C63.3107 30.0452 63.3107 30.0757 63.3031 30.0987H63.502C63.502 30.0987 63.5249 30.091 63.5326 30.091C63.5708 30.0757 63.6091 30.0605 63.6244 30.0375C63.6855 29.9382 63.7544 29.8389 63.7773 29.7319C63.7773 29.7319 63.7697 29.7243 63.7697 29.7166C63.7697 29.7166 63.762 29.6937 63.7544 29.6937C63.7314 29.6631 63.6779 29.6249 63.6396 29.5944C63.5632 29.6631 63.4867 29.7319 63.4102 29.793H63.4025ZM65.3836 26.2704C65.4372 26.2704 65.5519 26.2322 65.6666 26.2093C65.659 26.2017 65.659 26.194 65.659 26.1787C65.6207 26.0488 65.5978 25.9571 65.5748 25.8654C65.5213 25.8807 65.4601 25.896 65.3989 25.9113C65.3377 25.9266 65.2842 25.9419 65.2765 25.9724C65.2689 25.9953 65.2765 26.0183 65.2765 26.0412C65.2765 26.0947 65.2918 26.1405 65.3148 26.194C65.3224 26.2169 65.3301 26.2475 65.3454 26.2704C65.3454 26.2781 65.3607 26.2781 65.3836 26.2704ZM65.8655 21.7774C65.7814 21.7316 65.6972 21.701 65.6054 21.6934C65.5748 21.6857 65.5519 21.6857 65.5289 21.6857C65.3224 21.6628 65.1389 21.6322 65.0777 21.3877C65.07 21.3877 65.0547 21.403 65.0471 21.4106C65.0318 21.4183 65.0241 21.4183 65.0088 21.4259C64.9782 21.5558 64.94 21.6857 64.9017 21.8233C64.8635 21.9608 64.8099 22.0907 64.7717 22.2282C64.7564 22.297 64.7564 22.3429 64.7488 22.3963C64.7182 22.6638 64.8176 22.809 65.0777 22.8395C65.1542 22.8472 65.2306 22.8548 65.3377 22.8548C65.4448 22.8472 65.5136 22.809 65.5595 22.7478C65.5901 22.7173 65.6207 22.6791 65.636 22.6179C65.6666 22.488 65.7049 22.3658 65.7431 22.2435C65.7584 22.2588 65.7737 22.2817 65.7967 22.297H65.8043C65.8961 22.2664 66.0338 22.2435 66.0491 22.2053C66.0567 22.1518 66.0644 22.0983 66.0644 22.0449C66.0644 22.0296 66.0567 22.0219 66.0567 22.0143C66.0567 21.9684 66.0491 21.9302 66.0338 21.8997C66.0261 21.8844 66.0185 21.8844 66.0108 21.8767C65.9726 21.8385 65.9191 21.808 65.8655 21.7774ZM64.9859 27.1186C64.9859 27.1186 65.0088 27.111 65.0241 27.1186C65.0853 27.1186 65.1847 27.0957 65.2995 27.0728C65.3148 27.0728 65.3224 27.0728 65.3377 27.0728C65.2918 26.9352 65.2612 26.7977 65.2383 26.7595H65.2306C65.093 26.7824 64.9553 26.8359 64.8176 26.8817C64.8711 26.9658 64.9017 27.088 64.9859 27.1262V27.1186ZM65.0088 24.2914C65.0088 24.2914 65.07 24.2914 65.1006 24.2761C65.1312 24.2684 65.1618 24.2455 65.1847 24.2302C65.1924 24.2226 65.1924 24.215 65.1924 24.1997C65.1924 24.1767 65.1924 24.1462 65.1847 24.1156C65.1847 24.0927 65.1771 24.0698 65.1771 24.0468C65.07 24.1003 65.0012 24.1309 64.9476 24.1691C64.9476 24.1767 64.9553 24.2073 64.9629 24.2302C64.9782 24.2608 64.9935 24.2914 65.0088 24.2914ZM63.3107 28.2342C63.3107 28.2342 63.2801 28.2954 63.2648 28.3336H63.2725C63.2725 28.3336 63.326 28.3412 63.3566 28.3488C63.4025 28.3565 63.4637 28.3641 63.5096 28.3794C63.5096 28.3794 63.5173 28.3641 63.5249 28.3565C63.5326 28.3259 63.5479 28.2953 63.5555 28.2648C63.479 28.2342 63.4025 28.2113 63.326 28.1807C63.3184 28.2037 63.3107 28.2189 63.3107 28.2342ZM53.2523 37.5641C53.1223 37.61 53.0305 37.6405 52.9464 37.6711C52.9617 37.7017 52.9693 37.7322 52.9769 37.7628C52.9922 37.8163 53.0075 37.8621 53.0381 37.8698C53.1146 37.8927 53.2141 37.8545 53.2829 37.8086C53.2906 37.8086 53.2906 37.801 53.2982 37.801C53.3059 37.801 53.2982 37.7934 53.2982 37.7857C53.2982 37.7704 53.2982 37.7475 53.2829 37.7169C53.2753 37.6711 53.26 37.6176 53.2447 37.5641H53.2523ZM48.7394 37.4724C48.7394 37.4724 48.7012 37.4648 48.6782 37.4648C48.64 37.4495 48.6017 37.4342 48.5558 37.4342C48.5176 37.4342 48.4793 37.4342 48.4411 37.4495C48.2269 37.4877 48.0204 37.5336 47.8062 37.5718C47.9439 37.61 48.0816 37.6482 48.2193 37.6787C48.464 37.7475 48.7088 37.8086 48.9612 37.8774V37.8392C48.9689 37.7475 48.9536 37.6711 48.9153 37.61C48.8771 37.5488 48.8159 37.503 48.7394 37.4724ZM44.2112 30.0146C43.9052 30.1522 43.6834 30.2515 43.4769 30.3508C43.3928 30.389 43.3086 30.4272 43.2245 30.4655C43.1174 30.5113 43.0103 30.5571 42.9109 30.603C42.4443 30.8093 41.9853 31.0156 41.5187 31.2066C41.4423 31.2372 41.3428 31.2066 41.2434 31.1837C41.2204 31.1837 41.1898 31.1684 41.1669 31.1684C41.4117 30.9239 41.6411 30.6947 41.84 30.5037C41.8936 30.4578 41.9547 30.3967 42.0006 30.3508C41.9165 30.4043 41.8324 30.4654 41.7406 30.5266C41.4958 30.687 41.2204 30.8857 40.9298 31.0767C40.8915 31.1073 40.8533 31.1302 40.815 31.1608H40.7997C40.5167 31.3671 40.2414 31.5658 39.8742 31.8332C39.8742 31.8332 39.9201 31.8867 39.9431 31.9173C40.2873 32.3681 40.4861 32.5362 40.9145 32.8495C40.9374 32.8724 40.9604 32.8877 40.991 32.9106C41.6105 32.3834 42.2072 31.8256 42.8267 31.2601C43.278 30.8475 43.7293 30.4272 44.2188 30.0146H44.2112ZM53.2829 36.8688C53.2829 36.8688 53.2294 36.8993 53.2294 36.907C53.2523 37.0063 53.2829 37.1056 53.3288 37.1973C53.3288 37.1973 53.3517 37.1973 53.3594 37.1973C53.3976 37.1897 53.4588 37.1668 53.5124 37.1515C53.4818 37.0522 53.4512 36.9452 53.4129 36.8C53.3594 36.8306 53.3135 36.8535 53.2829 36.8764V36.8688ZM45.152 25.6668C44.7925 25.8578 44.4254 26.0412 44.0659 26.2322C44.0659 26.2322 44.0888 26.2704 44.0965 26.2934C44.456 26.0947 44.8155 25.9037 45.175 25.7126C45.175 25.7126 45.1597 25.6897 45.152 25.6821V25.6668ZM54.3997 36.1581C54.3997 36.1581 54.392 36.1276 54.392 36.1047C54.262 36.1429 54.1702 36.1581 54.0861 36.1887C54.109 36.2193 54.1243 36.2575 54.1396 36.288C54.1549 36.3033 54.1625 36.3262 54.1778 36.3262C54.2467 36.3339 54.3308 36.3033 54.3997 36.2728C54.415 36.2728 54.3997 36.2193 54.3997 36.1581ZM40.838 29.8542C41.3275 29.4415 41.8783 29.09 42.3831 28.6774C42.7426 28.387 43.0791 28.0661 43.3545 27.6764C43.2551 27.6076 43.1556 27.5465 43.0562 27.4777C43.0256 27.4548 42.9874 27.4319 42.9491 27.409C42.8726 27.3555 42.7885 27.302 42.6967 27.2409C42.8191 27.1415 42.9032 27.0651 42.9644 27.0116C42.7579 26.9658 42.5437 26.9123 42.3066 26.8512C42.146 26.813 41.97 26.7671 41.7788 26.7213C42.1154 26.4462 42.3372 26.2093 42.6049 26.0641C42.6126 26.0565 42.6202 26.0488 42.6279 26.0488C43.125 25.7738 43.6452 25.4528 44.1883 25.3688C44.6395 25.3 45.0602 25.2236 45.2285 24.8492C45.2362 24.8415 45.2362 24.8339 45.2438 24.8262C43.584 25.4452 41.8859 26.0794 40.0731 26.7518C40.1037 26.7595 40.1266 26.7595 40.1572 26.7595C40.3485 26.7595 40.532 26.6678 40.7156 26.5914C41.0981 26.4156 41.4423 26.2475 41.7406 26.8282C41.7406 26.8282 41.7406 26.8333 41.7406 26.8435C41.3734 27.1492 41.0904 27.493 40.7309 27.6841C40.6697 27.7146 40.6085 27.7375 40.5473 27.7681C39.9201 28.0814 39.2699 28.3412 38.6198 28.601H38.6121C38.5509 28.6239 38.4821 28.6239 38.4056 28.6163C38.3291 28.601 38.2526 28.5857 38.1838 28.5781H38.1761C38.1685 28.6239 38.1608 28.6545 38.1532 28.6927C38.1149 28.8684 38.0538 29.0595 38.1226 29.1741C38.2832 29.4874 38.4439 29.7548 38.5968 30.007C38.8569 30.4502 39.117 30.8552 39.4535 31.3518C39.5224 31.3748 39.5989 31.39 39.6677 31.4053C39.9354 30.7482 40.3638 30.2668 40.8456 29.8542H40.838ZM58.3848 38.3894V38.3741C58.3848 38.3741 58.4001 38.3512 58.4001 38.3435C58.3924 38.3435 58.3924 38.3435 58.3924 38.3282C58.3771 38.313 58.3389 38.29 58.3159 38.29C58.1247 38.3053 57.9335 38.313 57.7499 38.3435C57.6734 38.3588 57.6046 38.4199 57.4746 38.4887H57.4669C57.5281 38.6262 57.5663 38.7638 57.6352 38.8708C57.6887 38.9395 57.7423 38.9701 57.7958 38.9625C57.8417 38.9548 57.8876 38.9243 57.9335 38.8784C57.9335 38.8631 57.9564 38.8555 57.9717 38.8326C58.0865 38.695 58.2242 38.5728 58.3465 38.4352C58.3618 38.4199 58.3695 38.4047 58.3848 38.3894ZM61.5974 37.014C61.5974 37.014 61.5744 36.9834 61.5591 36.9757H61.5515C61.5515 36.9757 61.5362 36.9681 61.5285 36.9681C61.5132 36.9681 61.4903 36.9757 61.475 36.9834C61.4597 36.9834 61.452 36.9834 61.4367 36.991C61.3985 37.0063 61.3602 37.0292 61.3449 37.0522C61.3373 37.0522 61.3373 37.0904 61.3449 37.1133C61.3526 37.1591 61.3755 37.2126 61.4061 37.2355C61.4214 37.2432 61.4367 37.2508 61.4597 37.2508C61.4903 37.2508 61.5362 37.2508 61.5897 37.2355C61.6203 37.2355 61.6509 37.2279 61.6892 37.2279C61.6815 37.2126 61.6815 37.205 61.6739 37.1897C61.6433 37.1209 61.6203 37.0522 61.5974 37.014ZM58.8284 38.886C58.8284 38.886 58.8131 38.8784 58.8055 38.8708C58.7672 38.8326 58.729 38.802 58.6678 38.802C58.599 38.802 58.5148 38.8249 58.4001 38.8784C58.3695 38.8937 58.3389 38.9166 58.3083 38.9319C58.2701 38.9548 58.2318 38.9701 58.2012 39.0007C58.1477 39.0465 58.1171 39.1153 58.0712 39.1764C58.1094 39.1917 58.1477 39.2146 58.1859 39.2375C58.2089 39.2452 58.2318 39.2605 58.2548 39.2605H58.2624C58.3389 39.2681 58.4001 39.291 58.4307 39.3216C58.446 39.3522 58.4536 39.3904 58.446 39.4362C58.4383 39.4591 58.4383 39.4744 58.4307 39.4973C58.5378 39.5432 58.6525 39.612 58.7443 39.5126C58.7596 39.4973 58.7825 39.4897 58.7978 39.4668C58.8208 39.4133 58.8437 39.3598 58.859 39.3063C58.8743 39.2528 58.882 39.1993 58.882 39.1458C58.882 39.0541 58.8667 38.993 58.8514 38.9395C58.8514 38.9166 58.8361 38.9013 58.8284 38.886ZM60.5189 30.4655C60.5189 30.4655 60.5112 30.4654 60.5036 30.4502C60.4959 30.4349 60.4959 30.4272 60.4883 30.412C60.4806 30.4043 60.473 30.4043 60.4653 30.3967C60.4577 30.389 60.45 30.3738 60.4424 30.3661H60.4194C60.4194 30.3661 60.3888 30.3661 60.3735 30.3661C60.3659 30.3738 60.3582 30.3738 60.3506 30.3738C60.32 30.389 60.297 30.4043 60.2894 30.412V30.4349C60.2894 30.4349 60.297 30.5113 60.3123 30.5419C60.32 30.5495 60.32 30.5648 60.3276 30.5724C60.3506 30.5801 60.3812 30.5724 60.4194 30.5648C60.4577 30.5571 60.5036 30.5419 60.5571 30.5342C60.5495 30.5113 60.5342 30.496 60.5265 30.4807C60.5265 30.4731 60.5265 30.4655 60.5265 30.4578L60.5189 30.4655ZM57.1456 37.3196C57.0845 37.3502 57.0309 37.3807 57.0233 37.4189C57.0003 37.503 57.0539 37.6023 57.0768 37.7017C57.0768 37.694 57.0998 37.694 57.1227 37.6864C57.2068 37.6711 57.3063 37.6558 57.3292 37.61C57.3445 37.5718 57.3445 37.5259 57.3445 37.4801C57.3369 37.4266 57.3369 37.3654 57.3292 37.3043C57.2986 37.2967 57.268 37.2814 57.2374 37.2661C57.2068 37.289 57.1762 37.3043 57.1456 37.3196ZM58.1018 37.4113C58.0559 37.4419 58.0329 37.5565 58.0559 37.5947C58.1018 37.6635 58.1859 37.7017 58.2548 37.7475C58.2624 37.7475 58.2777 37.7399 58.3006 37.7246C58.3236 37.7093 58.3465 37.6864 58.3542 37.6711C58.3848 37.6023 58.4154 37.5336 58.446 37.4571C58.4766 37.3731 58.5148 37.2738 58.5607 37.1591C58.4154 37.2355 58.293 37.2967 58.1859 37.3578C58.163 37.3731 58.1247 37.3884 58.1018 37.4113ZM57.4134 36.9146C57.4746 36.9375 57.5357 36.9605 57.6046 36.991C57.6199 36.9681 57.6275 36.9452 57.6428 36.9223C57.6658 36.8841 57.6964 36.8382 57.7193 36.7847C57.7117 36.7694 57.704 36.7542 57.6887 36.7312C57.5893 36.7694 57.4899 36.8076 57.3828 36.8382C57.3981 36.8688 57.4057 36.8917 57.4134 36.9146ZM58.5072 35.501C58.4613 35.4781 58.4154 35.4399 58.3695 35.4169C58.2853 35.3635 58.2012 35.3253 58.1324 35.2641C58.1094 35.2412 58.1018 35.2106 58.0941 35.1801C57.5434 35.6003 56.8779 35.8907 56.1819 36.0359C56.2584 36.1123 56.3425 36.1887 56.419 36.2575C56.4649 36.2957 56.5031 36.3339 56.5184 36.3797C56.5337 36.4256 56.5261 36.4714 56.4955 36.5402C56.4878 36.5478 56.4955 36.5555 56.4955 36.5631C56.4802 36.6013 56.4878 36.6472 56.5031 36.6854C56.5031 36.7083 56.5184 36.7389 56.5337 36.7465C56.5643 36.7694 56.6102 36.7694 56.6561 36.7694C56.6638 36.7694 56.6791 36.7694 56.6944 36.7694C56.725 36.7694 56.7632 36.7618 56.7861 36.7542C56.8626 36.7389 56.9238 36.6777 56.9927 36.6472C57.008 36.6395 57.0233 36.6243 57.0386 36.6243C57.4516 36.586 57.7805 36.395 58.1018 36.1811C58.1553 36.1505 58.2165 36.1123 58.2701 36.0741C58.4842 35.9289 58.6066 35.7761 58.5301 35.5774C58.5225 35.5545 58.5225 35.5316 58.5072 35.5086V35.501ZM57.5893 39.0618C57.5893 39.0618 57.5357 39.0083 57.5204 38.9854L57.4669 38.9013L57.4516 38.8708C57.4516 38.8708 57.4057 38.8173 57.3904 38.7867C57.3675 38.7561 57.3445 38.7179 57.3216 38.6874C57.291 38.6492 57.268 38.6186 57.2451 38.588C57.1609 38.4811 57.0692 38.3817 56.8779 38.4047C56.8244 38.4047 56.7326 38.313 56.7326 38.2824C56.8397 38.0914 56.6867 37.992 56.5949 37.8621C56.5337 37.7704 56.4572 37.6787 56.419 37.5718C56.4037 37.5259 56.3884 37.4877 56.3731 37.4495C56.3196 37.3578 56.2584 37.3043 56.1666 37.2967C56.0901 37.2967 55.9907 37.3043 55.853 37.3578C55.853 37.3578 55.8606 37.3654 55.8606 37.3731C55.8683 37.3807 55.8759 37.3884 55.8836 37.396C55.8147 37.4648 55.7306 37.5794 55.6541 37.587C55.5776 37.587 55.5241 37.5641 55.4935 37.5259C55.4629 37.4801 55.4629 37.4113 55.4782 37.3349C55.4858 37.312 55.4705 37.289 55.4629 37.2585C55.4552 37.2432 55.4476 37.2355 55.4323 37.2203C55.417 37.205 55.4093 37.1897 55.394 37.1821H55.3864C55.3864 37.1821 55.3328 37.1668 55.3022 37.1668C55.2946 37.1668 55.2946 37.1744 55.2869 37.1744C55.2411 37.1744 55.1952 37.1821 55.1569 37.1973C55.0269 37.2814 54.9045 37.3807 54.7898 37.4801C54.7209 37.5412 54.6597 37.6176 54.6368 37.694C54.5756 37.9003 54.5297 38.1066 54.4838 38.313C54.4685 38.3741 54.4532 38.4352 54.4379 38.4887C54.3997 38.6339 54.3691 38.7791 54.3002 38.909C54.3002 38.909 54.2696 38.9701 54.2543 39.0007C54.7286 39.0771 55.2028 39.1535 55.6694 39.2223C55.8147 39.2452 55.9677 39.2681 56.113 39.291C56.6408 39.3674 57.1762 39.4362 57.704 39.4973H57.7117C57.6428 39.3751 57.5893 39.2452 57.5969 39.0847C57.5969 39.0771 57.5893 39.0694 57.5893 39.0618ZM56.4037 37.9156C56.396 37.9156 56.3884 37.9003 56.3807 37.8927C56.3807 37.8927 56.396 37.908 56.4037 37.908V37.9156ZM56.266 37.9767C56.2507 38.0532 56.2584 38.1372 56.2584 38.2136C56.2584 38.2213 56.2584 38.2365 56.2584 38.2442V38.2136C56.2584 38.1372 56.2584 38.0532 56.266 37.9767C56.266 37.9462 56.3272 37.908 56.3578 37.8774C56.3272 37.908 56.2737 37.9462 56.266 37.9767ZM56.3502 38.2671C56.3502 38.2671 56.3349 38.2671 56.3272 38.2671C56.3272 38.2671 56.3425 38.2671 56.3502 38.2671C56.3807 38.1754 56.419 38.0914 56.4343 38.0073C56.419 38.099 56.3807 38.1831 56.3502 38.2747V38.2671ZM61.1384 23.9781C61.1384 24.0316 61.1614 24.0774 61.169 24.1462H61.1767C61.1767 24.1462 61.2302 24.0851 61.2532 24.0545C61.2914 24.0086 61.345 23.9475 61.3908 23.9017C61.4138 23.8711 61.4367 23.8405 61.4673 23.8023C61.322 23.8252 61.2302 23.8405 61.1308 23.8558H61.1155C61.1155 23.8558 61.1308 23.9399 61.1384 23.9781ZM39.6371 13.5784C39.6371 13.5784 39.5606 13.6472 39.5453 13.7007V13.7159C39.5453 13.7159 39.5759 13.8 39.6065 13.8229C39.6142 13.8229 39.6218 13.8382 39.6295 13.8382C39.8207 13.8306 39.8742 13.7159 39.8972 13.5708C39.9048 13.5555 39.9048 13.5402 39.9048 13.5249H39.8819C39.8819 13.5249 39.8283 13.5173 39.8054 13.5173C39.7442 13.5173 39.6983 13.5326 39.6524 13.5631L39.6371 13.5784ZM59.7845 16.6196H59.7922C59.7922 16.6196 59.8152 16.6731 59.8304 16.6807C59.861 16.696 59.8916 16.7113 59.9146 16.7266C59.9911 16.7571 60.0676 16.7953 60.1441 16.803C60.1976 16.803 60.2435 16.803 60.297 16.8183C60.3659 16.8259 60.4347 16.8259 60.5036 16.8336C60.5571 16.8336 60.603 16.8336 60.6489 16.8412C60.8784 16.8565 61.039 16.6884 60.9396 16.5126C60.9243 16.4973 60.9166 16.4744 60.909 16.4591C60.886 16.4209 60.8554 16.3904 60.8325 16.3598C60.7789 16.291 60.7177 16.2223 60.6642 16.1458H60.6489C60.5953 16.1306 60.5342 16.1229 60.473 16.1229H60.4347C60.4347 16.1229 60.3659 16.1382 60.3276 16.1382C60.2817 16.1458 60.2358 16.1611 60.19 16.1764C60.1517 16.1917 60.1211 16.1993 60.0905 16.2146C60.0446 16.2452 60.0064 16.2681 59.9681 16.2987C59.9375 16.314 59.9146 16.3292 59.8916 16.3522C59.8381 16.4056 59.7999 16.4668 59.7769 16.5355C59.7769 16.5508 59.7845 16.5661 59.7845 16.589V16.6196ZM53.4359 8.32126C53.3823 8.48173 53.4359 8.57342 53.5353 8.65748C53.5583 8.6804 53.5812 8.69568 53.6118 8.71861C53.6501 8.74153 53.6883 8.77209 53.7189 8.8103C53.7342 8.81794 53.7495 8.83322 53.7495 8.84851C53.7801 8.91728 53.8183 8.96312 53.8642 9.00133C53.9178 9.03954 53.9713 9.06246 54.0402 9.08538C54.0784 9.09302 54.0937 9.10831 54.1166 9.12359C54.1319 9.13887 54.1472 9.13887 54.1625 9.15415C54.2314 9.12359 54.3002 9.10067 54.3691 9.0701C54.4609 9.03189 54.5603 8.99369 54.6521 8.95548C54.5909 8.43588 54.7133 7.90864 54.958 7.40432C54.9657 7.38904 54.9733 7.37375 54.981 7.35847C54.7974 7.38904 54.6215 7.4196 54.4379 7.45017C54.3844 7.45781 54.3232 7.47309 54.262 7.48073C54.2084 7.48837 54.1625 7.48837 54.1319 7.45781C53.8642 7.65648 53.5965 7.86279 53.3365 8.07674C53.3594 8.10731 53.39 8.14552 53.4129 8.19136C53.4359 8.23721 53.4512 8.28306 53.4359 8.32126ZM61.0925 16.0618C61.0925 16.0618 61.1308 16.0389 61.1308 16.0312C61.1384 15.993 61.1384 15.9548 61.1384 15.909V15.7332H61.1308C61.1308 15.7332 61.0619 15.7867 61.039 15.802C60.9931 15.8326 60.9549 15.8555 60.9549 15.8784C60.9549 15.9548 60.9854 16.0236 61.0084 16.1C61.0313 16.0847 61.0619 16.0771 61.0925 16.0618ZM65.659 31.5658C65.659 31.5658 65.5825 31.497 65.506 31.4741H65.4984C65.4219 31.4512 65.3148 31.4741 65.2459 31.4359C65.1159 31.3595 64.9859 31.3442 64.8482 31.3518C64.6876 31.3671 64.5269 31.4282 64.3663 31.5047C64.1751 31.604 64.0756 31.6269 63.9303 31.4588C63.8844 31.4053 63.8385 31.3748 63.785 31.3518C63.7697 31.3442 63.7544 31.3442 63.7314 31.3442C63.7085 31.3365 63.6855 31.3289 63.6626 31.3289C63.6549 31.3289 63.6473 31.3289 63.6396 31.3365C63.6014 31.3365 63.5632 31.3518 63.5326 31.3671C63.5096 31.3671 63.4943 31.3824 63.479 31.39C63.4255 31.4282 63.3872 31.4817 63.3643 31.5429C63.349 31.5811 63.3337 31.6116 63.326 31.6498C63.2495 31.8409 63.1731 32.0395 63.0813 32.2306C63.0507 32.307 62.9971 32.3834 62.9283 32.4369C62.7983 32.5362 62.7983 32.6356 62.89 32.7349C62.9436 32.8037 63.0124 32.8189 63.0889 32.8037C63.1348 32.8037 63.1884 32.7884 63.2419 32.7502C63.3107 32.6967 63.3872 32.6508 63.4561 32.5973C63.5249 32.5515 63.5938 32.5133 63.6473 32.4674C63.7238 32.4063 63.7926 32.3375 63.8615 32.2611L64.0068 32.1159C63.9915 32.2153 63.9762 32.3223 63.9609 32.4292C63.9456 32.5439 63.9762 32.6126 64.1139 32.6126C64.4275 32.6126 64.7335 32.5973 65.0012 32.4522C65.0777 32.4063 65.1465 32.3452 65.2153 32.2841C65.2306 32.2688 65.2383 32.2688 65.2536 32.2535C65.3836 32.1083 65.4984 31.9555 65.6207 31.8027C65.6513 31.7645 65.659 31.7262 65.6743 31.6957C65.6743 31.688 65.6819 31.6804 65.6819 31.6728C65.6819 31.6498 65.6743 31.6346 65.6666 31.6116C65.6666 31.5963 65.6666 31.5811 65.659 31.5658ZM62.3546 22.0754C62.4388 22.0831 62.5535 21.999 62.6223 21.9226C62.6223 21.915 62.6376 21.8844 62.6376 21.8615C62.6453 21.8233 62.6376 21.7927 62.63 21.7621C62.63 21.7468 62.63 21.7316 62.6147 21.7239C62.5535 21.6322 62.4541 21.5711 62.3546 21.4794H62.0257C61.9492 21.4794 61.8727 21.4794 61.7962 21.4794C61.7733 21.4794 61.7121 21.594 61.7121 21.6475V21.6704C61.7503 21.7239 61.7886 21.7774 61.8345 21.8233C61.9645 21.9608 62.1404 22.0525 62.3546 22.0678V22.0754ZM61.8804 21.3113C61.8804 21.3113 61.8345 21.2425 61.8115 21.212C61.8115 21.212 61.8039 21.2043 61.7962 21.1967C61.7809 21.1738 61.7656 21.1508 61.7427 21.1432H61.7198C61.7198 21.1432 61.6815 21.1432 61.6586 21.1432C61.6586 21.1432 61.6535 21.1457 61.6433 21.1508C61.6433 21.1508 61.6203 21.1585 61.6127 21.1585C61.5974 21.1661 61.5744 21.1738 61.5515 21.1814C61.5821 21.2425 61.5974 21.3189 61.6509 21.3495C61.6662 21.3648 61.7045 21.3495 61.7503 21.3342C61.7886 21.3342 61.8268 21.3113 61.8804 21.3037V21.3113ZM62.3546 20.5777C62.3546 20.5777 62.3317 20.4784 62.3164 20.4555C62.3087 20.4555 62.3087 20.4478 62.3087 20.4478C62.2016 20.4631 62.0946 20.486 61.9339 20.5166C61.9416 20.5319 61.9492 20.5395 61.9569 20.5472C61.9951 20.6236 62.0257 20.6771 62.041 20.6847C62.1481 20.6618 62.2552 20.6236 62.3546 20.5777ZM29.5175 14.4113H9.74482V15.7256H29.5175V14.4113ZM39.094 11.9814C39.1552 11.9967 39.2164 12.012 39.2623 12.0425C39.3464 12.096 39.4076 12.1189 39.4688 12.1037C39.4841 12.096 39.4994 12.0807 39.5147 12.0731C39.53 12.0654 39.5453 12.0578 39.5606 12.0425C39.5759 12.0272 39.5836 12.0043 39.5989 11.989C39.6218 11.9661 39.6371 11.9432 39.66 11.9126C39.66 11.9126 39.6524 11.8897 39.6447 11.8821C39.6447 11.8744 39.6371 11.8744 39.6371 11.8668C39.6371 11.8591 39.6371 11.8515 39.6218 11.8439C39.6142 11.8286 39.6142 11.8209 39.6065 11.8133C39.5912 11.7904 39.5759 11.7674 39.553 11.7674C39.4688 11.7598 39.377 11.7598 39.2929 11.7598C39.1782 11.7598 39.0634 11.7674 38.9487 11.7674C38.9334 11.7674 38.9257 11.7751 38.9181 11.7751C38.9181 11.7751 38.8569 11.8515 38.8263 11.8744C38.8645 11.8973 38.9028 11.9279 38.9487 11.9432C39.0022 11.9661 39.0558 11.9738 39.1017 11.9814H39.094ZM29.5175 23.4967H9.74482V24.811H29.5175V23.4967ZM29.5175 32.5821H9.74482V33.8963H29.5175V32.5821ZM71.9694 19.9512C71.9694 19.9512 71.9235 19.9053 71.8853 19.8977V0H0V46H71.8853V20.2492C71.9388 20.2186 72 20.1116 72 20.0505V20.0352C72 20.0352 71.9847 19.9741 71.9694 19.9512ZM69.2693 6.47209C69.2693 6.47209 69.2464 6.44917 69.2311 6.44917C69.2005 6.43389 69.1622 6.43389 69.1163 6.42625C69.0857 6.35748 69.0628 6.31163 69.0398 6.25814C69.0245 6.21229 69.0016 6.1588 68.9863 6.11296C68.9557 6.04419 68.9175 5.97542 68.8945 5.90664C68.6727 5.96777 68.4432 6.02126 68.2137 6.08239C68.2443 6.15116 68.252 6.22757 68.2749 6.29635C68.3744 6.57143 68.4203 6.85415 68.4279 7.15216C68.4279 7.22857 68.4432 7.31262 68.4356 7.39668C68.4738 7.39668 68.5121 7.37376 68.5503 7.36611C68.6574 7.33555 68.7645 7.29734 68.8716 7.21329C69.0551 7.06811 69.2005 6.95349 69.2617 6.74718C69.2693 6.72425 69.2693 6.71661 69.277 6.70133V43.3867H2.61596V2.60565H69.2693V6.47209ZM60.2282 17.4296C60.1594 17.4372 59.9987 17.5213 59.8151 17.613C59.4098 17.8269 58.859 18.1478 58.7137 18.186C58.1324 18.3159 57.551 18.4382 56.9697 18.5605C56.5031 18.6522 56.0365 18.7515 55.57 18.8508C55.7535 18.8738 55.9448 18.8814 56.1283 18.889C56.4725 18.8967 56.8167 18.8967 57.1456 18.9578C57.2298 18.9731 57.3063 19.0724 57.3751 19.1947C57.3828 19.21 57.3981 19.2329 57.4134 19.2558C57.4746 19.3781 57.5357 19.5156 57.6046 19.6226C57.5969 19.6226 57.5893 19.6226 57.5816 19.6302C57.88 19.699 58.1553 19.7601 58.4307 19.8289C58.599 19.8671 58.7596 19.9053 58.9279 19.9435C58.9202 20.0429 58.9126 20.1346 58.9049 20.2339C58.7596 20.2415 58.6219 20.2492 58.4766 20.2568C58.4154 20.2645 58.3542 20.2645 58.3006 20.2721C58.293 20.2721 58.2853 20.2721 58.2853 20.2797C58.0865 20.4173 57.9411 20.5243 57.8111 20.6083C57.8111 20.6159 57.8035 20.6159 57.8035 20.6159L58.2777 20.6542C58.3312 20.7229 58.3924 20.7993 58.4536 20.8681C58.1477 20.9904 57.8494 21.1203 57.551 21.2425C57.551 21.2425 57.551 21.2425 57.551 21.2578C57.5587 21.2731 57.5816 21.3113 57.6581 21.4336C57.6428 21.4488 57.6275 21.4794 57.5969 21.5176C57.5816 21.5482 57.5587 21.5787 57.5281 21.594C57.3828 21.6628 57.2298 21.7163 57.0921 21.7851C57.0386 21.8156 56.985 21.8538 56.9391 21.892C56.9238 21.9073 56.9009 21.915 56.8856 21.9226C56.8244 21.9837 56.7632 22.0525 56.7097 22.1442C56.6638 22.2206 56.6102 22.2817 56.5337 22.3352C56.3196 22.488 55.9907 22.5262 55.7459 22.2741C55.7459 22.2817 55.7382 22.2817 55.7382 22.2894C55.3099 22.6027 54.8968 22.9083 54.5679 23.1605C54.5603 23.1605 54.5526 23.1605 54.5526 23.1681C54.5526 23.1681 54.675 23.2751 54.9045 23.4661C54.4379 23.6419 54.0861 23.7718 53.7418 23.9017C54.3461 23.8558 54.6903 23.8253 54.8968 23.8253C55.1034 23.8253 55.1646 23.8558 55.2181 23.9169C55.2334 23.9399 55.2487 23.9628 55.264 23.9857C53.6577 24.6352 52.0514 25.2924 50.4451 25.9495C50.5905 25.9189 50.7281 25.8731 50.8735 25.8425C51.8831 25.6056 52.8775 25.3229 53.8566 24.9944C54.2314 24.8721 54.5985 24.7193 54.9657 24.5894C55.5623 24.3907 56.1589 24.2532 56.832 24.3831C57.0386 24.4213 57.2833 24.406 57.5128 24.3449C57.6505 24.3143 57.7882 24.2608 57.9029 24.1997C58.599 23.7947 59.0655 23.6724 59.6316 23.703C59.6928 24.1844 59.7157 24.6658 59.731 25.1472C59.6086 25.1625 59.4862 25.1777 59.3639 25.2007C59.1267 25.2312 58.8896 25.2618 58.6525 25.3C58.4077 25.3306 58.163 25.3688 57.9258 25.4146C57.2757 25.514 56.6561 25.6286 56.1207 25.7126C56.136 25.7203 56.1666 25.7355 56.1895 25.7508C56.2048 25.7585 56.2201 25.7661 56.2354 25.7814C56.1054 25.9037 55.983 26.0183 55.8453 26.1482H55.8224C55.8224 26.1482 55.8224 26.1558 55.8147 26.1558C55.8147 26.1558 55.8122 26.1609 55.8071 26.1711C55.7688 26.1864 55.7382 26.2093 55.7229 26.2169C55.7382 26.2246 55.7841 26.2475 55.8224 26.2628C55.8224 26.2704 55.83 26.2704 55.83 26.2704L55.8453 26.2857C55.8836 26.3163 55.9065 26.3545 55.9371 26.385C56.0824 26.5684 56.0442 26.6983 55.9295 26.7977C55.8453 26.8741 55.7229 26.9352 55.6082 26.9963C54.7133 27.4701 53.7877 27.8751 52.9234 28.3947C52.2656 28.792 51.669 29.2887 51.0265 29.7166C50.8964 29.8007 50.774 29.8924 50.6364 29.9688C50.3304 30.1522 50.0168 30.3203 49.7108 30.5037C48.5788 31.1532 47.4467 31.795 46.2994 32.4292C45.9705 32.6126 45.6416 32.796 45.3127 32.9718C45.2744 32.9947 45.2285 33.0023 45.1903 33.01C45.1061 33.0252 45.0143 33.0329 44.9226 33.0329C44.8537 33.0253 44.7849 33.0253 44.7237 33.0329C44.7237 33.0176 44.716 33.0023 44.716 32.9947C44.7084 32.9641 44.7084 32.9336 44.7007 32.903C44.2188 33.2086 43.714 33.5296 43.1862 33.8658C43.018 33.9728 42.8573 34.0797 42.6738 34.1867C43.9282 34.8973 45.1826 35.394 46.4294 35.6997C46.4753 35.906 46.5212 36.1123 46.5518 36.3186C46.5518 36.3492 46.5518 36.3874 46.5518 36.4179C46.5594 36.4944 46.5671 36.5708 46.5671 36.6395H46.5747C46.8577 36.6472 47.1561 36.6472 47.4467 36.6548C47.5232 36.6548 47.5615 36.6319 47.5844 36.5937C47.5997 36.5555 47.6073 36.5096 47.6073 36.4561V35.9365C47.9745 35.99 48.3493 36.013 48.7241 36.0359V36.0817C48.7929 36.395 49.053 36.4638 49.2136 36.6625C49.3284 36.6777 49.4431 36.693 49.5578 36.7007C49.6037 36.7083 49.6573 36.7159 49.7032 36.7159C49.7261 36.7083 49.7567 36.693 49.7873 36.6701C49.795 36.6625 49.8026 36.6625 49.8103 36.6548C49.8103 36.6548 49.8128 36.6523 49.8179 36.6472C49.8179 36.6472 49.8791 36.586 49.8868 36.5631C49.8868 36.5631 49.8868 36.5478 49.8868 36.5402C49.9403 36.3874 49.9556 36.2269 50.0015 36.0664C50.0091 36.0512 50.0015 36.0359 50.0091 36.0206C50.5828 35.9748 51.1488 35.8907 51.7225 35.7608C52.8087 35.5163 53.8948 35.1113 54.9733 34.5458C56.8091 33.5754 58.3312 32.1389 59.448 30.4884C59.448 30.6106 59.4327 30.7405 59.4327 30.8628C59.4862 30.8934 59.5398 30.9163 59.601 30.9468C59.6163 30.9545 59.6392 30.9621 59.6545 30.9774C59.6928 30.9927 59.7387 30.9927 59.7769 31.008C59.861 31.0385 59.9452 31.0767 60.0293 31.092C60.1058 31.0997 60.1823 31.092 60.2664 31.0844C60.2894 31.0844 60.3123 31.0844 60.3353 31.0844C60.3353 31.0767 60.3353 31.0615 60.3276 31.0462C60.32 30.985 60.3123 30.9392 60.2894 30.8857C60.2817 30.8704 60.2817 30.8475 60.2664 30.8322C60.1747 30.7252 60.0446 30.6488 59.9452 30.5495C59.9452 30.5495 59.9426 30.547 59.9375 30.5419C59.9375 30.5419 59.9146 30.4884 59.9069 30.4578V30.4349C59.9069 30.4349 59.9069 30.3585 59.9222 30.3432C59.9528 30.2973 59.9681 30.2591 59.9834 30.2209C59.9911 30.2133 59.9987 30.2133 59.9987 30.2056V30.1904C60.0446 30.0605 60.037 29.9306 60.0217 29.7854C60.0217 29.7243 60.0217 29.6555 60.0217 29.5944V29.5714C60.167 29.304 60.3047 29.0365 60.4347 28.7615H60.4424C60.4883 28.8608 60.5265 28.9601 60.5494 29.0595C60.5494 29.0671 60.5495 29.0824 60.5648 29.0977C60.58 29.1512 60.5877 29.2123 60.58 29.2658C60.5724 29.2811 60.5801 29.2963 60.5724 29.3116C60.4806 29.5103 60.5265 29.686 60.6259 29.8312C60.7177 29.9458 60.8631 30.0681 61.0084 30.091C61.039 30.091 61.0772 30.0605 61.1155 30.0146C61.1843 29.9458 61.2532 29.8389 61.3144 29.7701C61.4291 29.6249 61.5285 29.4645 61.6586 29.3193C61.758 29.2047 61.7809 29.1282 61.7044 29.0518C61.6815 29.0213 61.6509 28.9983 61.6127 28.9678C61.4597 28.8684 61.322 28.7462 61.2073 28.6468C61.2991 28.5169 61.4138 28.4176 61.4673 28.3183H61.475C61.4903 28.2801 61.5056 28.2495 61.5132 28.2189C61.5285 28.0814 61.4061 27.9439 61.3373 27.7834C61.3373 27.7834 61.3424 27.7808 61.3526 27.7757C61.4061 27.7605 61.475 27.7528 61.5285 27.7223C61.605 27.6688 61.6739 27.5924 61.7427 27.5312C61.7121 27.5083 61.6815 27.4854 61.6509 27.4625C61.6203 27.4395 61.5821 27.4166 61.5438 27.409C61.3755 27.3708 61.3067 27.2867 61.2991 27.1874C61.4597 27.088 61.5897 27.004 61.7198 26.9276C61.6433 26.8282 61.5821 26.706 61.4826 26.6449C61.4291 26.6066 61.3832 26.599 61.3449 26.6066C61.2761 26.6143 61.2302 26.6754 61.1843 26.7289C61.2685 26.4233 61.3373 26.11 61.3908 25.8043C61.4367 25.812 61.4826 25.8272 61.5362 25.8502C61.5744 25.8654 61.6203 25.8884 61.6662 25.896C61.888 25.9342 62.194 25.7432 62.347 25.5063C62.4158 25.3993 62.4617 25.2771 62.4311 25.1701C62.3623 24.8874 62.2093 24.6123 62.0104 24.3983C61.9033 24.2837 61.8345 24.192 61.8115 24.0468C61.8115 24.0086 61.7809 23.9781 61.758 23.9246C61.758 23.9246 61.7554 23.922 61.7503 23.9169C61.7503 23.9169 61.7121 23.8711 61.6968 23.8329C61.6662 23.9169 61.6433 23.9857 61.6203 24.0468C61.5974 24.1156 61.5744 24.1767 61.5668 24.2073C61.3679 24.2226 61.2226 24.2455 61.0772 24.2455C60.909 24.2455 60.7483 24.2455 60.5953 24.215C60.5877 24.215 60.5801 24.215 60.5724 24.192C60.5495 24.1462 60.5418 24.0621 60.5571 24.0239C60.58 23.9628 60.5877 23.9093 60.58 23.8558C60.58 23.8482 60.5877 23.8329 60.5877 23.8253C60.9319 23.81 60.9625 23.4126 61.5515 23.3057C61.5821 23.3209 61.6127 23.3362 61.6509 23.3439C61.7274 23.3439 61.8345 23.3591 61.8727 23.405C61.9339 23.4814 61.9798 23.5654 62.0334 23.6495C62.0869 23.7336 62.1404 23.8253 62.2016 23.9017C62.2628 23.9857 62.3852 24.0545 62.4923 24.0621C62.5458 24.0698 62.6606 23.9399 62.6912 23.8558C62.7447 23.703 62.7447 23.5578 62.6759 23.4203C62.6529 23.3821 62.6147 23.3362 62.5764 23.2904C62.4693 23.1757 62.4235 23.0153 62.5688 22.8548C62.6147 22.809 62.6453 22.7631 62.6606 22.7249H62.6682C62.6835 22.6867 62.6835 22.6561 62.6606 22.6256C62.6376 22.5874 62.5917 22.5568 62.5076 22.5262C62.4617 22.5033 62.4082 22.4957 62.3546 22.4957H62.3317C62.2781 22.4957 62.2169 22.511 62.1557 22.5339C62.1404 22.5415 62.1251 22.5492 62.1098 22.5568C62.0487 22.5874 61.9875 22.6256 61.9416 22.6714C61.9416 22.6714 61.9365 22.6765 61.9263 22.6867C61.888 22.7249 61.8574 22.7631 61.8268 22.8013C61.7656 22.8701 61.7044 22.9389 61.6433 23.0153C61.6356 23.0076 61.6356 23 61.6356 22.9924C61.6203 22.3658 61.5591 21.7698 61.452 21.1661C61.3908 20.7764 61.3067 20.3714 61.2149 19.9588C61.322 19.9894 61.4367 20.0123 61.5438 19.997C61.6509 19.9817 61.758 19.9512 61.8651 19.9282C61.9722 19.8977 62.0716 19.8824 62.171 19.8595C62.2016 19.8518 62.2246 19.8442 62.2552 19.8365C62.347 19.8213 62.4388 19.8289 62.4999 19.8824C62.5229 19.9053 62.5382 19.9282 62.5535 19.9588C62.5764 20.0199 62.607 20.0505 62.63 20.0734C62.7141 20.1498 62.8136 20.0811 62.9283 19.9894C63.0354 19.8824 63.1578 19.7907 63.2801 19.699C63.2878 19.6914 63.3031 19.6761 63.3107 19.6684C63.3413 19.6837 63.3566 19.6914 63.3796 19.7066C63.3872 19.7066 63.4025 19.7143 63.4102 19.7219C63.3872 19.8748 63.3643 20.0352 63.3413 20.1957C63.3337 20.2492 63.326 20.3027 63.326 20.3638C63.3643 20.3561 63.4025 20.3409 63.4484 20.3332C63.4714 20.3332 63.4943 20.3256 63.5173 20.3179C63.5479 20.3103 63.5708 20.295 63.5938 20.2797C63.6702 20.2415 63.7391 20.2033 63.8232 20.1804C63.8538 20.1728 63.8844 20.1804 63.9227 20.1957C63.9456 20.211 63.9762 20.2186 63.9991 20.2262C63.9762 20.2797 63.9456 20.3256 63.915 20.3714C63.8921 20.4096 63.8615 20.4478 63.8309 20.4784C63.8003 20.5166 63.785 20.5472 63.762 20.5777C63.7391 20.6083 63.7161 20.6389 63.7085 20.6694C63.7085 20.6847 63.7008 20.7 63.7008 20.7153C63.7008 20.7917 63.7467 20.8757 63.7697 20.9598C63.8079 20.9292 63.8538 20.9063 63.8997 20.8757C63.915 20.8757 63.938 20.8452 63.9533 20.8375C63.9915 20.807 64.0221 20.7841 64.045 20.7535C64.1521 20.6159 64.221 20.4478 64.3051 20.2874C64.3128 20.2721 64.3204 20.2492 64.3204 20.2339C64.3434 20.0429 64.3663 19.8595 64.3663 19.6761V19.5767C64.3587 19.4927 64.3663 19.4239 64.3816 19.3704C64.4351 19.2023 64.5881 19.1718 64.7794 19.1488C64.8864 19.1336 64.9782 19.0724 65.0624 18.996C65.223 18.8355 65.3148 18.6063 65.2077 18.4306C65.2 18.4153 65.1924 18.4076 65.1771 18.3924C65.1542 18.3465 65.1236 18.3083 65.1159 18.2625C65.07 17.7963 64.6723 17.4449 64.6876 16.9558V16.9405C64.6876 16.9405 64.6723 16.9253 64.6646 16.9176C64.6646 16.91 64.657 16.91 64.657 16.9023C64.6493 16.8947 64.6417 16.8947 64.6417 16.8947C64.5958 16.8412 64.5499 16.8106 64.504 16.7801C64.4887 16.7724 64.4657 16.7648 64.4428 16.7571C64.4122 16.7495 64.374 16.7419 64.3357 16.7342C64.3357 16.7342 64.3128 16.7266 64.3051 16.7266C64.2898 16.7266 64.2745 16.7342 64.2669 16.7342C64.1904 16.7419 64.1139 16.7571 64.0297 16.7801C63.938 16.8183 63.8385 16.8565 63.7467 16.887C63.6396 16.9252 63.5326 16.9635 63.4178 16.9711H63.3643C63.2954 16.9711 63.2343 16.9635 63.1654 16.9405C63.1425 16.9329 63.1042 16.9482 63.066 16.9558C63.0201 16.9558 62.9895 16.9635 62.9436 16.9864C62.9053 17.0017 62.8595 17.0246 62.8289 17.0475C62.7677 17.1086 62.7141 17.1316 62.6606 17.1468C62.607 17.1545 62.5535 17.1468 62.4846 17.1163H62.477C62.4235 17.101 62.3699 17.1086 62.3164 17.101C62.1328 17.101 61.9645 17.1774 61.8651 17.3226C61.8192 17.3914 61.7886 17.4678 61.7733 17.5518C61.7733 17.613 61.758 17.6817 61.7198 17.7123C61.6509 17.7734 61.6127 17.8346 61.5897 17.888C61.5209 18.0638 61.5897 18.2472 61.6127 18.4153C61.6127 18.4993 61.6127 18.5605 61.605 18.6216C61.5897 18.6827 61.5591 18.7439 61.4979 18.805C61.4826 18.8203 61.4673 18.8432 61.452 18.8585C61.4061 18.9196 61.3526 18.9807 61.322 19.0419C61.3144 19.0495 61.3067 19.0648 61.3067 19.0724C61.2914 19.103 61.2838 19.1336 61.2838 19.1641C61.2914 19.294 61.2455 19.401 61.192 19.5003C61.1767 19.5233 61.1614 19.5538 61.1384 19.5767C61.1384 19.5615 61.1384 19.5462 61.1384 19.5309C60.8707 18.7821 60.6412 18.0332 60.2282 17.4372V17.4296ZM53.107 30.6718C52.9464 30.7558 52.7934 30.8399 52.6404 30.9239C52.801 30.8399 52.954 30.7558 53.1146 30.6718H53.107ZM54.8127 29.5791C54.8127 29.5791 54.7362 29.5256 54.698 29.5256C54.6444 29.5256 54.5909 29.5485 54.5373 29.5714C53.7954 29.8924 52.9693 30.114 52.5486 30.8322C52.5333 30.8169 52.5257 30.8017 52.518 30.794C53.3059 28.9983 54.8662 28.3565 56.3578 27.6153C56.5184 27.5389 56.6791 27.4625 56.8397 27.3784C57.1456 27.2179 57.4287 27.1339 57.6046 27.7757C56.6791 28.3718 55.7459 28.9754 54.8127 29.5791ZM54.4685 16.3369C54.7286 16.3369 54.9886 16.3369 55.2487 16.3292C55.3175 16.3292 55.4093 16.2605 55.4629 16.1917C55.4858 16.1611 55.5011 16.1306 55.5011 16.1076C55.5011 16.0771 55.5011 16.0465 55.4858 16.0083C55.4705 15.9625 55.4399 15.9166 55.4093 15.8784C54.8357 15.9854 54.2696 16.1458 53.6883 16.3369H54.4685ZM30.3512 18.0256C30.3512 18.0256 30.4201 18.0179 30.466 18.0103C30.4736 18.0027 30.4813 18.0027 30.4889 18.0027C30.5271 18.0027 30.573 17.9874 30.6342 17.9797C30.596 17.888 30.5807 17.8116 30.5501 17.7658C30.5501 17.7658 30.5271 17.7276 30.5195 17.7123H30.4812C30.4812 17.7123 30.4277 17.7199 30.3971 17.7276C30.3895 17.7276 30.3895 17.7352 30.3818 17.7352C30.3512 17.7429 30.3283 17.7581 30.3283 17.7658V17.8346C30.3283 17.8804 30.3359 17.9186 30.3359 17.9568C30.3436 17.9797 30.3436 18.0027 30.3512 18.0256ZM49.9632 16.6578C49.9479 16.505 50.0397 16.4133 50.1774 16.3369C50.231 16.314 50.2845 16.291 50.3457 16.2681C50.3839 16.2528 50.4298 16.2452 50.4757 16.2299C50.667 16.1764 50.8505 16.1229 51.0418 16.0771C51.1488 16.0694 51.2636 16.0847 51.3707 16.1C51.5542 16.1229 51.7455 16.1611 51.929 16.1841V16.1382C51.9367 16.0924 51.9367 16.0542 51.9443 16.0083C51.8908 16.0083 51.8372 15.993 51.7837 15.9854C51.7149 15.9777 51.646 15.9625 51.5848 15.9625L51.5695 15.9701H51.4854C51.3401 16.0083 51.1947 16.0389 51.0494 16.0694H51.0418C51.0418 16.0694 50.9576 16.0771 50.9194 16.0847C49.9938 16.2375 49.0683 16.4056 48.1428 16.5661C46.613 16.8336 45.0755 17.101 43.5457 17.3684C43.4616 17.3837 43.3698 17.3761 43.278 17.3684C43.2474 17.3684 43.2168 17.3608 43.1862 17.3608C43.1174 17.3532 43.0485 17.3379 42.9797 17.3379V17.2997C42.9797 17.2385 42.9797 17.1851 42.9797 17.1316C43.125 17.0704 43.278 17.0093 43.4234 16.9405C43.5534 16.887 43.6834 16.8336 43.8134 16.7801C44.02 16.696 44.2188 16.6043 44.4177 16.5279C44.4177 16.5279 44.4177 16.5254 44.4177 16.5203C44.2647 16.5432 44.1041 16.5661 43.9435 16.589C43.7599 16.612 43.5687 16.6349 43.3775 16.6578C43.3775 16.6425 43.3698 16.6349 43.3698 16.6196C43.3545 16.5585 43.3392 16.4897 43.3239 16.4209C43.4157 16.3522 43.5075 16.2757 43.5993 16.207C43.6528 16.1688 43.6987 16.1306 43.7599 16.1076C45.4962 15.4047 47.332 15.1372 49.1677 14.9309C51.9367 14.6252 54.7056 14.7781 57.4669 14.9538C57.5204 14.9615 57.5663 14.9615 57.6122 14.9615C57.7117 14.9615 57.8111 14.9615 57.9029 14.992C57.9564 15.0073 58.0023 15.0379 58.0406 15.0837C58.0865 15.1219 58.1247 15.1678 58.1706 15.206C58.0865 15.3053 58.01 15.4658 57.9105 15.4887C57.551 15.5728 57.1839 15.6339 56.8167 15.6492C56.1283 15.6721 55.4476 15.6492 54.6062 15.6492C54.958 15.7256 55.1569 15.7409 55.3328 15.8173C55.3634 15.8249 55.3864 15.8478 55.4093 15.8784C55.7459 15.8096 56.0901 15.7561 56.4266 15.7256C57.0845 15.6721 57.7423 15.6874 58.4154 15.7027C58.4154 15.7256 58.4383 15.7561 58.446 15.7791C58.5225 16.0159 58.5684 16.2528 58.599 16.4744V16.505C58.6219 16.7342 58.6219 16.9482 58.599 17.1621C58.6831 17.208 58.7672 17.2615 58.8437 17.3073C59.0579 17.4296 59.2032 17.3837 59.3333 17.1698C59.3639 17.1316 59.3715 17.0934 59.3945 17.0552C59.5474 16.7495 59.5398 16.4821 59.4021 16.2681C59.3103 16.1306 59.165 16.0159 58.9967 15.9243C58.9126 15.8784 58.8284 15.8402 58.729 15.8096C58.6907 15.7944 58.6449 15.7791 58.599 15.7638C58.5454 15.7485 58.5148 15.7256 58.4766 15.7027C58.7137 15.7027 58.9508 15.7027 59.1956 15.7027C58.9585 15.397 58.7137 15.099 58.4689 14.8239C58.4689 14.7934 58.4536 14.7628 58.4383 14.7399C58.423 14.7017 58.4689 14.6329 58.4842 14.5718C58.5148 14.5794 58.5301 14.5794 58.5531 14.587C58.5684 14.587 58.5837 14.5947 58.599 14.6023C58.6984 14.61 58.7978 14.6253 58.9049 14.6405C58.8973 14.5412 58.9049 14.4342 58.8896 14.3272C58.8896 14.289 58.8743 14.2508 58.859 14.2126C58.8437 14.1591 58.8437 14.1056 58.8361 14.0522C58.8361 14.0216 58.8208 13.9834 58.8361 13.9528C58.8437 13.9299 58.8437 13.907 58.8514 13.8841C58.859 13.8688 58.859 13.8535 58.8667 13.8382C58.8667 13.8 58.8667 13.7694 58.8514 13.7465C58.8361 13.7312 58.8055 13.7159 58.7749 13.7007C58.7596 13.7007 58.7596 13.6854 58.7443 13.6854C58.7137 13.6777 58.6831 13.6777 58.6602 13.6777C58.6296 13.6777 58.6066 13.693 58.576 13.7007C58.5607 13.7083 58.5378 13.7083 58.5225 13.7159C58.4766 13.7465 58.4307 13.7924 58.3924 13.8535C58.3465 13.9299 58.2853 14.0063 58.2318 14.0751C58.1936 14.1209 58.1553 14.1744 58.1171 14.2279C58.0941 14.2738 58.0635 14.3272 58.0482 14.3807C56.5643 12.8449 54.8357 11.7522 52.7934 11.1791C52.6251 11.1332 52.4645 11.0797 52.2962 11.0415C52.0208 10.9804 51.7531 10.9269 51.4777 10.8811C50.8658 10.7741 50.2463 10.7206 49.6343 10.7053C49.5349 10.6977 49.4278 10.69 49.3284 10.69H49.2366C48.4564 10.6977 47.6838 10.7817 46.9189 10.9269C45.9475 11.1179 44.9837 11.4083 44.0429 11.8209C42.0542 12.7073 40.2414 14.2432 38.9104 16.2146C38.7116 16.5126 38.528 16.8106 38.3521 17.1239C37.4495 18.7362 36.8529 20.5777 36.7075 22.5721V22.595C43.2704 19.187 44.6013 18.591 50.0474 16.887C49.9938 16.7953 49.9709 16.7189 49.9632 16.6502V16.6578ZM36.7917 24.7116C36.8146 24.9103 36.8376 25.1319 36.8682 25.407C36.8835 25.4146 36.8988 25.4146 36.9064 25.4146C36.9141 25.4146 36.9141 25.4146 36.9217 25.407C36.9294 25.407 36.937 25.407 36.9447 25.407C36.9523 25.407 36.9599 25.407 36.9752 25.407H36.9829C38.7345 24.001 40.3638 22.4193 42.429 21.4259C42.3907 21.4106 42.3601 21.3954 42.3219 21.3801C42.276 21.3571 42.2225 21.3419 42.1766 21.3342C42.1613 21.3342 42.1383 21.3266 42.123 21.3266C42.123 21.3266 42.1001 21.3342 42.0924 21.3342C42.0695 21.3342 42.0465 21.3342 42.0236 21.3342C41.5417 21.5176 41.0369 21.6704 40.5932 21.9302C40.2949 22.0983 40.0731 22.1289 39.9048 21.9837L39.836 21.915C39.7901 21.8538 39.7442 21.7851 39.7059 21.6934C39.4918 21.8462 39.2852 21.999 39.0787 22.1442H39.0558C39.0558 22.1442 39.0175 22.1595 38.9946 22.1748C38.9869 22.1824 38.9793 22.19 38.9716 22.1977C38.9563 22.213 38.941 22.2282 38.9257 22.2512C38.9181 22.2588 38.9104 22.2588 38.9104 22.2664H38.9028C38.7498 22.3811 38.6198 22.4804 38.4744 22.5797C38.4897 22.6027 38.5586 22.6867 38.5815 22.7402C38.5892 22.7631 38.5892 22.7784 38.5892 22.786C38.3215 23.1987 37.9314 23.1452 37.526 23.0611C37.503 23.0535 37.4801 23.0458 37.4571 23.0458C37.4265 23.0382 37.3883 23.0306 37.3577 23.0306C37.1359 22.9847 36.9217 22.9465 36.7152 22.9924C36.7152 23.191 36.6999 23.3515 36.6999 23.5043C36.6999 23.6801 36.7075 23.8558 36.7228 24.0545C36.7381 24.2379 36.7611 24.4442 36.7917 24.704V24.7116ZM38.9104 22.6103C38.9104 22.6103 38.9104 22.6103 38.9028 22.6103H38.9104ZM67.9537 19.508C67.9537 19.508 67.9154 19.5233 67.9001 19.5385C67.8925 19.5462 67.8848 19.5538 67.8848 19.5615C67.8848 19.6073 67.8848 19.6684 67.9001 19.7219C67.9001 19.7601 67.9078 19.7983 67.9307 19.806C67.9919 19.8365 68.0302 19.9053 68.0837 19.9588C68.0837 19.9588 68.0914 19.9588 68.0914 19.9664H68.099C68.1526 20.0199 68.2137 20.0429 68.3208 19.9894C68.4509 19.913 68.5809 19.8289 68.6803 19.7219C68.7262 19.6761 68.7186 19.5767 68.7339 19.5156C68.5962 19.5156 68.4662 19.5156 68.3514 19.508H67.9537ZM67.1582 20.0429L67.1199 20.1728C67.2347 20.1957 67.3571 20.2186 67.4718 20.2415H67.4947C67.51 20.1957 67.5253 20.1498 67.5483 20.104C67.4183 20.0658 67.2959 20.0276 67.1735 19.997L67.1582 20.0429ZM67.6783 16.0465C67.6783 16.0465 67.6477 16.0236 67.6171 16.0159C67.6171 16.0159 67.6069 16.0109 67.5865 16.0007C67.5865 16.0007 67.533 15.9854 67.5024 15.9854H67.4947C67.4947 15.9854 67.4641 15.9854 67.4565 15.9854C67.3877 16.0236 67.3035 16.0847 67.25 16.1458C67.2194 16.1764 67.1888 16.2146 67.1888 16.2452C67.1811 16.314 67.1964 16.3827 67.2041 16.4515C67.2194 16.5126 67.2347 16.5661 67.2576 16.6196C67.2806 16.6578 67.2882 16.7037 67.3112 16.7419C67.3418 16.7877 67.3876 16.803 67.4335 16.803C67.5177 16.8106 67.6095 16.7419 67.686 16.589C67.686 16.5355 67.6936 16.4668 67.6936 16.398V16.2834C67.6936 16.207 67.686 16.1306 67.6783 16.0465ZM68.6574 24.299C68.6574 24.299 68.5885 24.2761 68.558 24.2761H68.5503C68.5503 24.2761 68.535 24.2761 68.5274 24.2761C68.4968 24.2837 68.4738 24.2914 68.4509 24.3066C68.4356 24.3066 68.4279 24.3143 68.4203 24.3219C68.3897 24.3449 68.3667 24.3754 68.3438 24.4213C68.2443 24.5894 68.1984 24.7269 68.2061 24.8415C68.2137 24.8568 68.2214 24.8645 68.2214 24.8797C68.2443 24.9638 68.2979 25.0326 68.3973 25.0784C68.4815 25.1166 68.5732 25.1166 68.6574 25.0937C68.7492 25.0631 68.8257 25.0096 68.8792 24.9103C68.971 24.7575 68.9633 24.6047 68.8869 24.4824C68.841 24.406 68.7721 24.3525 68.6803 24.3066C68.6727 24.299 68.665 24.299 68.6574 24.299ZM68.0072 15.3817C68.0072 15.3817 68.0378 15.3741 68.0378 15.3664C68.0455 15.3664 68.0455 15.3512 68.0455 15.3435V15.313C68.0455 15.313 68.0531 15.29 68.0531 15.2748C68.0455 15.2289 68.0378 15.1831 68.0378 15.1296C67.9919 15.1525 67.9537 15.1678 67.9154 15.1831C67.8848 15.1907 67.8695 15.206 67.8542 15.2213C67.8466 15.2289 67.8313 15.2289 67.8313 15.2365C67.8236 15.2518 67.8236 15.2595 67.8236 15.2748C67.8236 15.3206 67.8466 15.3741 67.8619 15.4276C67.8695 15.4199 67.8925 15.4199 67.9078 15.4123C67.946 15.4123 67.9843 15.397 68.0072 15.3817ZM66.2633 24.3296C66.2633 24.3296 66.225 24.299 66.1944 24.299C66.1944 24.299 66.1944 24.299 66.1868 24.299H66.1791C65.9649 24.3525 65.7355 24.406 65.5289 24.4824C65.506 24.49 65.4754 24.5282 65.4601 24.5741C65.4448 24.6123 65.4372 24.6658 65.4448 24.6887C65.4678 24.7804 65.506 24.8645 65.5443 24.9485C65.5672 25.002 65.5978 25.0631 65.6284 25.1243C65.6743 25.2312 65.7278 25.3306 65.8349 25.3458C65.8808 25.3458 65.9267 25.3382 65.9802 25.3076C66.1791 25.2236 66.3015 24.9714 66.2021 24.8339C66.1179 24.7116 66.1026 24.6199 66.2633 24.49C66.2633 24.4595 66.2785 24.3983 66.2633 24.3449V24.3296ZM66.5539 19.9817C66.5539 19.9817 66.5692 19.9512 66.5692 19.9282C66.5692 19.8824 66.5616 19.8289 66.5616 19.7525C66.5004 19.7907 66.4621 19.8136 66.4162 19.8365C66.3856 19.8518 66.355 19.8671 66.3321 19.8824C66.3015 19.9053 66.2633 19.9206 66.2403 19.9435C66.2403 19.9435 66.2403 19.9741 66.248 19.9817C66.2556 20.0199 66.2785 20.0658 66.2938 20.104C66.3627 20.0734 66.4162 20.0505 66.4774 20.0199C66.5004 20.0047 66.531 19.997 66.5539 19.9817ZM66.378 26.7671C66.378 26.7671 66.3627 26.7824 66.3627 26.79C66.3474 26.8053 66.3321 26.8206 66.3321 26.8206C66.4009 26.897 66.4698 26.9505 66.5463 27.0193C66.5769 26.9887 66.6075 26.9581 66.6381 26.9352C66.5692 26.8588 66.5004 26.79 66.4239 26.7213C66.4009 26.7365 66.3933 26.7442 66.378 26.7671ZM67.4183 27.7757C67.4183 27.7757 67.3571 27.7605 67.3265 27.7605C67.3112 27.7605 67.3035 27.7605 67.2959 27.7681H67.2423C67.2423 27.7681 67.1735 27.7834 67.1429 27.7987C67.1199 27.8063 67.1046 27.8063 67.0893 27.814C67.0511 27.8292 67.0282 27.8445 66.9976 27.8674C66.9823 27.8674 66.9593 27.8827 66.9517 27.898C66.9211 27.9209 66.9058 27.9439 66.8828 27.9668C66.8752 27.9744 66.8599 27.9821 66.8599 27.9973C66.7834 28.1272 66.8522 28.2648 67.0129 28.3565C67.0282 28.3641 67.0434 28.3794 67.0664 28.387H67.0817C67.1735 28.4253 67.2576 28.41 67.3188 28.3641C67.3418 28.3488 67.3724 28.3412 67.3877 28.3183H67.3953C67.4259 28.2571 67.4335 28.2113 67.4565 28.1578C67.4718 28.112 67.5024 28.0585 67.51 28.0279C67.5177 28.005 67.51 27.9897 67.51 27.9744C67.51 27.9209 67.5177 27.8674 67.4947 27.8369C67.4794 27.8063 67.4565 27.7834 67.4183 27.7757ZM66.4315 16.4133C66.508 16.3751 66.6075 16.3598 66.6686 16.314C66.6916 16.2834 66.661 16.1993 66.6457 16.0771V16.0618C66.5233 16.1458 66.4392 16.1841 66.3856 16.2452C66.378 16.2528 66.378 16.2605 66.378 16.2681C66.378 16.3063 66.4086 16.3674 66.4239 16.4133H66.4315ZM57.5281 20.5854C57.5434 20.6465 57.5587 20.7076 57.5816 20.7611C57.6581 20.7153 57.727 20.6618 57.8111 20.6007H57.7193C57.6581 20.593 57.5893 20.593 57.5281 20.5854ZM63.7238 16.5432C63.7238 16.5432 63.785 16.5432 63.8156 16.5355C63.8921 16.5279 63.9762 16.5126 64.0527 16.505C64.0527 16.505 64.0374 16.4362 64.0374 16.398C64.0297 16.3598 64.0221 16.3216 64.0145 16.2681C63.8691 16.314 63.7697 16.3445 63.6626 16.3751H63.6549C63.6549 16.3751 63.6855 16.4668 63.7008 16.505C63.7085 16.5203 63.7161 16.5432 63.7238 16.5432ZM63.785 15.9472C63.8538 15.9395 63.938 15.9166 63.9991 15.8708C64.0145 15.8631 64.0145 15.8402 64.0145 15.8173C64.0145 15.7714 64.0068 15.7179 64.0068 15.6415H63.9991C63.9074 15.695 63.8385 15.7256 63.7926 15.7638C63.7697 15.7791 63.7391 15.7867 63.7238 15.802C63.7085 15.8173 63.7391 15.9013 63.762 15.9319C63.7697 15.9395 63.7773 15.9472 63.785 15.9472ZM57.6275 20.0658L57.6122 20.295C57.7729 20.2874 57.9411 20.2721 58.1094 20.2645C58.1706 20.2645 58.2395 20.2568 58.3083 20.2568C58.3159 20.2492 58.3236 20.2415 58.3312 20.2339C57.9947 20.1498 57.8111 20.104 57.6275 20.0658ZM66.6763 20.9904C66.6992 21.1203 66.8063 21.1738 66.9517 21.1203C66.967 21.1126 66.9746 21.1126 66.9823 21.1126C67.0664 21.0744 67.1505 21.0591 67.227 21.0209C67.2959 20.9904 67.38 20.9522 67.4335 20.914C67.4641 20.8987 67.4794 20.8757 67.4871 20.8605C67.5024 20.7458 67.4259 20.6312 67.403 20.5625C67.3571 20.5395 67.2959 20.5319 67.2423 20.5319C67.227 20.5319 67.2117 20.5395 67.1964 20.5395C67.1658 20.5395 67.1429 20.5472 67.1199 20.5548C67.0664 20.5548 67.0205 20.5777 66.9746 20.6007C66.944 20.6159 66.9211 20.6236 66.8981 20.6389C66.8522 20.6694 66.8216 20.7 66.7834 20.7306C66.7681 20.7535 66.7528 20.7611 66.7375 20.7764C66.6992 20.8299 66.6686 20.891 66.6686 20.9445C66.6686 20.9598 66.6763 20.9751 66.6763 20.9904ZM67.0664 10.4532H67.4947C67.6018 10.4455 67.7013 10.4302 67.8083 10.4149C67.8619 10.4149 67.9154 10.4073 67.9613 10.4073C68.0378 10.415 68.1296 10.4914 68.1449 10.5525C68.1525 10.5754 68.1602 10.5907 68.1679 10.606C68.2214 10.7282 68.3208 10.7359 68.4585 10.6748C68.5885 10.6213 68.6497 10.5372 68.6344 10.4379C68.6268 10.4073 68.6115 10.3691 68.5885 10.3309H68.5809C68.5809 10.3309 68.5656 10.2927 68.558 10.2851C68.5197 10.2239 68.4815 10.1704 68.4432 10.1246C68.4356 10.1169 68.4279 10.1093 68.4203 10.1017C68.3897 10.0711 68.3514 10.0405 68.3055 10.01C68.2826 9.99469 68.252 9.98704 68.2214 9.97176C68.1832 9.94884 68.1449 9.93356 68.1067 9.91827C68.0684 9.90299 68.0455 9.89535 68.0072 9.88771C67.969 9.87243 67.9231 9.86478 67.8848 9.85714C67.8542 9.8495 67.8313 9.8495 67.8007 9.84186H67.7625C67.7625 9.84186 67.686 9.8495 67.6554 9.85714C67.4259 9.97176 67.2194 10.1093 67.0052 10.2392C67.0205 10.2927 67.0434 10.3385 67.0587 10.392C67.0664 10.415 67.0741 10.4379 67.0741 10.4532H67.0664ZM57.5663 19.6302C57.5663 19.6302 57.574 19.6302 57.574 19.6379V19.6226C57.574 19.6226 57.5816 19.615 57.5893 19.615C57.5816 19.6073 57.574 19.6073 57.5587 19.6073C57.5587 19.615 57.5587 19.6226 57.5587 19.6302H57.5663ZM66.3856 18.3924C66.3856 18.3924 66.4162 18.3847 66.4315 18.3694C66.4468 18.3542 66.4621 18.3312 66.4698 18.3159C66.5692 18.1478 66.5998 17.9874 66.5616 17.8422C66.5463 17.7963 66.531 17.7505 66.5004 17.7047C66.4927 17.6894 66.4774 17.6741 66.4621 17.6588C66.4086 17.59 66.3397 17.5289 66.2403 17.4754C66.2403 17.4754 66.2327 17.4754 66.2327 17.4678H66.225C66.1638 17.4372 66.1026 17.4219 66.0414 17.4143C66.0338 17.4143 66.0261 17.4143 66.0185 17.4143C66.0032 17.4143 65.9955 17.4296 65.9802 17.4296C65.942 17.4372 65.8961 17.4449 65.8579 17.4678C65.8426 17.4754 65.8273 17.4907 65.8043 17.4983C65.7508 17.5442 65.7049 17.5977 65.659 17.6741C65.6513 17.7123 65.6054 17.7887 65.6054 17.8575H65.5978V17.8728C65.6131 18.0179 65.5978 18.2625 65.6896 18.3007C65.8885 18.3924 66.1485 18.3771 66.3856 18.4V18.3924ZM65.4831 19.5003C65.4831 19.5003 65.5136 19.4851 65.5289 19.4774C65.5289 19.3781 65.5366 19.294 65.5366 19.2023C65.5366 19.1565 65.5366 19.1183 65.5289 19.0724C65.5289 19.0724 65.5264 19.0699 65.5213 19.0648C65.5213 19.0648 65.4448 19.0113 65.4066 18.9807C65.4066 18.996 65.3913 19.0189 65.3836 19.0419C65.3683 19.0724 65.3607 19.1106 65.3683 19.1259C65.3913 19.1565 65.3913 19.1718 65.3913 19.1947C65.4066 19.2405 65.3989 19.2787 65.3683 19.3246C65.353 19.3399 65.353 19.3552 65.3301 19.3704C65.3148 19.3934 65.3148 19.4316 65.3301 19.4774C65.3301 19.5003 65.3377 19.5309 65.3377 19.5538C65.3836 19.5385 65.4295 19.5156 65.4831 19.5003Z" fill="url(#paint0_linear_106_73)"/>
<defs>
<linearGradient id="paint0_linear_106_73" x1="33.3" y1="0" x2="33.3" y2="46" gradientUnits="userSpaceOnUse">
<stop stop-color="#EB4716"/>
<stop offset="1" stop-color="#FDF29F"/>
</linearGradient>
</defs>
</svg>
