<svg width="14" height="14" viewBox="0 0 14 14" fill="none" xmlns="http://www.w3.org/2000/svg">
<path fill-rule="evenodd" clip-rule="evenodd" d="M0.161145 1.23711C0.17345 1.18653 0.187805 1.13799 0.204211 1.0922C0.304702 0.818086 0.522087 0.630107 0.808515 0.570626L3.47189 0.0176087C3.86428 -0.0637357 4.24983 0.142702 4.40023 0.513875L5.52134 3.28509C5.65328 3.61047 5.57193 3.96592 5.31147 4.20176L4.29768 5.1198C4.01535 5.37545 3.96545 5.76646 4.12336 6.11303C4.80559 7.61006 6.38948 9.19591 7.88733 9.87681C8.23393 10.0347 8.62494 9.98482 8.87993 9.7025L9.79802 8.68876C10.0339 8.429 10.3893 8.34766 10.7147 8.47891L13.4861 9.59995C13.8573 9.75034 14.0637 10.1359 13.9824 10.5282L13.4293 13.1915C13.3699 13.4779 13.1826 13.6953 12.9077 13.7958C12.8619 13.8122 12.8141 13.8265 12.7628 13.8388C6.84141 15.2442 -1.24431 7.15892 0.161145 1.23711Z" fill="#6A1314"/>
</svg>
