<svg width="89" height="68" viewBox="0 0 89 68" fill="none" xmlns="http://www.w3.org/2000/svg">
<path d="M66.6743 67.76C70.2912 59.1347 71.2657 49.6298 69.4743 40.45C63.4843 40.01 50.7843 48.91 45.5143 53.07V67.76H66.6743Z" fill="#6A1314"/>
<path d="M62.4343 0H25.6043C28.1543 4.32 31.4643 14.01 22.8343 28.26C22.5543 28.72 22.3043 29.19 22.0643 29.67C26.3243 31.91 34.9643 35.83 44.0143 36.22C53.0643 35.83 61.7043 31.91 65.9643 29.67C65.7243 29.19 65.4743 28.72 65.1943 28.26C56.5643 14 59.8843 4.32 62.4343 0ZM44.6843 25.48H43.3443C42.9465 25.48 42.5649 25.322 42.2836 25.0407C42.0023 24.7594 41.8443 24.3778 41.8443 23.98C41.8443 23.5822 42.0023 23.2006 42.2836 22.9193C42.5649 22.638 42.9465 22.48 43.3443 22.48H44.6843C45.0821 22.48 45.4636 22.638 45.7449 22.9193C46.0262 23.2006 46.1843 23.5822 46.1843 23.98C46.1843 24.3778 46.0262 24.7594 45.7449 25.0407C45.4636 25.322 45.0821 25.48 44.6843 25.48Z" fill="#6A1314"/>
<path d="M67.1243 32.45C62.5443 34.83 53.5643 38.82 44.0743 39.22H43.9543C34.4643 38.82 25.4843 34.83 20.9043 32.45C20.8643 32.58 20.8143 32.71 20.7743 32.84L19.3743 37.47C27.3343 37.88 40.1743 47.43 44.0143 50.43C47.8543 47.43 60.6943 37.88 68.6643 37.47L67.2543 32.84C67.2143 32.71 67.1643 32.58 67.1243 32.45Z" fill="#6A1314"/>
<path d="M21.3643 67.76H42.5143V53.06C37.2343 48.91 24.5443 40.02 18.5643 40.45C16.7662 49.6295 17.7409 59.1364 21.3643 67.76Z" fill="#6A1314"/>
<path d="M70.9803 14.11C75.1503 13.893 82.1423 13.234 87.0803 11.233C87.2653 11.1607 87.4341 11.0525 87.5769 10.9145C87.7197 10.7765 87.8337 10.6115 87.9122 10.4291C87.9908 10.2467 88.0323 10.0505 88.0345 9.85191C88.0366 9.65333 87.9993 9.4563 87.9247 9.27225C87.85 9.0882 87.7396 8.9208 87.5998 8.77976C87.46 8.63872 87.2936 8.52685 87.1102 8.45064C86.9268 8.37443 86.7301 8.33539 86.5315 8.3358C86.3329 8.3362 86.1364 8.37604 85.9533 8.453C81.5993 10.219 75.2313 10.853 71.2213 11.086L72.9423 9.366C73.2237 9.08381 73.3814 8.70139 73.3809 8.30288C73.3803 7.90436 73.2215 7.52239 72.9393 7.241C72.6571 6.9596 72.2747 6.80183 71.8762 6.8024C71.4776 6.80296 71.0957 6.96181 70.8143 7.244L66.4013 11.657C66.2618 11.797 66.1513 11.9632 66.0763 12.146C66.0763 12.155 66.0763 12.164 66.0683 12.172C65.9993 12.3451 65.9633 12.5296 65.9623 12.716C65.9632 12.9034 65.9995 13.089 66.0693 13.263L66.0753 13.285C66.1508 13.4681 66.2616 13.6346 66.4013 13.775L70.9203 18.294C71.2044 18.5569 71.5791 18.6998 71.9662 18.6928C72.3532 18.6858 72.7225 18.5295 72.9969 18.2564C73.2714 17.9834 73.4296 17.6149 73.4386 17.2279C73.4476 16.841 73.3067 16.4655 73.0453 16.18L70.9803 14.11Z" fill="#6A1314"/>
<path d="M21.6233 13.78C21.763 13.6396 21.8737 13.4731 21.9493 13.29L21.9553 13.268C22.0251 13.094 22.0614 12.9084 22.0623 12.721C22.0612 12.5346 22.0252 12.3501 21.9563 12.177C21.9563 12.169 21.9563 12.16 21.9483 12.151C21.8732 11.9682 21.7628 11.802 21.6233 11.662L17.2143 7.244C16.9329 6.9626 16.5512 6.80452 16.1533 6.80452C15.7553 6.80452 15.3737 6.9626 15.0923 7.244C14.8109 7.52539 14.6528 7.90705 14.6528 8.305C14.6528 8.70295 14.8109 9.0846 15.0923 9.366L16.8133 11.086C12.8033 10.856 6.43527 10.219 2.08127 8.453C1.89819 8.37604 1.70165 8.3362 1.50306 8.3358C1.30446 8.33539 1.10776 8.37443 0.924371 8.45064C0.74098 8.52685 0.574548 8.63872 0.434732 8.77976C0.294916 8.9208 0.184499 9.0882 0.109886 9.27225C0.0352743 9.4563 -0.00204749 9.65333 8.66157e-05 9.85191C0.00222072 10.0505 0.0437683 10.2467 0.122319 10.4291C0.200869 10.6115 0.314858 10.7765 0.457673 10.9145C0.600488 11.0525 0.769285 11.1607 0.954272 11.233C5.88927 13.233 12.8813 13.893 17.0543 14.11L14.9833 16.18C14.71 16.4629 14.5588 16.8418 14.5623 17.2351C14.5657 17.6284 14.7234 18.0046 15.0015 18.2827C15.2797 18.5608 15.6559 18.7186 16.0492 18.722C16.4425 18.7254 16.8214 18.5742 17.1043 18.301L21.6233 13.78Z" fill="#6A1314"/>
</svg>
