<svg width="59" height="89" viewBox="0 0 59 89" fill="none" xmlns="http://www.w3.org/2000/svg">
<path d="M29.5 0C26.6394 0 24.047 1.59263 22.6167 4.12211C17.3424 13.3032 0 44.4063 0 58.0842C0 75.1347 13.2303 89 29.5 89C45.7697 89 59 75.1347 59 58.0842C59 44.4063 41.747 13.3032 36.3833 4.02842C34.953 1.59263 32.3606 0 29.5 0ZM23.6894 43.1884C23.6 43.2821 15.5545 56.96 21.4545 66.2347C22.7061 68.2021 22.1697 70.8253 20.3818 72.0432C19.6667 72.5116 18.9515 72.7926 18.147 72.7926C16.8955 72.7926 15.5545 72.1368 14.8394 70.9189C5.98939 57.1474 16.4485 39.4411 16.8955 38.6916C18.0576 36.7242 20.5606 36.1621 22.4379 37.38C24.3151 38.5979 24.8515 41.2211 23.6894 43.1884Z" fill="#6A1314"/>
</svg>
