<svg width="14" height="12" viewBox="0 0 14 12" fill="none" xmlns="http://www.w3.org/2000/svg">
<path d="M1.93227 0C0.960091 0 0.159796 0.781783 0.0213577 1.80739C-0.00233848 1.98112 0.129512 2.12479 0.28932 2.12479H11.9985C12.1583 2.12479 12.2902 1.98113 12.2665 1.80739C12.1279 0.781714 11.3277 0 10.3556 0H1.93227ZM3.6433 2.73691C2.5733 2.73691 1.71108 3.68442 1.71108 4.8611V9.87513C1.71108 11.0518 2.57267 12 3.6433 12H12.0678C13.1378 12 14 11.0525 14 9.87513V4.8611C14 3.68442 13.1384 2.73691 12.0678 2.73691H3.6433ZM0.289834 4.46083L0.289226 4.46016C0.129432 4.46016 0 4.60248 0 4.77822V7.1383C0 8.11252 0.589994 8.9291 1.39993 9.18158V4.86033C1.39993 4.72402 1.41026 4.59039 1.42971 4.46009L0.289834 4.46083ZM4.57223 4.47954C5.16586 4.47954 5.6477 5.00876 5.6477 5.66224C5.6477 6.31507 5.16647 6.84495 4.57223 6.84495C3.97799 6.84495 3.49675 6.31573 3.49675 5.66224C3.49675 5.00876 3.97799 4.47954 4.57223 4.47954ZM6.84774 9.43626H11.8405C12.0471 9.43626 12.2136 9.61934 12.2136 9.84652C12.2136 10.0737 12.0471 10.2568 11.8405 10.2568H6.84774C6.64116 10.2568 6.47468 10.0737 6.47468 9.84652C6.47468 9.61934 6.64116 9.43626 6.84774 9.43626Z" fill="#6A1314"/>
</svg>
