<svg width="15" height="18" viewBox="0 0 15 18" fill="none" xmlns="http://www.w3.org/2000/svg">
<path fill-rule="evenodd" clip-rule="evenodd" d="M0.00696033 3.899V3.90039C-0.133767 9.96026 1.85001 14.7662 6.82034 17.8046L6.82169 17.8053C7.23504 18.0569 7.74696 18.0653 8.16778 17.8269L8.16914 17.8255C12.7771 15.1996 15.1178 10.6082 14.9954 3.90597C14.9846 3.31466 14.6134 2.79396 14.0675 2.60594C11.9837 1.88533 9.9748 1.08015 8.08076 0.139362C7.72181 -0.0395685 7.30234 -0.0465636 6.93591 0.120485C4.92833 1.0396 2.98127 1.90629 0.935623 2.61083C0.394468 2.79465 0.0219168 3.31049 0.00696033 3.899ZM3.62168 8.8091L6.34105 11.6049C6.60618 11.8782 7.0372 11.8782 7.30234 11.6049L12.0612 6.71226C12.3264 6.43967 12.3264 5.99654 12.0612 5.72395C11.7961 5.45136 11.3651 5.45136 11.0999 5.72395L6.82169 10.1224L4.58298 7.82079C4.31784 7.5482 3.88682 7.5482 3.62168 7.82079C3.35654 8.09338 3.35654 8.53651 3.62168 8.8091Z" fill="#6A1314"/>
</svg>
