<svg width="52" height="25" viewBox="0 0 52 25" fill="none" xmlns="http://www.w3.org/2000/svg">
<path d="M18.4333 22.1816L5.98144 14.0395H11.9919C12.8389 14.0395 13.5224 13.3535 13.5224 12.5036C13.5224 11.6536 12.8389 10.9676 11.9919 10.9676H6.79869L17.891 2.77332C18.5745 2.27376 18.7157 1.31192 18.2179 0.62596C17.7201 -0.060002 16.7617 -0.201667 16.0782 0.297892L0.624739 11.7132C0.223544 12.0114 -0.0142012 12.4886 0.000657833 12.9957C0.0155169 13.4952 0.275551 13.965 0.691605 14.2408L16.7691 24.7539C17.0292 24.9254 17.3189 25 17.6012 25C18.099 25 18.5894 24.7539 18.8865 24.3066C19.3472 23.5983 19.1466 22.6439 18.4408 22.1816H18.4333Z" fill="#FEC14B"/>
<path d="M50.4695 10.9676H43.3446C42.4976 10.9676 41.8141 11.6536 41.8141 12.5036C41.8141 13.3535 42.4976 14.0395 43.3446 14.0395H50.4695C51.3165 14.0395 52 13.3535 52 12.5036C52 11.6536 51.3165 10.9676 50.4695 10.9676Z" fill="#FEC14B"/>
<path d="M24.9862 10.9676H17.3412C16.4942 10.9676 15.8107 11.6536 15.8107 12.5036C15.8107 13.3535 16.4942 14.0395 17.3412 14.0395H24.9862C25.8332 14.0395 26.5167 13.3535 26.5167 12.5036C26.5167 11.6536 25.8332 10.9676 24.9862 10.9676Z" fill="#FEC14B"/>
<path d="M37.9879 10.9676H30.3429C29.4959 10.9676 28.8124 11.6536 28.8124 12.5036C28.8124 13.3535 29.4959 14.0395 30.3429 14.0395H37.9879C38.8349 14.0395 39.5184 13.3535 39.5184 12.5036C39.5184 11.6536 38.8349 10.9676 37.9879 10.9676Z" fill="#FEC14B"/>
</svg>
