<svg width="254" height="846" viewBox="0 0 254 846" fill="none" xmlns="http://www.w3.org/2000/svg">
<path d="M186.207 571.197C189.251 571.197 191.719 568.492 191.719 565.155C191.719 561.818 189.251 559.113 186.207 559.113C183.163 559.113 180.695 561.818 180.695 565.155C180.695 568.492 183.163 571.197 186.207 571.197Z" fill="#FBC8C3"/>
<path d="M82.5898 510.51C85.634 510.51 88.102 507.805 88.102 504.468C88.102 501.131 85.634 498.426 82.5898 498.426C79.5455 498.426 77.0776 501.131 77.0776 504.468C77.0776 507.805 79.5455 510.51 82.5898 510.51Z" fill="#F59AA6"/>
<path d="M208.309 44.9449C211.353 44.9449 213.821 42.2398 213.821 38.9028C213.821 35.5658 211.353 32.8606 208.309 32.8606C205.265 32.8606 202.797 35.5658 202.797 38.9028C202.797 42.2398 205.265 44.9449 208.309 44.9449Z" fill="url(#paint0_linear_4_1843)"/>
<path d="M163.523 613.121C166.568 613.121 169.036 610.416 169.036 607.079C169.036 603.742 166.568 601.037 163.523 601.037C160.479 601.037 158.011 603.742 158.011 607.079C158.011 610.416 160.479 613.121 163.523 613.121Z" fill="#F48074"/>
<path d="M100.769 203.79C99.6563 205.01 99.6563 206.971 100.769 208.19C101.882 209.409 103.684 209.409 104.797 208.19C105.91 206.971 105.91 205.01 104.797 203.79C103.684 202.571 101.882 202.571 100.769 203.79Z" fill="url(#paint1_linear_4_1843)"/>
<path d="M238.573 12.0843C241.617 12.0843 244.085 9.37917 244.085 6.04217C244.085 2.70517 241.617 0 238.573 0C235.528 0 233.061 2.70517 233.061 6.04217C233.061 9.37917 235.528 12.0843 238.573 12.0843Z" fill="#F59AA6"/>
<path d="M210.27 197.642C215.334 197.642 219.439 193.158 219.439 187.625C219.439 182.093 215.334 177.608 210.27 177.608C205.206 177.608 201.101 182.093 201.101 187.625C201.101 193.158 205.206 197.642 210.27 197.642Z" fill="url(#paint2_linear_4_1843)"/>
<path d="M178.575 232.623C183.639 232.623 187.744 228.138 187.744 222.606C187.744 217.074 183.639 212.589 178.575 212.589C173.511 212.589 169.406 217.074 169.406 222.606C169.406 228.138 173.511 232.623 178.575 232.623Z" fill="#FBC8C3"/>
<path d="M222.99 471.13C228.054 471.13 232.159 466.645 232.159 461.113C232.159 455.58 228.054 451.095 222.99 451.095C217.926 451.095 213.821 455.58 213.821 461.113C213.821 466.645 217.926 471.13 222.99 471.13Z" fill="url(#paint3_linear_4_1843)"/>
<path d="M231.63 579.465C236.694 579.465 240.799 574.98 240.799 569.448C240.799 563.916 236.694 559.431 231.63 559.431C226.566 559.431 222.46 563.916 222.46 569.448C222.46 574.98 226.566 579.465 231.63 579.465Z" fill="#F48074"/>
<path d="M121.44 591.709C120.327 592.928 120.327 594.889 121.44 596.108C122.553 597.327 124.355 597.327 125.468 596.108C126.581 594.889 126.581 592.928 125.468 591.709C124.355 590.49 122.553 590.49 121.44 591.709Z" fill="url(#paint4_linear_4_1843)"/>
<path d="M204.864 398.2C203.751 399.419 203.751 401.38 204.864 402.599C205.977 403.818 207.779 403.818 208.892 402.599C210.005 401.38 210.005 399.419 208.892 398.2C207.779 396.981 205.977 396.981 204.864 398.2Z" fill="#FBC8C3"/>
<path d="M138.93 487.985C137.816 489.204 137.816 491.165 138.93 492.384C140.043 493.603 141.845 493.603 142.958 492.384C144.071 491.165 144.071 489.204 142.958 487.985C141.845 486.766 140.043 486.766 138.93 487.985Z" fill="#FBC8C3"/>
<path d="M86.0877 681.599C84.9747 682.818 84.9747 684.779 86.0877 685.998C87.2007 687.217 89.0028 687.217 90.1159 685.998C91.2289 684.779 91.2289 682.818 90.1159 681.599C89.0028 680.38 87.2007 680.38 86.0877 681.599Z" fill="url(#paint5_linear_4_1843)"/>
<path d="M77.1829 332.372C76.0699 333.591 76.0699 335.552 77.1829 336.771C78.2959 337.99 80.098 337.99 81.211 336.771C82.324 335.552 82.324 333.591 81.211 332.372C80.098 331.153 78.2959 331.153 77.1829 332.372Z" fill="#F59AA6"/>
<path d="M52.3787 169.022C51.2657 170.241 51.2657 172.202 52.3787 173.421C53.4918 174.64 55.2939 174.64 56.4069 173.421C57.5199 172.202 57.5199 170.241 56.4069 169.022C55.2939 167.803 53.4918 167.803 52.3787 169.022Z" fill="#F59AA6"/>
<path d="M119.955 378.854C118.842 380.073 118.842 382.034 119.955 383.253C121.068 384.472 122.871 384.472 123.984 383.253C125.097 382.034 125.097 380.073 123.984 378.854C122.871 377.635 121.068 377.635 119.955 378.854Z" fill="url(#paint6_linear_4_1843)"/>
<path d="M194.9 578.723C193.787 579.942 193.787 581.903 194.9 583.122C196.013 584.341 197.815 584.341 198.928 583.122C200.041 581.903 200.041 579.942 198.928 578.723C197.815 577.504 196.013 577.504 194.9 578.723Z" fill="#FBC8C3"/>
<path d="M229.775 284.3C228.662 285.519 228.662 287.48 229.775 288.699C230.888 289.918 232.69 289.918 233.803 288.699C234.916 287.48 234.916 285.519 233.803 284.3C232.69 283.081 230.888 283.081 229.775 284.3Z" fill="#F48074"/>
<path d="M71.4061 430.955C70.293 432.174 70.293 434.135 71.4061 435.354C72.5191 436.573 74.3212 436.573 75.4342 435.354C76.5473 434.135 76.5473 432.174 75.4342 430.955C74.3212 429.736 72.5191 429.736 71.4061 430.955Z" fill="#F59AA6"/>
<path d="M70.2935 782.09C75.2111 782.09 79.1977 777.747 79.1977 772.391C79.1977 767.034 75.2111 762.691 70.2935 762.691C65.3758 762.691 61.3892 767.034 61.3892 772.391C61.3892 777.747 65.3758 782.09 70.2935 782.09Z" fill="#FBC8C3"/>
<path d="M243.873 60.1566C248.791 60.1566 252.777 55.8141 252.777 50.4573C252.777 45.1006 248.791 40.7581 243.873 40.7581C238.955 40.7581 234.969 45.1006 234.969 50.4573C234.969 55.8141 238.955 60.1566 243.873 60.1566Z" fill="url(#paint7_linear_4_1843)"/>
<path d="M185.306 816.753C190.224 816.753 194.21 812.41 194.21 807.054C194.21 801.697 190.224 797.354 185.306 797.354C180.388 797.354 176.402 801.697 176.402 807.054C176.402 812.41 180.388 816.753 185.306 816.753Z" fill="url(#paint8_linear_4_1843)"/>
<path d="M148.577 401.168C148.577 403.553 150.326 405.461 152.499 405.461C154.672 405.461 156.421 403.553 156.421 401.168C156.421 398.783 154.672 396.875 152.499 396.875C150.326 396.875 148.577 398.783 148.577 401.168Z" fill="#FBC8C3"/>
<path d="M155.414 556.516C155.414 558.901 157.163 560.809 159.336 560.809C161.509 560.809 163.258 558.901 163.258 556.516C163.258 554.13 161.509 552.222 159.336 552.222C157.163 552.222 155.414 554.13 155.414 556.516Z" fill="#F59AA6"/>
<path d="M230.675 362.318C230.675 364.703 232.424 366.611 234.597 366.611C236.77 366.611 238.52 364.703 238.52 362.318C238.52 359.933 236.77 358.025 234.597 358.025C232.424 358.025 230.675 359.933 230.675 362.318Z" fill="url(#paint9_linear_4_1843)"/>
<path d="M225.217 232.359C225.217 234.744 226.966 236.652 229.139 236.652C231.312 236.652 233.061 234.744 233.061 232.359C233.061 229.973 231.312 228.065 229.139 228.065C226.966 228.065 225.217 229.973 225.217 232.359Z" fill="#F48074"/>
<path d="M229.139 429.948C229.139 432.333 230.888 434.241 233.061 434.241C235.234 434.241 236.983 432.333 236.983 429.948C236.983 427.563 235.234 425.655 233.061 425.655C230.888 425.655 229.139 427.563 229.139 429.948Z" fill="url(#paint10_linear_4_1843)"/>
<path d="M130.503 279.901C130.503 282.286 132.252 284.194 134.425 284.194C136.598 284.194 138.347 282.286 138.347 279.901C138.347 277.515 136.598 275.607 134.425 275.607C132.252 275.607 130.503 277.515 130.503 279.901Z" fill="#F48074"/>
<path d="M91.4415 279.689C90.6465 280.537 90.6465 281.968 91.4415 282.816C92.2365 283.664 93.5085 283.664 94.3035 282.816C95.0985 281.968 95.0985 280.537 94.3035 279.689C93.5085 278.841 92.2365 278.841 91.4415 279.689Z" fill="url(#paint11_linear_4_1843)"/>
<path d="M174.653 449.558C174.653 451.944 176.402 453.852 178.575 453.852C180.748 453.852 182.498 451.944 182.498 449.558C182.498 447.173 180.748 445.265 178.575 445.265C176.402 445.265 174.653 447.173 174.653 449.558Z" fill="#FBC8C3"/>
<path d="M168.558 330.252C168.558 332.637 170.307 334.545 172.48 334.545C174.653 334.545 176.402 332.637 176.402 330.252C176.402 327.867 174.653 325.959 172.48 325.959C170.307 325.959 168.558 327.867 168.558 330.252Z" fill="#F59AA6"/>
<path d="M128.913 641.954C128.913 644.339 130.662 646.247 132.835 646.247C135.008 646.247 136.757 644.339 136.757 641.954C136.757 639.569 135.008 637.661 132.835 637.661C130.662 637.661 128.913 639.569 128.913 641.954Z" fill="#FBC8C3"/>
<path d="M204.069 523.654C207.669 523.654 210.588 520.451 210.588 516.499C210.588 512.547 207.669 509.344 204.069 509.344C200.468 509.344 197.549 512.547 197.549 516.499C197.549 520.451 200.468 523.654 204.069 523.654Z" fill="url(#paint12_linear_4_1843)"/>
<path d="M116.298 837.159C119.899 837.159 122.818 833.955 122.818 830.003C122.818 826.052 119.899 822.848 116.298 822.848C112.698 822.848 109.779 826.052 109.779 830.003C109.779 833.955 112.698 837.159 116.298 837.159Z" fill="#F48074"/>
<path d="M201.419 746.102C205.019 746.102 207.938 742.898 207.938 738.947C207.938 734.995 205.019 731.792 201.419 731.792C197.818 731.792 194.899 734.995 194.899 738.947C194.899 742.898 197.818 746.102 201.419 746.102Z" fill="url(#paint13_linear_4_1843)"/>
<path d="M213.821 268.983C217.422 268.983 220.341 265.779 220.341 261.827C220.341 257.876 217.422 254.672 213.821 254.672C210.221 254.672 207.302 257.876 207.302 261.827C207.302 265.779 210.221 268.983 213.821 268.983Z" fill="url(#paint14_linear_4_1843)"/>
<path d="M139.036 815.639C142.637 815.639 145.555 812.436 145.555 808.484C145.555 804.533 142.637 801.329 139.036 801.329C135.436 801.329 132.517 804.533 132.517 808.484C132.517 812.436 135.436 815.639 139.036 815.639Z" fill="#FBC8C3"/>
<path d="M194.847 334.598C198.447 334.598 201.366 331.395 201.366 327.443C201.366 323.491 198.447 320.288 194.847 320.288C191.246 320.288 188.328 323.491 188.328 327.443C188.328 331.395 191.246 334.598 194.847 334.598Z" fill="#F48074"/>
<path d="M236.983 672.854C240.583 672.854 243.502 669.65 243.502 665.699C243.502 661.747 240.583 658.544 236.983 658.544C233.383 658.544 230.464 661.747 230.464 665.699C230.464 669.65 233.383 672.854 236.983 672.854Z" fill="#FBC8C3"/>
<path d="M161.986 808.432C162.675 809.386 163.947 809.545 164.848 808.75C165.696 807.955 165.855 806.576 165.113 805.622C164.424 804.668 163.152 804.509 162.251 805.304C161.403 806.099 161.244 807.477 161.986 808.432Z" fill="url(#paint15_linear_4_1843)"/>
<path d="M66.689 381.664C65.894 382.512 65.894 383.943 66.689 384.791C67.4841 385.639 68.7561 385.639 69.5512 384.791C70.3462 383.943 70.3462 382.512 69.5512 381.664C68.7561 380.816 67.4841 380.816 66.689 381.664Z" fill="url(#paint16_linear_4_1843)"/>
<path d="M226.701 488.62C225.906 489.468 225.906 490.899 226.701 491.748C227.496 492.596 228.768 492.596 229.563 491.748C230.358 490.899 230.358 489.468 229.563 488.62C228.768 487.772 227.496 487.772 226.701 488.62Z" fill="#FBC8C3"/>
<path d="M192.779 365.339C191.984 366.187 191.984 367.618 192.779 368.466C193.574 369.314 194.846 369.314 195.641 368.466C196.436 367.618 196.436 366.187 195.641 365.339C194.846 364.491 193.574 364.491 192.779 365.339Z" fill="#F59AA6"/>
<path d="M112.058 238.825C111.263 239.673 111.263 241.104 112.058 241.952C112.853 242.8 114.125 242.8 114.92 241.952C115.715 241.104 115.715 239.673 114.92 238.825C114.125 237.977 112.853 237.977 112.058 238.825Z" fill="url(#paint17_linear_4_1843)"/>
<path d="M125.097 447.067C124.302 447.915 124.302 449.346 125.097 450.194C125.892 451.043 127.164 451.043 127.959 450.194C128.754 449.346 128.754 447.915 127.959 447.067C127.164 446.219 125.892 446.219 125.097 447.067Z" fill="#F59AA6"/>
<path d="M125.097 324.899C124.302 325.747 124.302 327.178 125.097 328.026C125.892 328.874 127.164 328.874 127.959 328.026C128.754 327.178 128.754 325.747 127.959 324.899C127.164 324.051 125.892 324.051 125.097 324.899Z" fill="#F59AA6"/>
<path d="M99.9205 521.005C99.1255 521.853 99.1255 523.284 99.9205 524.132C100.716 524.98 101.988 524.98 102.783 524.132C103.578 523.284 103.578 521.853 102.783 521.005C101.988 520.157 100.716 520.157 99.9205 521.005Z" fill="#F59AA6"/>
<path d="M111.581 109.289C110.786 110.137 110.786 111.568 111.581 112.416C112.376 113.264 113.648 113.264 114.443 112.416C115.238 111.568 115.238 110.137 114.443 109.289C113.648 108.441 112.376 108.441 111.581 109.289Z" fill="#F48074"/>
<path d="M219.545 617.414C218.75 618.262 218.75 619.693 219.545 620.541C220.341 621.389 221.613 621.389 222.408 620.541C223.203 619.693 223.203 618.262 222.408 617.414C221.613 616.566 220.341 616.566 219.545 617.414Z" fill="#FBC8C3"/>
<path d="M226.701 417.069C225.906 417.917 225.906 419.348 226.701 420.196C227.496 421.044 228.768 421.044 229.563 420.196C230.358 419.348 230.358 417.917 229.563 417.069C228.768 416.221 227.496 416.221 226.701 417.069Z" fill="url(#paint18_linear_4_1843)"/>
<path d="M101.935 484.327C101.14 485.175 101.14 486.606 101.935 487.454C102.73 488.302 104.002 488.302 104.797 487.454C105.592 486.606 105.592 485.175 104.797 484.327C104.002 483.479 102.73 483.479 101.935 484.327Z" fill="url(#paint19_linear_4_1843)"/>
<path d="M238.573 117.61C238.573 119.518 240.004 121.108 241.753 121.108C243.502 121.108 244.933 119.571 244.933 117.61C244.933 115.649 243.502 114.112 241.753 114.112C240.004 114.112 238.573 115.649 238.573 117.61Z" fill="url(#paint20_linear_4_1843)"/>
<path d="M167.763 509.344C167.763 512.206 169.883 514.538 172.48 514.538C175.077 514.538 177.197 512.206 177.197 509.344C177.197 506.482 175.077 504.15 172.48 504.15C169.883 504.15 167.763 506.482 167.763 509.344Z" fill="#F48074"/>
<path d="M223.839 90.1553C223.839 93.3354 226.224 95.9325 229.139 95.9325C232.054 95.9325 234.439 93.3354 234.439 90.1553C234.439 86.9752 232.054 84.3782 229.139 84.3782C226.224 84.3782 223.839 86.9752 223.839 90.1553Z" fill="url(#paint21_linear_4_1843)"/>
<path d="M244.085 740.643C247.48 740.643 250.233 737.653 250.233 733.965C250.233 730.276 247.48 727.286 244.085 727.286C240.689 727.286 237.937 730.276 237.937 733.965C237.937 737.653 240.689 740.643 244.085 740.643Z" fill="#F48074"/>
<path d="M194.051 665.009C198.384 665.009 201.896 661.165 201.896 656.423C201.896 651.681 198.384 647.837 194.051 647.837C189.719 647.837 186.207 651.681 186.207 656.423C186.207 661.165 189.719 665.009 194.051 665.009Z" fill="url(#paint22_linear_4_1843)"/>
<path d="M148.365 17.8615C147.411 18.9215 147.411 20.6175 148.365 21.6246C149.319 22.6846 150.856 22.6846 151.81 21.6246C152.764 20.5645 152.764 18.8685 151.81 17.8615C150.856 16.8544 149.319 16.8014 148.365 17.8615Z" fill="#F48074"/>
<path d="M166.014 267.074C165.06 268.134 165.06 269.83 166.014 270.837C166.968 271.897 168.505 271.897 169.459 270.837C170.413 269.777 170.413 268.081 169.459 267.074C168.505 266.014 166.968 266.014 166.014 267.074Z" fill="#F59AA6"/>
<path d="M206.083 121.85C205.129 122.91 205.129 124.606 206.083 125.613C207.037 126.673 208.574 126.673 209.528 125.613C210.482 124.553 210.482 122.857 209.528 121.85C208.574 120.79 207.037 120.79 206.083 121.85Z" fill="#F59AA6"/>
<path d="M119.691 845.268C124.842 845.268 129.019 840.711 129.019 835.091C129.019 829.471 124.842 824.915 119.691 824.915C114.539 824.915 110.362 829.471 110.362 835.091C110.362 840.711 114.539 845.268 119.691 845.268Z" fill="#FBC8C3"/>
<path d="M9.50039 374.614C8.49336 373.501 8.49336 371.752 9.50039 370.639C10.5074 369.526 12.0974 369.526 13.1045 370.639C14.1115 371.752 14.1115 373.501 13.1045 374.614C12.0974 375.727 10.5074 375.727 9.50039 374.614Z" fill="url(#paint23_linear_4_1843)"/>
<path d="M4.35933 469.858C3.3523 470.971 1.7623 470.971 0.755271 469.858C-0.251757 468.745 -0.251757 466.996 0.755271 465.883C1.7623 464.77 3.3523 464.77 4.35933 465.883C5.36636 466.996 5.36636 468.745 4.35933 469.858Z" fill="url(#paint24_linear_4_1843)"/>
<path d="M34.8881 548.724C35.8951 547.611 37.4852 547.611 38.4922 548.724C39.4993 549.837 39.4993 551.586 38.4922 552.699C37.4852 553.812 35.8951 553.812 34.8881 552.699C33.8811 551.586 33.8811 549.837 34.8881 548.724Z" fill="#F59AA6"/>
<path d="M32.3969 17.066C32.3969 19.3981 30.7008 21.2531 28.5808 21.2531C26.4607 21.2531 24.7646 19.3981 24.7646 17.066C24.7646 14.734 26.4607 12.8789 28.5808 12.8789C30.7008 12.8789 32.3969 14.734 32.3969 17.066Z" fill="#F48074"/>
<path d="M39.8702 97.4169C39.0752 96.5689 39.0752 95.1908 39.8702 94.3428C40.6652 93.4948 41.8842 93.4948 42.6793 94.3428C43.4743 95.1908 43.4743 96.5689 42.6793 97.4169C41.8842 98.2649 40.6652 98.2649 39.8702 97.4169Z" fill="#F59AA6"/>
<path d="M31.9732 797.142C31.1782 797.991 29.9592 797.991 29.1641 797.142C28.3691 796.294 28.3691 794.916 29.1641 794.068C29.9592 793.22 31.1782 793.22 31.9732 794.068C32.7682 794.916 32.7682 796.294 31.9732 797.142Z" fill="url(#paint25_linear_4_1843)"/>
<path d="M252.608 294.933C257.789 294.927 261.984 290.721 261.978 285.54C261.971 280.359 257.766 276.164 252.585 276.17C247.404 276.177 243.209 280.382 243.215 285.563C243.221 290.744 247.427 294.939 252.608 294.933Z" fill="#FBC8C3"/>
<path d="M252.619 508.973C257.8 508.973 262 504.773 262 499.592C262 494.411 257.8 490.211 252.619 490.211C247.437 490.211 243.237 494.411 243.237 499.592C243.237 504.773 247.437 508.973 252.619 508.973Z" fill="#F59AA6"/>
<path d="M224.157 540.191C228.108 540.191 231.312 536.679 231.312 532.347C231.312 528.015 228.108 524.503 224.157 524.503C220.205 524.503 217.001 528.015 217.001 532.347C217.001 536.679 220.205 540.191 224.157 540.191Z" fill="#F59AA6"/>
<path d="M237.99 164.834C243.184 164.41 247.106 160.223 246.735 155.453C246.364 150.683 241.806 147.185 236.612 147.609C231.418 148.033 227.496 152.22 227.867 156.99C228.238 161.76 232.796 165.258 237.99 164.834Z" fill="url(#paint26_linear_4_1843)"/>
<defs>
<linearGradient id="paint0_linear_4_1843" x1="208.362" y1="44.8389" x2="208.362" y2="32.8076" gradientUnits="userSpaceOnUse">
<stop stop-color="#B5832C"/>
<stop offset="0.56" stop-color="#FFD431"/>
<stop offset="0.99" stop-color="#AD7E2B"/>
<stop offset="1" stop-color="#AB7B2B"/>
</linearGradient>
<linearGradient id="paint1_linear_4_1843" x1="102.783" y1="209.038" x2="102.783" y2="202.836" gradientUnits="userSpaceOnUse">
<stop stop-color="#B09430"/>
<stop offset="0.05" stop-color="#BC9E30"/>
<stop offset="0.18" stop-color="#D9B530"/>
<stop offset="0.31" stop-color="#EEC630"/>
<stop offset="0.44" stop-color="#FAD030"/>
<stop offset="0.56" stop-color="#FFD431"/>
<stop offset="0.65" stop-color="#FAD030"/>
<stop offset="0.75" stop-color="#ECC530"/>
<stop offset="0.86" stop-color="#D6B330"/>
<stop offset="0.98" stop-color="#B79A30"/>
<stop offset="1" stop-color="#B09430"/>
</linearGradient>
<linearGradient id="paint2_linear_4_1843" x1="210.323" y1="197.589" x2="210.323" y2="177.555" gradientUnits="userSpaceOnUse">
<stop stop-color="#B09430"/>
<stop offset="0.05" stop-color="#BC9E30"/>
<stop offset="0.18" stop-color="#D9B530"/>
<stop offset="0.31" stop-color="#EEC630"/>
<stop offset="0.44" stop-color="#FAD030"/>
<stop offset="0.56" stop-color="#FFD431"/>
<stop offset="0.65" stop-color="#FAD030"/>
<stop offset="0.75" stop-color="#ECC530"/>
<stop offset="0.86" stop-color="#D6B330"/>
<stop offset="0.98" stop-color="#B79A30"/>
<stop offset="1" stop-color="#B09430"/>
</linearGradient>
<linearGradient id="paint3_linear_4_1843" x1="223.043" y1="471.077" x2="223.043" y2="451.042" gradientUnits="userSpaceOnUse">
<stop stop-color="#B09430"/>
<stop offset="0.05" stop-color="#BC9E30"/>
<stop offset="0.18" stop-color="#D9B530"/>
<stop offset="0.31" stop-color="#EEC630"/>
<stop offset="0.44" stop-color="#FAD030"/>
<stop offset="0.56" stop-color="#FFD431"/>
<stop offset="0.65" stop-color="#FAD030"/>
<stop offset="0.75" stop-color="#ECC530"/>
<stop offset="0.86" stop-color="#D6B330"/>
<stop offset="0.98" stop-color="#B79A30"/>
<stop offset="1" stop-color="#B09430"/>
</linearGradient>
<linearGradient id="paint4_linear_4_1843" x1="123.507" y1="596.956" x2="123.507" y2="590.755" gradientUnits="userSpaceOnUse">
<stop stop-color="#B09430"/>
<stop offset="0.05" stop-color="#BC9E30"/>
<stop offset="0.18" stop-color="#D9B530"/>
<stop offset="0.31" stop-color="#EEC630"/>
<stop offset="0.44" stop-color="#FAD030"/>
<stop offset="0.56" stop-color="#FFD431"/>
<stop offset="0.65" stop-color="#FAD030"/>
<stop offset="0.75" stop-color="#ECC530"/>
<stop offset="0.86" stop-color="#D6B330"/>
<stop offset="0.98" stop-color="#B79A30"/>
<stop offset="1" stop-color="#B09430"/>
</linearGradient>
<linearGradient id="paint5_linear_4_1843" x1="88.1018" y1="686.846" x2="88.1018" y2="680.592" gradientUnits="userSpaceOnUse">
<stop stop-color="#B09430"/>
<stop offset="0.05" stop-color="#BC9E30"/>
<stop offset="0.18" stop-color="#D9B530"/>
<stop offset="0.31" stop-color="#EEC630"/>
<stop offset="0.44" stop-color="#FAD030"/>
<stop offset="0.56" stop-color="#FFD431"/>
<stop offset="0.65" stop-color="#FAD030"/>
<stop offset="0.75" stop-color="#ECC530"/>
<stop offset="0.86" stop-color="#D6B330"/>
<stop offset="0.98" stop-color="#B79A30"/>
<stop offset="1" stop-color="#B09430"/>
</linearGradient>
<linearGradient id="paint6_linear_4_1843" x1="121.969" y1="384.048" x2="121.969" y2="377.847" gradientUnits="userSpaceOnUse">
<stop stop-color="#B5832C"/>
<stop offset="0.56" stop-color="#FFD431"/>
<stop offset="0.99" stop-color="#AD7E2B"/>
<stop offset="1" stop-color="#AB7B2B"/>
</linearGradient>
<linearGradient id="paint7_linear_4_1843" x1="243.926" y1="60.1036" x2="243.926" y2="40.6521" gradientUnits="userSpaceOnUse">
<stop offset="0.16" stop-color="#FFC518"/>
<stop offset="0.89" stop-color="#E79E24"/>
</linearGradient>
<linearGradient id="paint8_linear_4_1843" x1="185.359" y1="816.7" x2="185.359" y2="797.248" gradientUnits="userSpaceOnUse">
<stop stop-color="#B09430"/>
<stop offset="0.05" stop-color="#BC9E30"/>
<stop offset="0.18" stop-color="#D9B530"/>
<stop offset="0.31" stop-color="#EEC630"/>
<stop offset="0.44" stop-color="#FAD030"/>
<stop offset="0.56" stop-color="#FFD431"/>
<stop offset="0.65" stop-color="#FAD030"/>
<stop offset="0.75" stop-color="#ECC530"/>
<stop offset="0.86" stop-color="#D6B330"/>
<stop offset="0.98" stop-color="#B79A30"/>
<stop offset="1" stop-color="#B09430"/>
</linearGradient>
<linearGradient id="paint9_linear_4_1843" x1="234.703" y1="366.558" x2="234.703" y2="357.972" gradientUnits="userSpaceOnUse">
<stop stop-color="#B09430"/>
<stop offset="0.05" stop-color="#BC9E30"/>
<stop offset="0.18" stop-color="#D9B530"/>
<stop offset="0.31" stop-color="#EEC630"/>
<stop offset="0.44" stop-color="#FAD030"/>
<stop offset="0.56" stop-color="#FFD431"/>
<stop offset="0.65" stop-color="#FAD030"/>
<stop offset="0.75" stop-color="#ECC530"/>
<stop offset="0.86" stop-color="#D6B330"/>
<stop offset="0.98" stop-color="#B79A30"/>
<stop offset="1" stop-color="#B09430"/>
</linearGradient>
<linearGradient id="paint10_linear_4_1843" x1="233.114" y1="434.188" x2="233.114" y2="425.549" gradientUnits="userSpaceOnUse">
<stop offset="0.16" stop-color="#FFC518"/>
<stop offset="0.89" stop-color="#E79E24"/>
</linearGradient>
<linearGradient id="paint11_linear_4_1843" x1="92.9255" y1="283.399" x2="92.9255" y2="279" gradientUnits="userSpaceOnUse">
<stop stop-color="#B09430"/>
<stop offset="0.05" stop-color="#BC9E30"/>
<stop offset="0.18" stop-color="#D9B530"/>
<stop offset="0.31" stop-color="#EEC630"/>
<stop offset="0.44" stop-color="#FAD030"/>
<stop offset="0.56" stop-color="#FFD431"/>
<stop offset="0.65" stop-color="#FAD030"/>
<stop offset="0.75" stop-color="#ECC530"/>
<stop offset="0.86" stop-color="#D6B330"/>
<stop offset="0.98" stop-color="#B79A30"/>
<stop offset="1" stop-color="#B09430"/>
</linearGradient>
<linearGradient id="paint12_linear_4_1843" x1="204.122" y1="523.548" x2="204.122" y2="509.291" gradientUnits="userSpaceOnUse">
<stop offset="0.16" stop-color="#FFC518"/>
<stop offset="0.89" stop-color="#E79E24"/>
</linearGradient>
<linearGradient id="paint13_linear_4_1843" x1="201.472" y1="746.049" x2="201.472" y2="731.792" gradientUnits="userSpaceOnUse">
<stop stop-color="#B09430"/>
<stop offset="0.05" stop-color="#BC9E30"/>
<stop offset="0.18" stop-color="#D9B530"/>
<stop offset="0.31" stop-color="#EEC630"/>
<stop offset="0.44" stop-color="#FAD030"/>
<stop offset="0.56" stop-color="#FFD431"/>
<stop offset="0.65" stop-color="#FAD030"/>
<stop offset="0.75" stop-color="#ECC530"/>
<stop offset="0.86" stop-color="#D6B330"/>
<stop offset="0.98" stop-color="#B79A30"/>
<stop offset="1" stop-color="#B09430"/>
</linearGradient>
<linearGradient id="paint14_linear_4_1843" x1="213.874" y1="268.93" x2="213.874" y2="254.619" gradientUnits="userSpaceOnUse">
<stop stop-color="#B09430"/>
<stop offset="0.05" stop-color="#BC9E30"/>
<stop offset="0.18" stop-color="#D9B530"/>
<stop offset="0.31" stop-color="#EEC630"/>
<stop offset="0.44" stop-color="#FAD030"/>
<stop offset="0.56" stop-color="#FFD431"/>
<stop offset="0.65" stop-color="#FAD030"/>
<stop offset="0.75" stop-color="#ECC530"/>
<stop offset="0.86" stop-color="#D6B330"/>
<stop offset="0.98" stop-color="#B79A30"/>
<stop offset="1" stop-color="#B09430"/>
</linearGradient>
<linearGradient id="paint15_linear_4_1843" x1="163.576" y1="809.174" x2="163.576" y2="804.774" gradientUnits="userSpaceOnUse">
<stop stop-color="#B09430"/>
<stop offset="0.05" stop-color="#BC9E30"/>
<stop offset="0.18" stop-color="#D9B530"/>
<stop offset="0.31" stop-color="#EEC630"/>
<stop offset="0.44" stop-color="#FAD030"/>
<stop offset="0.56" stop-color="#FFD431"/>
<stop offset="0.65" stop-color="#FAD030"/>
<stop offset="0.75" stop-color="#ECC530"/>
<stop offset="0.86" stop-color="#D6B330"/>
<stop offset="0.98" stop-color="#B79A30"/>
<stop offset="1" stop-color="#B09430"/>
</linearGradient>
<linearGradient id="paint16_linear_4_1843" x1="68.1731" y1="385.374" x2="68.1731" y2="380.975" gradientUnits="userSpaceOnUse">
<stop stop-color="#B09430"/>
<stop offset="0.05" stop-color="#BC9E30"/>
<stop offset="0.18" stop-color="#D9B530"/>
<stop offset="0.31" stop-color="#EEC630"/>
<stop offset="0.44" stop-color="#FAD030"/>
<stop offset="0.56" stop-color="#FFD431"/>
<stop offset="0.65" stop-color="#FAD030"/>
<stop offset="0.75" stop-color="#ECC530"/>
<stop offset="0.86" stop-color="#D6B330"/>
<stop offset="0.98" stop-color="#B79A30"/>
<stop offset="1" stop-color="#B09430"/>
</linearGradient>
<linearGradient id="paint17_linear_4_1843" x1="113.542" y1="242.535" x2="113.542" y2="238.136" gradientUnits="userSpaceOnUse">
<stop stop-color="#B09430"/>
<stop offset="0.05" stop-color="#BC9E30"/>
<stop offset="0.18" stop-color="#D9B530"/>
<stop offset="0.31" stop-color="#EEC630"/>
<stop offset="0.44" stop-color="#FAD030"/>
<stop offset="0.56" stop-color="#FFD431"/>
<stop offset="0.65" stop-color="#FAD030"/>
<stop offset="0.75" stop-color="#ECC530"/>
<stop offset="0.86" stop-color="#D6B330"/>
<stop offset="0.98" stop-color="#B79A30"/>
<stop offset="1" stop-color="#B09430"/>
</linearGradient>
<linearGradient id="paint18_linear_4_1843" x1="228.185" y1="420.779" x2="228.185" y2="416.327" gradientUnits="userSpaceOnUse">
<stop offset="0.16" stop-color="#FFC518"/>
<stop offset="0.89" stop-color="#E79E24"/>
</linearGradient>
<linearGradient id="paint19_linear_4_1843" x1="103.419" y1="488.037" x2="103.419" y2="483.638" gradientUnits="userSpaceOnUse">
<stop offset="0.16" stop-color="#FFC518"/>
<stop offset="0.89" stop-color="#E79E24"/>
</linearGradient>
<linearGradient id="paint20_linear_4_1843" x1="241.806" y1="121.055" x2="241.806" y2="114.059" gradientUnits="userSpaceOnUse">
<stop offset="0.16" stop-color="#FFC518"/>
<stop offset="0.89" stop-color="#E79E24"/>
</linearGradient>
<linearGradient id="paint21_linear_4_1843" x1="229.192" y1="95.8795" x2="229.192" y2="84.3252" gradientUnits="userSpaceOnUse">
<stop stop-color="#B09430"/>
<stop offset="0.05" stop-color="#BC9E30"/>
<stop offset="0.18" stop-color="#D9B530"/>
<stop offset="0.31" stop-color="#EEC630"/>
<stop offset="0.44" stop-color="#FAD030"/>
<stop offset="0.56" stop-color="#FFD431"/>
<stop offset="0.65" stop-color="#FAD030"/>
<stop offset="0.75" stop-color="#ECC530"/>
<stop offset="0.86" stop-color="#D6B330"/>
<stop offset="0.98" stop-color="#B79A30"/>
<stop offset="1" stop-color="#B09430"/>
</linearGradient>
<linearGradient id="paint22_linear_4_1843" x1="194.104" y1="665.009" x2="194.104" y2="647.784" gradientUnits="userSpaceOnUse">
<stop offset="0.16" stop-color="#FFC518"/>
<stop offset="0.89" stop-color="#E79E24"/>
</linearGradient>
<linearGradient id="paint23_linear_4_1843" x1="11.4084" y1="375.356" x2="11.4084" y2="369.791" gradientUnits="userSpaceOnUse">
<stop stop-color="#B09430"/>
<stop offset="0.05" stop-color="#BC9E30"/>
<stop offset="0.18" stop-color="#D9B530"/>
<stop offset="0.31" stop-color="#EEC630"/>
<stop offset="0.44" stop-color="#FAD030"/>
<stop offset="0.56" stop-color="#FFD431"/>
<stop offset="0.65" stop-color="#FAD030"/>
<stop offset="0.75" stop-color="#ECC530"/>
<stop offset="0.86" stop-color="#D6B330"/>
<stop offset="0.98" stop-color="#B79A30"/>
<stop offset="1" stop-color="#B09430"/>
</linearGradient>
<linearGradient id="paint24_linear_4_1843" x1="2.5573" y1="470.6" x2="2.5573" y2="464.982" gradientUnits="userSpaceOnUse">
<stop offset="0.16" stop-color="#FFC518"/>
<stop offset="0.89" stop-color="#E79E24"/>
</linearGradient>
<linearGradient id="paint25_linear_4_1843" x1="30.5952" y1="797.726" x2="30.5952" y2="793.379" gradientUnits="userSpaceOnUse">
<stop stop-color="#B09430"/>
<stop offset="0.05" stop-color="#BC9E30"/>
<stop offset="0.18" stop-color="#D9B530"/>
<stop offset="0.31" stop-color="#EEC630"/>
<stop offset="0.44" stop-color="#FAD030"/>
<stop offset="0.56" stop-color="#FFD431"/>
<stop offset="0.65" stop-color="#FAD030"/>
<stop offset="0.75" stop-color="#ECC530"/>
<stop offset="0.86" stop-color="#D6B330"/>
<stop offset="0.98" stop-color="#B79A30"/>
<stop offset="1" stop-color="#B09430"/>
</linearGradient>
<linearGradient id="paint26_linear_4_1843" x1="247.678" y1="155.047" x2="228.819" y2="156.574" gradientUnits="userSpaceOnUse">
<stop stop-color="#B5832C"/>
<stop offset="0.56" stop-color="#FFD431"/>
<stop offset="0.99" stop-color="#AD7E2B"/>
<stop offset="1" stop-color="#AB7B2B"/>
</linearGradient>
</defs>
</svg>
