<svg width="60" height="60" viewBox="0 0 60 60" fill="none" xmlns="http://www.w3.org/2000/svg">
<path d="M36.2495 37.4998C34.1936 37.4998 32.4995 39.1939 32.4995 41.2498H34.9995C34.9995 40.5356 35.5354 39.9998 36.2495 39.9998C36.9636 39.9998 37.4995 40.5356 37.4995 41.2498V44.9994H39.9995V41.2498C39.9995 39.1939 38.3053 37.4998 36.2495 37.4998Z" fill="url(#paint0_linear_106_812)"/>
<path d="M31.2497 35.0003C29.1938 35.0003 27.4996 36.6944 27.4996 38.7503H29.9997C29.9997 38.0361 30.5356 37.5003 31.2497 37.5003C31.9638 37.5003 32.4997 38.0361 32.4997 38.7503V44.9999H34.9997V38.7503C34.9997 36.6944 33.3056 35.0003 31.2497 35.0003Z" fill="url(#paint1_linear_106_812)"/>
<path d="M21.2493 40.0001C19.193 40.0001 17.4993 41.6938 17.4993 43.7498V53.1248C17.4993 56.9117 20.5871 59.9997 24.3742 59.9997H24.9992V57.4997H24.3742C21.9289 57.4997 19.9993 55.57 19.9993 53.1248V43.7498C19.9993 43.0451 20.5441 42.5001 21.2493 42.5001C21.9544 42.5001 22.4993 43.0451 22.4993 43.7498H24.9992C24.9992 41.6938 23.3055 40.0001 21.2493 40.0001Z" fill="url(#paint2_linear_106_812)"/>
<path d="M41.2498 40.0001C39.1966 40.0001 37.512 41.6967 37.512 43.7498H40.0121C40.0121 43.0421 40.5536 42.5001 41.2498 42.5001C41.9459 42.5001 42.4876 43.0421 42.4876 43.7498L42.5001 53.1248C42.5001 55.5729 40.5782 57.4997 38.1495 57.4997H37.4998V59.9997H38.1492C41.9256 59.9997 44.9998 56.9087 44.9998 53.1248L44.9873 43.7526C44.9873 41.6994 43.3027 40.0026 41.2495 40.0026L41.2498 40.0001Z" fill="url(#paint3_linear_106_812)"/>
<path d="M26.2495 25.0001C24.1937 25.0001 22.4996 26.6943 22.4996 28.7501V49.9997H24.9996V28.7501C24.9996 28.036 25.5354 27.5001 26.2495 27.5001C26.9637 27.5001 27.4995 28.036 27.4995 28.7501V44.9997H29.9996V28.7501C29.9996 26.6943 28.3054 25.0001 26.2495 25.0001Z" fill="url(#paint4_linear_106_812)"/>
<path d="M31.2254 14.9881C30.9007 14.9977 30.5924 15.1332 30.366 15.3662L26.2498 19.4827L24.6336 17.8661C24.5183 17.7463 24.3804 17.6509 24.2278 17.5851C24.0751 17.5192 23.9109 17.4845 23.7447 17.4828C23.5785 17.4812 23.4136 17.5128 23.2598 17.5756C23.1059 17.6385 22.9661 17.7312 22.8485 17.8488C22.731 17.9663 22.638 18.1062 22.5752 18.2601C22.5123 18.414 22.4808 18.5788 22.4824 18.745C22.484 18.9113 22.5188 19.0755 22.5847 19.2281C22.6506 19.3808 22.7462 19.5188 22.866 19.634L25.366 22.134C25.6004 22.3683 25.9183 22.4999 26.2498 22.4999C26.5812 22.4999 26.8991 22.3683 27.1336 22.134L32.1336 17.134C32.3142 16.9585 32.4376 16.7324 32.4875 16.4855C32.5375 16.2386 32.5117 15.9824 32.4135 15.7504C32.3153 15.5184 32.1494 15.3212 31.9374 15.1852C31.7254 15.0492 31.4772 14.9806 31.2254 14.9881Z" fill="url(#paint5_linear_106_812)"/>
<path d="M51.2301 2.48112C51.066 2.48368 50.9039 2.51848 50.7532 2.58366C50.6025 2.64885 50.4662 2.74318 50.3519 2.86107C50.2376 2.97895 50.1477 3.11828 50.0872 3.27091C50.0268 3.42355 49.997 3.5865 49.9996 3.75065V8.71399C49.9973 8.8796 50.028 9.04403 50.0898 9.19769C50.1515 9.35136 50.2432 9.49114 50.3595 9.60907C50.4758 9.72699 50.6144 9.82073 50.7672 9.88464C50.92 9.94855 51.0839 9.98138 51.2496 9.98138C51.4152 9.98138 51.5792 9.94855 51.732 9.88464C51.8848 9.82073 52.0234 9.72699 52.1397 9.60907C52.256 9.49114 52.3477 9.35136 52.4095 9.19769C52.4712 9.04403 52.5019 8.8796 52.4996 8.71399V3.75065C52.5023 3.58321 52.4712 3.41696 52.4083 3.26176C52.3454 3.10655 52.252 2.96574 52.1336 2.84733C52.0152 2.72892 51.8742 2.63524 51.719 2.57237C51.5638 2.5095 51.3976 2.4785 51.2301 2.48112Z" fill="url(#paint6_linear_106_812)"/>
<path d="M48.7664 4.98058C48.6009 4.97838 48.4365 5.00908 48.2829 5.07091C48.1294 5.13274 47.9896 5.2247 47.8717 5.34099C47.7539 5.45728 47.6603 5.59565 47.5965 5.7484C47.5326 5.90114 47.4997 6.06501 47.4997 6.23057C47.4997 6.39613 47.5326 6.56 47.5965 6.71275C47.6603 6.86549 47.7539 7.00417 47.8717 7.12046C47.9896 7.23675 48.1294 7.3284 48.2829 7.39023C48.4365 7.45206 48.6009 7.48276 48.7664 7.48056H53.7323C53.8978 7.48276 54.0622 7.45206 54.2157 7.39023C54.3693 7.3284 54.509 7.23675 54.6269 7.12046C54.7447 7.00417 54.8384 6.86549 54.9022 6.71275C54.9661 6.56 54.999 6.39613 54.999 6.23057C54.999 6.06501 54.9661 5.90114 54.9022 5.7484C54.8384 5.59565 54.7447 5.45728 54.6269 5.34099C54.509 5.2247 54.3693 5.13274 54.2157 5.07091C54.0622 5.00908 53.8978 4.97838 53.7323 4.98058H48.7664Z" fill="url(#paint7_linear_106_812)"/>
<path d="M3.73019 10.0246C3.56603 10.0272 3.40395 10.062 3.25328 10.1272C3.1026 10.1924 2.96623 10.2867 2.85197 10.4046C2.73771 10.5225 2.64784 10.6618 2.58739 10.8144C2.52694 10.9671 2.49708 11.13 2.49965 11.2942V16.2572C2.49735 16.4228 2.52804 16.5872 2.58983 16.7409C2.65162 16.8946 2.7433 17.0347 2.8596 17.1526C2.9759 17.2705 3.11444 17.3639 3.26724 17.4278C3.42004 17.4918 3.58401 17.5249 3.74964 17.5249C3.91527 17.5249 4.07925 17.4918 4.23205 17.4278C4.38484 17.3639 4.52346 17.2705 4.63976 17.1526C4.75606 17.0347 4.84774 16.8946 4.90953 16.7409C4.97132 16.5872 5.00201 16.4228 4.99971 16.2572V11.2942C5.00233 11.1267 4.97126 10.9605 4.90839 10.8053C4.84551 10.6501 4.75207 10.509 4.63365 10.3905C4.51524 10.2721 4.37428 10.1788 4.21908 10.1159C4.06387 10.053 3.89763 10.022 3.73019 10.0246Z" fill="url(#paint8_linear_106_812)"/>
<path d="M1.2667 12.525C1.10115 12.5228 0.936814 12.5535 0.783229 12.6153C0.629643 12.6771 0.489853 12.7688 0.372007 12.8851C0.25416 13.0014 0.160606 13.1397 0.0967401 13.2925C0.0328739 13.4452 0 13.6094 0 13.7749C0 13.9405 0.0328739 14.1044 0.0967401 14.2571C0.160606 14.4099 0.25416 14.5482 0.372007 14.6645C0.489853 14.7808 0.629643 14.8728 0.783229 14.9346C0.936814 14.9964 1.10115 15.0271 1.2667 15.0249H6.23256C6.39811 15.0271 6.56245 14.9964 6.71604 14.9346C6.86962 14.8728 7.00941 14.7808 7.12726 14.6645C7.2451 14.5482 7.33866 14.4099 7.40252 14.2571C7.46639 14.1044 7.49926 13.9405 7.49926 13.7749C7.49926 13.6094 7.46639 13.4452 7.40252 13.2925C7.33866 13.1397 7.2451 13.0014 7.12726 12.8851C7.00941 12.7688 6.86962 12.6771 6.71604 12.6153C6.56245 12.5535 6.39811 12.5228 6.23256 12.525H1.2667Z" fill="url(#paint9_linear_106_812)"/>
<path d="M47.4993 16.2502C47.4993 16.5817 47.3676 16.8996 47.1332 17.134C46.8988 17.3684 46.5809 17.5002 46.2493 17.5002C46.0852 17.5002 45.9226 17.4678 45.771 17.405C45.6193 17.3422 45.4816 17.2501 45.3655 17.134C45.2494 17.0179 45.1573 16.8801 45.0945 16.7284C45.0317 16.5768 44.9994 16.4144 44.9994 16.2502C44.9994 16.0861 45.0317 15.9234 45.0945 15.7717C45.1573 15.62 45.2494 15.4822 45.3655 15.3661C45.4816 15.25 45.6193 15.1579 45.771 15.0951C45.9226 15.0323 46.0852 15.0002 46.2493 15.0002C46.5809 15.0002 46.8988 15.1317 47.1332 15.3661C47.3676 15.6005 47.4993 15.9187 47.4993 16.2502Z" fill="url(#paint10_linear_106_812)"/>
<path d="M60.0001 1.24999C60 1.58149 59.8683 1.89969 59.6339 2.13408C59.3995 2.36847 59.0816 2.49998 58.7501 2.49998C58.4186 2.49998 58.1006 2.36847 57.8662 2.13408C57.6318 1.89969 57.5001 1.58149 57.5001 1.24999C57.5001 1.08584 57.5324 0.923441 57.5952 0.771784C57.658 0.620128 57.7501 0.482281 57.8662 0.366209C57.9823 0.250136 58.12 0.158032 58.2717 0.0952142C58.4234 0.0323963 58.5859 -6.23771e-07 58.7501 0C58.9142 -6.23771e-07 59.0768 0.0323963 59.2284 0.0952142C59.3801 0.158032 59.5178 0.250136 59.6339 0.366209C59.75 0.482281 59.8421 0.620128 59.9049 0.771784C59.9677 0.923441 60.0001 1.08584 60.0001 1.24999Z" fill="url(#paint11_linear_106_812)"/>
<path d="M42.4993 1.24999C42.4992 1.58149 42.3675 1.89969 42.1331 2.13408C41.8986 2.36847 41.5807 2.49998 41.2492 2.49998C40.9177 2.49998 40.5998 2.36847 40.3654 2.13408C40.131 1.89969 39.9993 1.58148 39.9993 1.24999C39.9993 0.918478 40.1309 0.600627 40.3653 0.366209C40.5998 0.13179 40.9177 5.37047e-06 41.2492 0C41.4134 -6.23772e-07 41.5759 0.0323963 41.7276 0.0952142C41.8792 0.158032 42.0171 0.250136 42.1331 0.366209C42.2492 0.482281 42.3412 0.620128 42.4041 0.771784C42.4669 0.923441 42.4993 1.08584 42.4993 1.24999Z" fill="url(#paint12_linear_106_812)"/>
<path d="M12.4999 3.75035C12.4999 3.9145 12.4676 4.07721 12.4048 4.22886C12.342 4.38052 12.2499 4.51806 12.1339 4.63413C12.0178 4.75021 11.8799 4.84231 11.7283 4.90513C11.5766 4.96795 11.4141 5.00034 11.2499 5.00034C11.0858 5.00034 10.9232 4.96795 10.7716 4.90513C10.6199 4.84231 10.4821 4.75021 10.3661 4.63413C10.25 4.51806 10.1579 4.38052 10.0951 4.22886C10.0322 4.07721 9.99993 3.9145 9.99993 3.75035C9.99993 3.5862 10.0322 3.4238 10.0951 3.27214C10.1579 3.12049 10.25 2.98264 10.3661 2.86657C10.4821 2.75049 10.6199 2.65839 10.7716 2.59557C10.9232 2.53276 11.0858 2.50036 11.2499 2.50036C11.4141 2.50036 11.5766 2.53276 11.7283 2.59557C11.8799 2.65839 12.0178 2.75049 12.1339 2.86657C12.2499 2.98264 12.342 3.12049 12.4048 3.27214C12.4676 3.4238 12.4999 3.5862 12.4999 3.75035Z" fill="url(#paint13_linear_106_812)"/>
<path d="M9.99955 26.2488C9.99955 26.413 9.96723 26.5757 9.90441 26.7274C9.8416 26.879 9.74949 27.0169 9.63342 27.1329C9.51735 27.249 9.37958 27.3408 9.22792 27.4036C9.07626 27.4664 8.91371 27.4988 8.74956 27.4988C8.41804 27.4988 8.10012 27.3674 7.8657 27.1329C7.63128 26.8985 7.49957 26.5804 7.49957 26.2488C7.49957 25.9173 7.63128 25.5995 7.8657 25.3651C8.10012 25.1306 8.41804 24.9989 8.74956 24.9989C8.91371 24.9989 9.07626 25.0312 9.22792 25.0941C9.37958 25.1569 9.51735 25.249 9.63342 25.3651C9.74949 25.4811 9.8416 25.619 9.90441 25.7706C9.96723 25.9223 9.99955 26.0847 9.99955 26.2488Z" fill="url(#paint14_linear_106_812)"/>
<path d="M57.4993 31.25C57.4993 31.4141 57.4669 31.5768 57.4041 31.7285C57.3413 31.8802 57.2492 32.018 57.1331 32.1341C57.0171 32.2502 56.8793 32.342 56.7276 32.4048C56.576 32.4676 56.4134 32.5 56.2493 32.5C56.0851 32.5 55.9226 32.4676 55.7709 32.4048C55.6193 32.342 55.4814 32.2502 55.3653 32.1341C55.2493 32.018 55.1572 31.8802 55.0944 31.7285C55.0316 31.5768 54.9993 31.4141 54.9993 31.25C54.9993 31.0858 55.0316 30.9234 55.0944 30.7718C55.1572 30.6201 55.2493 30.4823 55.3653 30.3662C55.4814 30.2501 55.6193 30.158 55.7709 30.0952C55.9226 30.0324 56.0851 30 56.2493 30C56.4134 30 56.576 30.0324 56.7276 30.0952C56.8793 30.158 57.0171 30.2501 57.1331 30.3662C57.2492 30.4823 57.3413 30.6201 57.4041 30.7718C57.4669 30.9234 57.4993 31.0858 57.4993 31.25Z" fill="url(#paint15_linear_106_812)"/>
<path d="M27.5019 7.49828C27.3492 7.49826 27.1977 7.52612 27.0551 7.58067C22.038 7.7683 17.6012 11.078 15.8272 16.0206C15.8255 16.0255 15.8238 16.0305 15.8221 16.0355C14.2054 20.7402 15.0397 25.4302 17.7142 29.4436C17.8041 29.5829 17.9208 29.7029 18.0574 29.7967C18.1941 29.8905 18.348 29.9562 18.5103 29.9899C18.6726 30.0236 18.84 30.0248 19.0027 29.9932C19.1654 29.9617 19.3203 29.8981 19.4582 29.8062C19.5961 29.7142 19.7143 29.5957 19.806 29.4577C19.8977 29.3196 19.961 29.1645 19.9923 29.0017C20.0236 28.839 20.0222 28.6717 19.9882 28.5095C19.9542 28.3473 19.8883 28.1934 19.7943 28.0569C17.4719 24.5719 16.8152 20.8456 18.1854 16.8534C19.6831 12.6962 23.3837 10.0126 27.4823 10.0126C27.5091 10.0135 27.5361 10.0135 27.5629 10.0126C31.6488 10.0401 35.3315 12.7155 36.8207 16.8583C38.3098 21.0005 37.1908 26.1738 34.1303 29.0872C34.0049 29.1987 33.9033 29.3341 33.8315 29.4857C33.7596 29.6373 33.719 29.8018 33.7121 29.9694C33.7052 30.1371 33.732 30.3044 33.7911 30.4614C33.8502 30.6184 33.9403 30.762 34.056 30.8834C34.1717 31.0049 34.3108 31.1019 34.4647 31.1685C34.6187 31.2351 34.7846 31.2701 34.9523 31.2713C35.1201 31.2725 35.2863 31.2399 35.4412 31.1755C35.5961 31.1111 35.7365 31.0161 35.854 30.8963C39.7336 27.2032 41.011 21.1203 39.1742 16.0111C37.3453 10.9235 32.7062 7.50285 27.5019 7.50285V7.49828Z" fill="url(#paint16_linear_106_812)"/>
<defs>
<linearGradient id="paint0_linear_106_812" x1="26.5622" y1="7.49829" x2="26.5622" y2="31.2714" gradientUnits="userSpaceOnUse">
<stop stop-color="#EB4716"/>
<stop offset="1" stop-color="#FDF29F"/>
</linearGradient>
<linearGradient id="paint1_linear_106_812" x1="26.5622" y1="7.49829" x2="26.5622" y2="31.2714" gradientUnits="userSpaceOnUse">
<stop stop-color="#EB4716"/>
<stop offset="1" stop-color="#FDF29F"/>
</linearGradient>
<linearGradient id="paint2_linear_106_812" x1="26.5622" y1="7.49829" x2="26.5622" y2="31.2714" gradientUnits="userSpaceOnUse">
<stop stop-color="#EB4716"/>
<stop offset="1" stop-color="#FDF29F"/>
</linearGradient>
<linearGradient id="paint3_linear_106_812" x1="26.5622" y1="7.49829" x2="26.5622" y2="31.2714" gradientUnits="userSpaceOnUse">
<stop stop-color="#EB4716"/>
<stop offset="1" stop-color="#FDF29F"/>
</linearGradient>
<linearGradient id="paint4_linear_106_812" x1="26.5622" y1="7.49829" x2="26.5622" y2="31.2714" gradientUnits="userSpaceOnUse">
<stop stop-color="#EB4716"/>
<stop offset="1" stop-color="#FDF29F"/>
</linearGradient>
<linearGradient id="paint5_linear_106_812" x1="26.5622" y1="7.49829" x2="26.5622" y2="31.2714" gradientUnits="userSpaceOnUse">
<stop stop-color="#EB4716"/>
<stop offset="1" stop-color="#FDF29F"/>
</linearGradient>
<linearGradient id="paint6_linear_106_812" x1="26.5622" y1="7.49829" x2="26.5622" y2="31.2714" gradientUnits="userSpaceOnUse">
<stop stop-color="#EB4716"/>
<stop offset="1" stop-color="#FDF29F"/>
</linearGradient>
<linearGradient id="paint7_linear_106_812" x1="26.5622" y1="7.49829" x2="26.5622" y2="31.2714" gradientUnits="userSpaceOnUse">
<stop stop-color="#EB4716"/>
<stop offset="1" stop-color="#FDF29F"/>
</linearGradient>
<linearGradient id="paint8_linear_106_812" x1="26.5622" y1="7.49829" x2="26.5622" y2="31.2714" gradientUnits="userSpaceOnUse">
<stop stop-color="#EB4716"/>
<stop offset="1" stop-color="#FDF29F"/>
</linearGradient>
<linearGradient id="paint9_linear_106_812" x1="26.5622" y1="7.49829" x2="26.5622" y2="31.2714" gradientUnits="userSpaceOnUse">
<stop stop-color="#EB4716"/>
<stop offset="1" stop-color="#FDF29F"/>
</linearGradient>
<linearGradient id="paint10_linear_106_812" x1="26.5622" y1="7.49829" x2="26.5622" y2="31.2714" gradientUnits="userSpaceOnUse">
<stop stop-color="#EB4716"/>
<stop offset="1" stop-color="#FDF29F"/>
</linearGradient>
<linearGradient id="paint11_linear_106_812" x1="26.5622" y1="7.49829" x2="26.5622" y2="31.2714" gradientUnits="userSpaceOnUse">
<stop stop-color="#EB4716"/>
<stop offset="1" stop-color="#FDF29F"/>
</linearGradient>
<linearGradient id="paint12_linear_106_812" x1="26.5622" y1="7.49829" x2="26.5622" y2="31.2714" gradientUnits="userSpaceOnUse">
<stop stop-color="#EB4716"/>
<stop offset="1" stop-color="#FDF29F"/>
</linearGradient>
<linearGradient id="paint13_linear_106_812" x1="26.5622" y1="7.49829" x2="26.5622" y2="31.2714" gradientUnits="userSpaceOnUse">
<stop stop-color="#EB4716"/>
<stop offset="1" stop-color="#FDF29F"/>
</linearGradient>
<linearGradient id="paint14_linear_106_812" x1="26.5622" y1="7.49829" x2="26.5622" y2="31.2714" gradientUnits="userSpaceOnUse">
<stop stop-color="#EB4716"/>
<stop offset="1" stop-color="#FDF29F"/>
</linearGradient>
<linearGradient id="paint15_linear_106_812" x1="26.5622" y1="7.49829" x2="26.5622" y2="31.2714" gradientUnits="userSpaceOnUse">
<stop stop-color="#EB4716"/>
<stop offset="1" stop-color="#FDF29F"/>
</linearGradient>
<linearGradient id="paint16_linear_106_812" x1="26.5622" y1="7.49829" x2="26.5622" y2="31.2714" gradientUnits="userSpaceOnUse">
<stop stop-color="#EB4716"/>
<stop offset="1" stop-color="#FDF29F"/>
</linearGradient>
</defs>
</svg>
