<?xml version="1.0"?>
<svg xmlns="http://www.w3.org/2000/svg" id="Layer_51" data-name="Layer 51" viewBox="0 0 32 32">
    <path fill="#fff" d="m28.9955597,28.5915728l-2.6199901-17.4243146c-.3689579-2.4546509-2.2579696-4.401878-4.7002096-4.8453178L3.4186034,3.0058002c-.1027604-.0189515-.2104567.0090187-.2911984.0768621-.0809246.0675387-.1277416.1674147-.1277416.2728564v13.1020815c0,.1924193.1531321.3499216.3455514.3553653l12.3645586.3475247,2.4428494,11.557446c.0347139.1643476.179724.2819766.3477278.2819766h10.143707c.2110217.0049359.387902-.2004427.3515022-.40834Zm-11.8912799-16.6506969c.2539049.3953401.3336513.9125545.2189879,1.4190846-.2092786.9251685-.998354,1.5374043-1.7602718,1.3655411-.7073587-.1599804-1.1590453-.9674183-1.0285179-1.8381495.0325405-.1906521-.1127135-.3837214-.304889-.405151l-10.518992-1.388941v-3.891387l11.1857056,2.4929398c.1797037.0403607.3596309-.0632934.415754-.238244.2687939-.8364033,1.0045087-1.3466912,1.7112817-1.1866093.7613253.1721881,1.2104154,1.0649177,1.0011537,1.9900862-.1146634.5065098-.4092337.9390419-.8085347,1.1867921-.1660335.0984135-.2191707.3337123-.1116775.494038Zm5.0160027,16.3481032l-1.8993304-9.8511239c-.0317245-.1645304-.1739553-.2845563-.3415732-.288111-.9235841-.0197436-1.6751832-.6538153-1.6751832-1.4133362,0-.7805646.7716271-1.4155299,1.7202158-1.4155299.5193066,0,1.0062962.1919115,1.3357631.5266597.132579.1401352.3739511.1402164.5064285.0001016.3298732-.3347482.8168628-.5267612,1.3359866-.5267612.9485683,0,1.7201954.6349654,1.7201954,1.4155299,0,.728768-.6639308,1.3340772-1.5444491,1.4079737-.2038181.0124515-.3613204.2187645-.3197612.4186384l1.7926127,9.7259589h-2.6309051Zm3.3538601,0l-1.7502984-9.4957586c1.0549037-.2400112,1.8098747-1.0717427,1.8098747-2.0568124,0-1.1725328-1.0905926-2.1264636-2.4311291-2.1264636-.5877593,0-1.150311.1854724-1.5890993.51693-.4385851-.3314576-1.0011368-.51693-1.589079-.51693-1.3405365,0-2.4311494.9539308-2.4311494,2.1264636,0,1.0766177.8932408,1.9563474,2.0810248,2.1032466l1.8217777,9.4493245h-2.6074813l-2.441265-11.5494023c-.0339217-.160671-.1735694-.2772235-.3378154-.2818751l-12.2989059-.3457575v-4.3015754l10.0899334,1.3322898c-.0228108,1.1078581.6244468,2.0543343,1.6057554,2.2763081.1378602.0311389.2761266.046231.4133978.0461294.9999384,0,1.9370099-.7985207,2.1970694-1.9482224.1297149-.5735813.0729858-1.1631078-.1535414-1.6640724.4199384-.3546747.7250102-.8623829.8547454-1.4358626.2957687-1.3075086-.3941416-2.5816846-1.537912-2.8404645-.9745479-.2200848-1.968941.3538825-2.4269651,1.3580052L3.7105971,6.4734707v-2.6920622l17.8378105,3.2399483c2.1429166.3891854,3.800428,2.0978028,4.1241669,4.2516273l2.5584878,17.0159949h-2.7569196Zm-3.7759719-18.5707663l-.7331554-.1555117c-.6429446-.1509617-1.3317819.3047468-1.4448778.9555152l-.3149877,1.6115851v.0001016c-.1455383.6705933.3645499,1.3720005,1.0475506,1.4395392l2.1308104.2561799c.6986447.1011557,1.3770582-.4991161,1.3601822-1.2064545v-.3759824c0-1.2117154-.8603146-2.2735457-2.0455223-2.5249724Zm1.3345886,2.9009548c.0073125.2939406-.2734693.5432143-.5643427.5006801l-2.1308307-.2562002c-.2837032-.0274624-.4957645-.3189249-.4346039-.5973671l.3150046-1.6116054c.0471247-.2700329.3320467-.4590804.5994593-.3965182l.7331351.1555117c.8589094.1822022,1.4821784.9515543,1.4821784,1.8295168v.3759824Z"/>
</svg>