<?xml version="1.0"?>
<svg xmlns="http://www.w3.org/2000/svg" id="Layer_51" data-name="Layer 51" viewBox="0 0 32 32">
    <path fill="#fff" d="m25.7696401,8.2584391l-4.6847733-1.6757812-.6222734-3.2932453c-.0317281-.1678219-.1785266-.2894125-.3493121-.2894125h-8.2265625c-.1708908,0-.3175877.1215906-.3493158.2894125l-.6222734,3.2932453-4.6846718,1.6757812c-1.9322671.6910922-3.2304578,2.5342891-3.2304578,4.5863797v15.7997125c0,.1963812.1591875.3554688.3554688.3554688h25.2890625c.1963791,0,.3554688-.1590875.3554688-.3554688v-15.7997125c0-2.0520906-1.2982959-3.8952875-3.2303599-4.5863797Zm-10.8296091,20.0306234l1.0032343-2.4561469c.9868625-2.4166797.7095562-5.4145609-.6905031-7.4596844-1.345114-1.9650109-1.8338716-4.6262531-1.3075156-7.1186984.0683516-.3697078.496214-.5958266.8464219-.4701328.32045.106925.5119765.4288578.4455141.7488203-.4470984,2.1518656-.0340234,4.4298719,1.105,6.0941563,1.6658484,2.4335391,1.9889999,5.8503453.8234078,8.7046172l-.7994187,1.9570687h-1.4261406Zm13.3490315,0h-4.1467969v-11.658075l1.2780625-1.6303625c.1211823-.1545172.0940042-.3780766-.0603099-.4990781-.1541312-.1207984-.3778937-.0940266-.4990964.0603078l-1.3538281,1.7269484c-.0491989.0626844-.0757656.1398516-.0757656.2193953v11.7808641h-6.2971206l.6895484-1.6882938c1.2536672-3.0694828.9023625-6.7495391-.8948265-9.3748891-1.0167015-1.4853516-1.3981703-3.6112172-.9956781-5.5478516.1398516-.6730344-.2542109-1.3470844-.9167437-1.5680641-.7384406-.2658297-1.6212218.2238234-1.7669234.9977703-.5656422,2.6787109-.0361156,5.5448859,1.416614,7.6669734,1.2705265,1.8562984,1.5192734,4.5845922.6189015,6.7892297l-1.1130216,2.725125h-5.6034063v-11.7808641c0-.0795438-.026672-.1567109-.0756657-.2193953l-1.3538484-1.7269484c-.1210016-.1545172-.3445406-.1813094-.4990781-.0603078-.1545172.1210016-.1815937.3445609-.0604906.4990781l1.2781454,1.6303625v11.658075H3.7109375v-15.4442438c0-1.7525625,1.1087562-3.3267812,2.7589437-3.9171031l4.8764014-1.7442141c.1188078-.0424531.2060924-.1446047.2295922-.2685922l.605414-3.2039719h7.6374186l.605414,3.2039719c.0234.1239875.1108859.2261391.2295109.2685922l4.8763832,1.7442141c1.6503906.5903219,2.7590469,2.1645406,2.7590469,3.9171031v15.4442438Zm-16.5791861-10.1447531c-.1078187.0182609-.2011344.0852922-.2530125.1815125l-1.2407687,2.3006141c-.0581141.1077172-.0567328.2378391.0036766.344175.0602875.1065187.1711734.1743625.293475.1797047l3.9614249.1751547c.0052609.0002031.0105219.0004063.0157828.0004063.1434062,0,.2734469-.0864906.3284734-.2199844.0571391-.1382672.0213281-.2975578-.0893547-.3983078l-2.7206562-2.4757891c-.0808437-.0737953-.1912219-.1073109-.2990406-.0874859Zm-.5990562,2.3208656l.7558687-1.4016437,1.6575203,1.5083656-2.413389-.1067219Zm3.2320437,1.2465172l-2.973689.7313719c-.1235609.0303469-.2214672.1245766-.2566687.2467563-.0352219.1222-.0023766.2541094.0860844.3455563l1.3623593,1.4083875c.1440969.1559594.4159408.1390391.5394594-.0333328l1.6113093-2.1397391c.0904534-.1200266.0955094-.2840703.0126953-.4096219-.0828141-.1255719-.2356453-.1856766-.38155-.1493781Zm-1.5601421,1.9388078l-.6430937-.6649094,1.4037359-.34515-.7606422,1.0100594Zm9.5653408-7.3735797c-.0077411-.1219969-.0777786-.2315016-.1854754-.2898188l-2.2988468-1.2443437c-.0960172-.0519594-.2108641-.0565297-.3112281-.0132844-.1003844.0438344-.1747687.1311172-.20215.2370469l-.9188156,3.5620203c-.0911403.3099281.2963187.5747016.55185.3772844l3.2176624-2.3176766c.0993891-.0714188.1549254-.1890484.1470036-.3112281Zm-2.9826082,1.4776125l.5597719-2.1701062,1.4004656.7581437-1.9602375,1.4119625Zm2.8280687.3840281l-2.8881734,1.0182047c-.1418422.0499891-.2368641.1836859-.23725.3340391-.0004062.1503734.0936203.2848625.2352594.3356437l2.5204156.9065266c.1973156.0766797.4347687-.0586016.4693203-.2678l.3677801-1.9247312c.0240074-.1249625-.0208223-.2531141-.1172458-.3362328-.0965859-.0829156-.2296917-.1083063-.3501062-.06565Zm-.5207109,1.7846766l-1.1895812-.4278625,1.3633547-.4806344-.1737734.9084969Z"/>
</svg>