<svg width="84" height="75" viewBox="0 0 84 75" fill="none" xmlns="http://www.w3.org/2000/svg">
<path d="M76.8721 7.06646C72.2715 2.50934 66.151 0 59.644 0C53.137 0 47.0165 2.50934 42.4159 7.06304L41.9979 7.48012L41.58 7.06646C36.9793 2.50934 30.8588 0 24.3519 0C17.8449 0 11.7243 2.50934 7.12372 7.06646C-2.37457 16.4677 -2.37457 31.7704 7.12372 41.1752L40.8001 74.5077C41.1317 74.8359 41.5669 75 41.9987 75C42.4339 75 42.8691 74.8359 43.1972 74.5077L76.8736 41.1752C86.3755 31.7704 86.3755 16.4712 76.8736 7.06646H76.8721ZM60.8386 41.8036C60.8386 42.7301 60.0787 43.4856 59.1392 43.4856H50.5871V51.9504C50.5871 52.8769 49.8272 53.6324 48.8877 53.6324L35.1027 53.629C34.1667 53.629 33.4034 52.8769 33.4034 51.947V43.4822H24.8513C23.9152 43.4822 23.1519 42.7301 23.1519 41.8002L23.1554 28.156C23.1554 27.2295 23.9152 26.474 24.8547 26.474H33.4068V18.0092C33.4068 17.0827 34.1667 16.3272 35.1062 16.3272H48.8947C49.8308 16.3272 50.5941 17.0793 50.5941 18.0092V26.474H59.1462C60.0822 26.474 60.8456 27.2261 60.8456 28.156L60.8386 41.8036Z" fill="#6A1314"/>
</svg>
