<svg width="50" height="89" viewBox="0 0 50 89" fill="none" xmlns="http://www.w3.org/2000/svg">
<path d="M46.2464 36.9968C44.2831 40.3341 40.8619 42.7444 36.845 43.3662C36.1318 43.4783 35.4224 43.5362 34.721 43.5362C31.531 43.5362 28.4312 42.4276 25.9976 40.3573C25.5978 40.0174 24.9983 40.0174 24.6103 40.3573C21.6359 42.8796 17.6778 43.9766 13.7513 43.3663C9.59732 42.7329 6.0821 40.1757 4.16572 36.6569C1.53615 38.7504 0 41.2611 0 43.9534C0 46.804 1.70861 49.4422 4.61256 51.5899C6.59946 48.4572 9.90301 46.2169 13.7514 45.626C17.6782 45.0157 21.6362 46.1127 24.5984 48.635C24.9981 48.9749 25.5977 48.9749 25.9974 48.635C28.9717 46.1127 32.9181 45.0157 36.8443 45.626C40.5633 46.2015 43.7768 48.3183 45.7872 51.2848C48.452 49.1913 50 46.6689 50 43.9535C50 41.3965 48.6213 39.0208 46.2464 36.9968Z" fill="#6A1314"/>
<path d="M6.05792 35.3434C7.61764 38.364 10.5803 40.5928 14.1033 41.1374C17.3638 41.6357 20.6478 40.7318 23.1011 38.6383C23.7321 38.1169 24.5119 37.8465 25.2918 37.8465C26.0716 37.8465 26.8633 38.1169 27.4824 38.6383C29.9513 40.7319 33.2236 41.6357 36.4802 41.1374C39.8896 40.6044 42.7817 38.5109 44.3885 35.6293C45.043 34.4628 45.4779 33.1534 45.6504 31.7821C46.2813 26.7144 43.3657 21.9517 38.5455 20.1861C35.8023 19.178 34.0231 16.7367 34.0231 13.9866L34.031 2.86218C34.031 2.00082 33.8703 0 32.3419 0H18.2455C17.3167 0 16.5565 0.745493 16.5565 1.6648V13.9748C16.5565 16.7366 14.7891 19.1778 12.0341 20.1859C7.21385 21.9511 4.29826 26.7138 4.92919 31.7819C5.08987 33.0488 5.48175 34.2502 6.05392 35.3472L6.05792 35.3434Z" fill="#6A1314"/>
<path d="M43.9139 52.5867C42.2483 50.1108 39.5757 48.3455 36.4877 47.8589C33.2272 47.3606 29.9549 48.2645 27.4899 50.358C26.2397 51.4086 24.3548 51.4086 23.1046 50.358C21.0825 48.6507 18.5235 47.7236 15.8743 47.7236C15.2904 47.7236 14.7026 47.77 14.107 47.8588C10.9052 48.3571 8.17373 50.2343 6.53174 52.8494C5.6931 54.1511 5.14447 55.6343 4.93681 57.2296C4.30586 62.2858 7.22147 67.0485 12.0417 68.8257C14.7967 69.8338 16.5641 72.2635 16.5641 75.0252V87.3352C16.5641 88.2506 17.3204 89 18.2531 89H32.3495C33.8779 89 34.0386 86.9992 34.0386 86.1378V75.0293C34.0386 72.2674 35.8177 69.8379 38.5609 68.8298C43.3812 67.0529 46.2968 62.2903 45.6658 57.2337C45.4464 55.538 44.8389 53.9543 43.9219 52.5947L43.9139 52.5867Z" fill="#6A1314"/>
</svg>
