<svg width="56" height="89" viewBox="0 0 56 89" fill="none" xmlns="http://www.w3.org/2000/svg">
<path d="M7.12087 9.13794C6.97066 8.06026 7.13627 7.08295 7.89119 6.28719C8.14155 6.02066 8.51515 5.89705 8.87335 5.97817L14.7278 7.27222L13.0408 3.50982C12.8714 3.13512 12.9522 2.69863 13.2219 2.38962C14.1809 1.28484 15.4635 0.848346 17.0503 1.0569C17.4085 1.10326 17.7051 1.36206 17.8322 1.70199C18.7258 4.08143 22.2385 13.4489 22.1499 13.8C20.1932 15.4185 18.5871 17.1877 17.2814 19.1461C16.9887 17.0022 16.2993 15.0013 15.5174 13.8347C13.8573 11.3663 10.957 10.4895 7.97209 9.99119C7.53301 9.91779 7.18636 9.574 7.12473 9.13364L7.12087 9.13794ZM14.6315 17.443C12.8175 16.2532 6.16956 18.1653 6.56623 20.2126L6.6163 20.2937C7.54455 21.8157 16.1952 19.5791 14.6315 17.443ZM15.475 29.6962C15.5251 29.7194 15.579 29.7271 15.6291 29.758C16.1606 30.0554 16.592 30.5615 16.9155 31.2606C17.8399 33.2732 17.786 35.8072 17.5934 38.2446L17.5626 38.6309C17.5048 39.388 17.4317 40.3034 17.2468 41.2112C18.5294 40.597 19.9506 40.0679 21.4836 39.8785C22.5197 39.7472 23.5365 39.8051 24.484 40.0176V34.8144C24.484 28.3635 28.1353 23.1139 31.5479 22.2566C33.4275 21.7892 35.1338 22.5772 36.3123 24.4198L42.1205 22.8631C40.5684 18.9191 38.0725 16.3774 34.6677 15.3383L33.285 14.9134L34.1477 13.7506C36.0234 11.2282 38.6695 9.96896 42.0512 9.99981C42.498 10.0037 42.9063 9.73328 43.0526 9.30836C43.457 8.11478 43.4416 7.02929 42.6521 6.13702C42.4248 5.87821 42.0782 5.75074 41.7354 5.79709L37.2444 6.42287L38.0494 3.30947C38.1572 2.89228 37.9877 2.45193 37.6372 2.20084C36.6512 1.50554 35.5535 1.36647 34.348 1.75276C34.063 1.8416 33.8434 2.07723 33.7394 2.35536L31.7751 7.5547L32.1526 1.60599C32.1795 1.20812 31.9638 0.83729 31.621 0.636419C30.5156 -0.00481125 29.156 -0.163181 27.5345 0.169014C27.1378 0.250134 26.8412 0.574614 26.768 0.97248C25.8514 5.92074 24.4493 13.2178 24.0296 14.6665L23.941 14.9755L23.6945 15.1764C19.0649 18.9195 16.4574 23.551 15.4867 29.6932L15.475 29.6962ZM36.3046 26.5326C36.0542 26.606 33.8781 27.2085 32.3913 27.2085C32.2603 27.2085 32.1332 27.2047 32.0138 27.1931C31.0355 27.1081 30.1149 26.7798 29.3408 26.2506C27.7578 28.2283 26.5176 31.392 26.5176 34.8183V40.7786C27.0453 41.0722 27.5267 41.4237 27.9427 41.8409C28.4857 42.3894 28.8979 42.9997 29.2907 43.5907C29.5912 44.0349 29.8685 44.456 30.192 44.8229C30.6542 45.3483 31.386 45.7848 32.0022 45.7925L35.5727 35.3865C36.4239 32.9143 38.5384 31.0447 41.0921 30.5116L50.5517 28.6343C50.5979 28.6189 50.6364 28.588 50.6904 28.5803L50.725 28.5725C50.2551 27.742 49.9431 26.6373 49.8623 25.4012C49.8045 24.5243 49.8738 23.6398 50.0625 22.844L36.3086 26.5331L36.3046 26.5326ZM53.6712 28.1008L53.7752 28.0931C55.6124 27.1274 55.0116 23.2066 53.4208 22.268C52.8585 21.9242 52.3154 22.6234 52.1305 23.2144C51.5104 24.7325 52.0612 27.6218 53.6712 28.1008ZM55.8782 36.9351C55.7858 36.5681 55.5084 36.2707 55.1425 36.1703L51.264 35.1273L54.1565 34.4127C54.5417 34.3161 54.846 34.0071 54.9153 33.6131C55.0617 32.7517 54.9885 31.8594 54.4223 30.7236C54.2143 30.3103 53.756 30.0747 53.3053 30.1635L41.4959 32.5083C39.6471 32.8945 38.1141 34.2504 37.494 36.0466L34.0314 46.1441C36.9163 46.8432 39.4198 48.1913 41.4959 49.3154C43.1983 50.2386 44.6696 51.0382 45.6826 51.1039C46.3489 51.1464 46.9382 51.1039 47.4582 50.9957C47.5082 50.9803 47.5583 50.9648 47.6084 50.9571C47.9704 50.8682 48.3094 50.7524 48.5905 50.5824C49.3917 50.1111 50.0426 49.2073 50.3815 48.1025C50.9593 46.2213 50.578 44.0774 49.3878 42.5092C48.1977 40.9409 46.2334 40.0138 44.2767 40.0678C42.9557 40.1064 41.6384 40.6048 40.5676 41.4623C40.1286 41.8177 39.4891 41.7443 39.1387 41.304C38.7882 40.8636 38.8575 40.2223 39.2966 39.8709C40.7102 38.7352 42.4549 38.0824 44.2152 38.0283C45.5402 38.0013 48.1091 38.882 48.1361 38.8897L54.1793 40.4233C54.5838 40.5275 55.0151 40.373 55.2578 40.0331C55.9165 39.1215 56.1745 38.1017 55.8779 36.9313L55.8782 36.9351ZM5.73056 46.708C6.63569 46.2599 7.57549 45.9354 8.48834 45.6225C9.08149 45.4178 9.67846 45.2169 10.2601 44.9774C11.5773 44.4328 12.8021 43.7105 14.0963 42.9456C14.1541 42.9108 14.2118 42.8799 14.2658 42.8451C15.2671 42.1189 15.429 39.9287 15.5368 38.4801L15.5676 38.0823C15.741 35.9191 15.7987 33.698 15.0708 32.1103C14.9013 31.7395 14.7434 31.5927 14.6394 31.5347C14.4584 31.4343 14.1348 31.4266 13.6765 31.5154C12.8137 31.6854 11.9779 32.0176 11.0959 32.3691C10.8147 32.4811 10.5374 32.5893 10.2563 32.6975L9.65539 32.9215C8.72715 33.2653 7.84902 33.5936 7.00548 34.0224C4.96029 35.0654 3.43503 36.3556 2.47594 37.8582C1.60162 39.2256 0.488528 41.3657 0.141845 43.8263C-0.17784 46.0861 0.0417072 48.535 0.81203 51.4013C1.95985 49.4158 3.64682 47.7471 5.73056 46.7118V46.708ZM6.08106 32.2071C7.02856 31.7242 8.00299 31.3611 8.94661 31.0135L9.53591 30.7933C9.80552 30.689 10.0713 30.5847 10.3409 30.4765C11.273 30.1057 12.2359 29.7194 13.2874 29.5186C13.3336 29.5108 13.3953 29.5031 13.4492 29.4954C13.8228 27.0773 14.4198 24.8677 15.2826 22.8513C15.4174 22.0053 15.4289 21.1246 15.3634 20.2593C14.2696 21.2328 12.7482 21.959 11.612 22.3028C10.6799 22.577 9.55524 22.8088 8.42665 22.8088C7.93364 22.8088 7.44449 22.7586 6.96685 22.6543C7.0747 24.4235 6.57399 26.1115 6.04247 27.4944C5.46472 28.9931 4.96397 31.1022 5.14889 32.7285C5.44932 32.5508 5.76129 32.377 6.08483 32.2148L6.08106 32.2071ZM47.675 53.1516C47.417 53.1013 47.1358 53.0898 46.8392 53.1207C44.5128 53.3795 42.4947 52.1743 40.5265 51.1081C39.0705 50.3162 37.4914 49.4703 35.7736 48.8136C36.1202 50.3587 36.4361 51.9308 36.6787 53.5223C38.2695 53.8893 39.606 54.7971 40.7383 56.2804C41.7821 57.644 42.3291 59.3359 42.3098 61.0433L44.6247 62.6194C45.0908 62.9361 45.2102 63.5696 44.8943 64.037C44.6979 64.3267 44.3782 64.4812 44.0508 64.4812C43.8544 64.4812 43.6541 64.4233 43.4808 64.3036L41.9748 63.276C41.9363 63.4305 41.8978 63.5889 41.8554 63.7395C41.686 64.373 41.5242 64.9679 41.4857 65.555C41.4318 66.3624 41.7515 67.3204 42.3793 67.5174C42.9146 67.6873 43.2112 68.259 43.0418 68.796C42.9031 69.2325 42.5025 69.5067 42.0711 69.5067C41.971 69.5067 41.867 69.4913 41.7669 69.4604C40.0298 68.9119 39.3519 66.9805 39.4558 65.4161C39.5098 64.6319 39.7062 63.9058 39.8949 63.2065C40.0336 62.7005 40.1607 62.2215 40.23 61.7502C40.4419 60.2784 40.0297 58.6986 39.1284 57.5204C38.4737 56.6668 37.7573 56.1066 36.9485 55.7629C36.987 56.1762 37.0409 56.5857 37.0602 56.999C37.2527 60.8194 36.6326 64.1607 35.2152 66.9264C35.1844 66.9843 35.1498 67.0384 35.1189 67.0964C37.168 69.8389 37.8113 73.6168 36.7251 76.8731C36.5826 77.298 36.1858 77.5684 35.7622 77.5684C35.6543 77.5684 35.5465 77.553 35.4386 77.5144C34.9071 77.3367 34.6182 76.7572 34.7993 76.2242C35.5888 73.8563 35.2499 71.1369 33.9673 69.0007C33.6669 69.4526 33.3588 69.8969 33.0506 70.3295C32.4228 71.2218 31.8296 72.0639 31.3213 72.9602C30.5894 74.2465 29.4956 76.7303 30.3776 78.905C30.5894 79.4265 30.3391 80.0214 29.8191 80.2339C29.6959 80.2841 29.5649 80.3073 29.4378 80.3073C29.0372 80.3073 28.6559 80.0678 28.4942 79.6699C27.7123 77.7385 27.9087 75.3899 29.0295 72.968C27.4004 73.5744 25.7133 73.9877 24.3768 74.2736C24.3036 74.289 24.2342 74.2968 24.1611 74.2968C23.6912 74.2968 23.2713 73.9684 23.1674 73.4933C23.048 72.9448 23.3985 72.4001 23.9492 72.2842C26.0214 71.84 28.9756 71.0906 30.9669 69.7656C31.1094 69.5609 31.2519 69.3523 31.3906 69.1514C32.1378 68.0892 32.8465 67.0849 33.405 65.9916C34.4565 63.9366 35.0034 61.4914 35.0458 58.7064C34.8109 58.9961 34.5567 59.2858 34.2716 59.5871C33.5167 60.3828 32.6617 61.0395 31.8374 61.673C31.3752 62.0284 30.913 62.3799 30.4739 62.7624C29.1374 63.9097 28.3902 65.0144 28.1976 66.1385C28.1129 66.633 27.6815 66.9845 27.1962 66.9845C27.1384 66.9845 27.0807 66.9806 27.0229 66.969C26.4683 66.8725 26.0985 66.3471 26.1948 65.7909C26.4374 64.3886 27.2039 63.0753 28.525 61.7851C27.1424 61.8353 25.7749 62.183 24.5424 62.8281C24.3922 62.9053 24.2304 62.944 24.0725 62.944C23.7066 62.944 23.3523 62.7431 23.1713 62.3954C22.9132 61.8971 23.1058 61.2791 23.6026 61.0203C25.7981 59.8692 28.344 59.479 30.7936 59.904C31.5177 59.3477 32.2072 58.8069 32.7964 58.1811C34.21 56.6862 34.8763 55.4771 34.7838 54.5772C34.495 52.3985 34.0135 50.2277 33.5282 48.1069C33.0583 47.9949 32.5846 47.8944 32.0916 47.8288C32.0685 47.8249 32.0531 47.8133 32.0338 47.8095C30.7282 47.8172 29.4456 47.0524 28.6598 46.1562C28.2515 45.6926 27.9203 45.1943 27.6006 44.7154C27.2424 44.1823 26.9074 43.6762 26.4991 43.2707C25.409 42.1775 23.6257 41.6676 21.727 41.8956C19.805 42.1351 17.9909 43.0467 16.4695 43.912C16.0189 44.1669 15.5683 44.4335 15.1215 44.6961C13.8196 45.4648 12.4792 46.2567 11.0272 46.8555C10.8115 46.9443 10.592 47.0138 10.3763 47.095C9.83323 49.0379 10.072 51.232 11.0311 53.0013C12.0132 54.809 13.7734 56.2267 15.7416 56.8023C16.2808 56.9568 16.5928 57.5247 16.4348 58.0654C16.3077 58.5096 15.8995 58.7993 15.4604 58.7993C15.3679 58.7993 15.2717 58.7878 15.1792 58.7569C14.1971 58.471 13.2688 58.0268 12.4253 57.459C12.5793 58.9307 13.2072 60.3561 14.2471 61.4183C14.64 61.8201 14.6323 62.4652 14.2279 62.8591C14.0314 63.0523 13.7734 63.1488 13.5192 63.1488C13.2534 63.1488 12.9915 63.0445 12.7912 62.8398C10.9732 60.9702 10.0989 58.2662 10.4302 55.682C10.0836 55.2764 9.77159 54.8399 9.49428 54.3802C8.78944 54.7472 8.18475 55.4464 7.89585 56.3078C7.47987 57.5439 7.68402 58.8727 7.92281 59.7727C8.2579 61.0049 8.8549 62.2101 9.4326 63.3767C9.68296 63.8788 9.47882 64.493 8.97426 64.7441C8.8279 64.8175 8.67383 64.8523 8.52362 64.8523C8.15001 64.8523 7.79181 64.6437 7.61079 64.2883C6.98683 63.0329 6.34357 61.735 5.95843 60.3096C5.50394 58.6293 5.50779 57.0224 5.96613 55.6588C6.43603 54.2605 7.41439 53.1325 8.61604 52.5299C8.09992 51.0466 7.9343 49.4551 8.14229 47.8984C7.61847 48.0877 7.11004 48.2885 6.62472 48.528C2.89246 50.3822 0.604618 54.8901 1.30183 59.0082C3.11205 69.6772 10.8692 80.0298 22.0426 86.6969C24.0493 87.8904 26.4411 89.115 28.9178 88.9914C30.7704 88.9102 32.7501 88.045 34.4949 86.55C36.1588 85.1208 37.4992 83.2666 38.697 81.4781C42.98 75.0852 46.4387 68.1549 48.9692 60.8817C49.5277 59.2786 50.0593 57.5751 49.8744 55.9566C49.7126 54.5544 48.9192 53.3916 47.6635 53.1406L47.675 53.1516Z" fill="#6A1314"/>
</svg>
