<?xml version="1.0" ?><svg data-name="Layer 10" id="Layer_10" viewBox="0 0 32 32" xmlns="http://www.w3.org/2000/svg"><title/><path d="M22.662,12.2a10.474,10.474,0,0,0-3.737-7.8,10.309,10.309,0,0,0-8.443-2.241A10.444,10.444,0,0,0,2.018,13.127a10.908,10.908,0,0,0,1.415,4.511C3.6,17.971,3.761,18.288,3.9,18.6a10.685,10.685,0,0,1-.6,9.914A1,1,0,0,0,4.165,30H16a1,1,0,0,0,1-1V25.273h1.165A3.352,3.352,0,0,0,21.5,21.909V19.364h1.334a2.181,2.181,0,0,0,1.885-3.256Zm0.311,5.076a0.151,0.151,0,0,1-.141.086H20.5a1,1,0,0,0-1,1v3.545a1.35,1.35,0,0,1-1.333,1.364H13.981a2.936,2.936,0,0,1-2.1-.885,1,1,0,0,0-1.424,1.405,4.926,4.926,0,0,0,3.528,1.479H15V28H5.769a12.579,12.579,0,0,0-.039-10.2c-0.149-.344-0.326-0.7-0.512-1.064a9,9,0,0,1-1.2-3.72,8.343,8.343,0,0,1,6.815-8.885,8.208,8.208,0,0,1,6.811,1.8,8.484,8.484,0,0,1,3.025,6.519,1,1,0,0,0,.115.466l2.191,4.163A0.183,0.183,0,0,1,22.973,17.278Z"/><path d="M29.431,5.649c-0.465-1.172-.564-1.614-0.238-1.922a1,1,0,1,0-1.373-1.454C26.452,3.564,27.1,5.2,27.572,6.387c0.459,1.157.559,1.591,0.247,1.886a1,1,0,1,0,1.373,1.454C30.543,8.452,29.9,6.832,29.431,5.649Z"/><path d="M25.124,3.786a1,1,0,1,0-1.236-1.572c-1.5,1.183-.743,2.778-0.289,3.731,0.5,1.042.443,1.147,0.289,1.269a1,1,0,1,0,1.236,1.571c1.486-1.169.731-2.753,0.28-3.7C24.9,4.024,24.953,3.92,25.124,3.786Z"/><path d="M9.646,6.481C9.024,7.5,7,10.959,7,12.5a3.5,3.5,0,0,0,7,0c0-1.541-2.024-5-2.646-6.019A1.04,1.04,0,0,0,9.646,6.481ZM10.5,14A1.5,1.5,0,0,1,9,12.5a12.9,12.9,0,0,1,1.5-3.492A12.88,12.88,0,0,1,12,12.5,1.5,1.5,0,0,1,10.5,14Z"/></svg>