<?xml version="1.0" ?>
<svg xmlns="http://www.w3.org/2000/svg" xmlns:xlink="http://www.w3.org/1999/xlink" version="1.1" viewBox="0 0 512 512" style="enable-background:new 0 0 512 512;" xml:space="preserve">
    <g id="_x32_8_x2C__Smiling_x2C__happy_x2C__wellness_x2C__gestures_x2C__interface_x2C__wellnes_x2C__emotion">
        <g>
        <g>
            <path style="fill:#fff;" d="M150.688,211.101v24.966c0,5.867,4.757,10.624,10.624,10.624c5.867,0,10.624-4.757,10.624-10.624     v-24.966c0-5.867-4.757-10.624-10.624-10.624C155.445,200.476,150.688,205.233,150.688,211.101z"/>
            <path style="fill:#fff;" d="M330.866,200.476c-5.867,0-10.624,4.757-10.624,10.624v24.966c0,5.867,4.757,10.624,10.624,10.624     c5.867,0,10.624-4.757,10.624-10.624v-24.966C341.49,205.233,336.733,200.476,330.866,200.476z"/>
            <path style="fill:#fff;" d="M288.507,330.23c-23.441,23.443-61.392,23.447-84.837,0c-4.15-4.148-10.875-4.148-15.025,0     c-4.149,4.149-4.149,10.876,0,15.025c31.746,31.746,83.136,31.752,114.888,0c4.149-4.149,4.149-10.876,0-15.025     C299.382,326.082,292.657,326.082,288.507,330.23z"/>
            <path style="fill:#fff;" d="M122.283,79.541c62.26-41.435,138.39-47.277,202.628-23.062c5.493,2.068,11.62-0.704,13.689-6.194     c2.07-5.491-0.703-11.619-6.194-13.689c-70.207-26.464-153.559-20.223-221.895,25.255c-4.885,3.252-6.21,9.846-2.959,14.731     C110.793,81.45,117.381,82.801,122.283,79.541z"/>
            <path style="fill:#fff;" d="M370.608,451.891c-36.856,24.746-79.914,37.825-124.521,37.825     c-123.38,0-223.757-100.377-223.757-223.757c0-61.274,24.285-118.456,68.382-161.015c4.222-4.074,4.341-10.801,0.267-15.022     c-4.074-4.222-10.801-4.342-15.022-0.267c-98.207,94.784-100.485,252.179-3.115,349.55     c84.313,84.312,214.339,94.294,309.611,30.329c4.871-3.271,6.169-9.872,2.899-14.743     C382.079,449.918,375.48,448.622,370.608,451.891z"/>
            <path style="fill:#fff;" d="M452.669,134.169c-3.161-4.946-9.733-6.391-14.674-3.228c-4.944,3.161-6.389,9.731-3.228,14.674     c55.044,86.085,46.21,204.027-32.677,280.75c-4.207,4.091-4.301,10.817-0.21,15.023c4.087,4.203,10.812,4.304,15.023,0.21     c47.84-46.529,74.187-108.905,74.187-175.639C491.092,219.051,477.805,173.479,452.669,134.169z"/>
            <path style="fill:#fff;" d="M493.112,18.934c-22.254-22.254-56.466-23.312-79.827-5.863     c-23.953-17.815-58.079-15.861-79.816,5.863c-23.866,23.866-23.867,62.71,0.005,86.594c8.445,8.436,63.699,63.688,72.304,72.294     c1.993,1.992,4.695,3.112,7.513,3.112c4.4,0,6.718-2.314,8.762-4.356l48.78-48.775c4.149-4.149,4.149-10.876,0-15.025     c-4.15-4.148-10.875-4.148-15.025,0c-23.212,23.214-35.787,35.787-42.513,42.511c-17.847-17.848-57.732-57.731-64.798-64.789     c-15.586-15.593-15.586-40.957-0.004-56.539c15.595-15.589,40.965-15.592,56.557,0.003l0.734,0.732     c4.128,4.12,10.805,4.145,14.962,0.053l0.802-0.791c15.621-15.623,40.915-15.626,56.539,0     c13.164,13.162,15.457,34.086,5.454,49.75c-3.158,4.945-1.71,11.514,3.236,14.672c4.945,3.159,11.514,1.709,14.672-3.236     C516.777,71.143,513.27,39.091,493.112,18.934z"/>
        </g></g></g><g id="Layer_1"/></svg>